<svg width="470" height="410" viewBox="0 0 470 410" fill="none" xmlns="http://www.w3.org/2000/svg">
<path d="M421.407 83H69.5931C65.3995 83 62 86.5754 62 90.9859V264.014C62 268.425 65.3995 272 69.5931 272H421.407C425.6 272 429 268.425 429 264.014V90.9859C429 86.5754 425.6 83 421.407 83Z" stroke="#51515D"/>
<path opacity="0.55" d="M405.025 114.944H354.604C352.507 114.944 350.807 116.731 350.807 118.937V169.514C350.807 171.719 352.507 173.507 354.604 173.507H405.025C407.121 173.507 408.821 171.719 408.821 169.514V118.937C408.821 116.731 407.121 114.944 405.025 114.944Z" fill="#51515D"/>
<path opacity="0.55" d="M405.025 190.81H354.604C352.507 190.81 350.807 192.598 350.807 194.803V245.38C350.807 247.585 352.507 249.373 354.604 249.373H405.025C407.121 249.373 408.821 247.585 408.821 245.38V194.803C408.821 192.598 407.121 190.81 405.025 190.81Z" fill="#51515D"/>
<path opacity="0.55" d="M321.431 148.218H80.9828C78.886 148.218 77.1862 150.006 77.1862 152.211C77.1862 154.416 78.886 156.204 80.9828 156.204H321.431C323.528 156.204 325.228 154.416 325.228 152.211C325.228 150.006 323.528 148.218 321.431 148.218Z" fill="#51515D"/>
<path opacity="0.55" d="M130.338 134.908H80.9828C78.886 134.908 77.1862 136.696 77.1862 138.901C77.1862 141.107 78.886 142.894 80.9828 142.894H130.338C132.435 142.894 134.134 141.107 134.134 138.901C134.134 136.696 132.435 134.908 130.338 134.908Z" fill="#51515D"/>
<path opacity="0.55" d="M307.51 226.747H80.9828C78.886 226.747 77.1862 228.534 77.1862 230.74C77.1862 232.945 78.886 234.732 80.9828 234.732H307.51C309.607 234.732 311.307 232.945 311.307 230.74C311.307 228.534 309.607 226.747 307.51 226.747Z" fill="#51515D"/>
<path opacity="0.55" d="M205.003 242.718H80.9828C78.886 242.718 77.1862 244.506 77.1862 246.711C77.1862 248.916 78.886 250.704 80.9828 250.704H205.003C207.1 250.704 208.8 248.916 208.8 246.711C208.8 244.506 207.1 242.718 205.003 242.718Z" fill="#51515D"/>
<path opacity="0.55" d="M130.338 212.106H80.9828C78.886 212.106 77.1862 213.893 77.1862 216.099C77.1862 218.304 78.886 220.092 80.9828 220.092H130.338C132.435 220.092 134.134 218.304 134.134 216.099C134.134 213.893 132.435 212.106 130.338 212.106Z" fill="#51515D"/>
<path opacity="0.55" d="M174.631 166.852H80.9828C78.886 166.852 77.1862 168.64 77.1862 170.845C77.1862 173.05 78.886 174.838 80.9828 174.838H174.631C176.728 174.838 178.428 173.05 178.428 170.845C178.428 168.64 176.728 166.852 174.631 166.852Z" fill="#51515D"/>
<path opacity="0.55" d="M291.059 181.493H80.9828C78.886 181.493 77.1862 183.281 77.1862 185.486C77.1862 187.691 78.886 189.479 80.9828 189.479H291.059C293.155 189.479 294.855 187.691 294.855 185.486C294.855 183.281 293.155 181.493 291.059 181.493Z" fill="#51515D"/>
<path opacity="0.55" d="M196.145 194.803H80.9828C78.886 194.803 77.1862 196.591 77.1862 198.796C77.1862 201.001 78.886 202.789 80.9828 202.789H196.145C198.242 202.789 199.941 201.001 199.941 198.796C199.941 196.591 198.242 194.803 196.145 194.803Z" fill="#51515D"/>
<path opacity="0.55" d="M306.245 114.944H82.2483C79.4526 114.944 77.1862 117.327 77.1862 120.268C77.1862 123.208 79.4526 125.591 82.2483 125.591H306.245C309.041 125.591 311.307 123.208 311.307 120.268C311.307 117.327 309.041 114.944 306.245 114.944Z" fill="#51515D"/>
<path opacity="0.55" d="M83.5082 100.3C83.5082 98.8314 82.3763 97.6409 80.98 97.6409C79.5837 97.6409 78.4517 98.8314 78.4517 100.3V100.306C78.4517 101.774 79.5837 102.965 80.98 102.965C82.3763 102.965 83.5082 101.774 83.5082 100.306V100.3Z" fill="#3F3F46"/>
<path opacity="0.55" d="M93.6324 100.3C93.6324 98.8314 92.5004 97.6409 91.1041 97.6409C89.7078 97.6409 88.5759 98.8314 88.5759 100.3V100.306C88.5759 101.774 89.7078 102.965 91.1041 102.965C92.5004 102.965 93.6324 101.774 93.6324 100.306V100.3Z" fill="#3F3F46"/>
<path opacity="0.55" d="M103.756 100.3C103.756 98.8314 102.625 97.6409 101.228 97.6409C99.8319 97.6409 98.7 98.8314 98.7 100.3V100.306C98.7 101.774 99.8319 102.965 101.228 102.965C102.625 102.965 103.756 101.774 103.756 100.306V100.3Z" fill="#3F3F46"/>
<path d="M251.885 80.5464L224.327 95.5946C223.607 95.9878 222.745 95.3944 222.857 94.5816L227.307 62.0034C227.438 61.0473 228.713 60.8126 229.176 61.6595L237.297 76.5321C237.452 76.8155 237.734 77.0067 238.054 77.0456L251.526 78.676C252.492 78.7929 252.739 80.0802 251.885 80.5464Z" fill="#0A49D6" stroke="white"/>
<path d="M110.314 278.394L133.598 257.329C134.207 256.778 135.182 257.154 135.264 257.971L138.541 290.688C138.637 291.648 137.452 292.174 136.804 291.458L125.436 278.892C125.219 278.653 124.9 278.533 124.579 278.57L111.1 280.129C110.133 280.241 109.593 279.047 110.314 278.394Z" fill="#0A49D6" stroke="white"/>
<g filter="url(#filter0_di_737_1889)">
<rect x="268" width="184" height="52" rx="12" fill="url(#paint0_linear_737_1889)" shape-rendering="crispEdges"/>
<path d="M279.74 28.02C279.74 26.66 280.053 25.44 280.68 24.36C281.32 23.28 282.18 22.44 283.26 21.84C284.353 21.2267 285.547 20.92 286.84 20.92C288.32 20.92 289.633 21.2867 290.78 22.02C291.94 22.74 292.78 23.7667 293.3 25.1H290.56C290.2 24.3667 289.7 23.82 289.06 23.46C288.42 23.1 287.68 22.92 286.84 22.92C285.92 22.92 285.1 23.1267 284.38 23.54C283.66 23.9533 283.093 24.5467 282.68 25.32C282.28 26.0933 282.08 26.9933 282.08 28.02C282.08 29.0467 282.28 29.9467 282.68 30.72C283.093 31.4933 283.66 32.0933 284.38 32.52C285.1 32.9333 285.92 33.14 286.84 33.14C287.68 33.14 288.42 32.96 289.06 32.6C289.7 32.24 290.2 31.6933 290.56 30.96H293.3C292.78 32.2933 291.94 33.32 290.78 34.04C289.633 34.76 288.32 35.12 286.84 35.12C285.533 35.12 284.34 34.82 283.26 34.22C282.18 33.6067 281.32 32.76 280.68 31.68C280.053 30.6 279.74 29.38 279.74 28.02ZM298.249 25.58C298.582 25.02 299.022 24.5867 299.569 24.28C300.129 23.96 300.789 23.8 301.549 23.8V26.16H300.969C300.075 26.16 299.395 26.3867 298.929 26.84C298.475 27.2933 298.249 28.08 298.249 29.2V35H295.969V23.98H298.249V25.58ZM313.745 29.22C313.745 29.6333 313.718 30.0067 313.665 30.34H305.245C305.311 31.22 305.638 31.9267 306.225 32.46C306.811 32.9933 307.531 33.26 308.385 33.26C309.611 33.26 310.478 32.7467 310.985 31.72H313.445C313.111 32.7333 312.505 33.5667 311.625 34.22C310.758 34.86 309.678 35.18 308.385 35.18C307.331 35.18 306.385 34.9467 305.545 34.48C304.718 34 304.065 33.3333 303.585 32.48C303.118 31.6133 302.885 30.6133 302.885 29.48C302.885 28.3467 303.111 27.3533 303.565 26.5C304.031 25.6333 304.678 24.9667 305.505 24.5C306.345 24.0333 307.305 23.8 308.385 23.8C309.425 23.8 310.351 24.0267 311.165 24.48C311.978 24.9333 312.611 25.5733 313.065 26.4C313.518 27.2133 313.745 28.1533 313.745 29.22ZM311.365 28.5C311.351 27.66 311.051 26.9867 310.465 26.48C309.878 25.9733 309.151 25.72 308.285 25.72C307.498 25.72 306.825 25.9733 306.265 26.48C305.705 26.9733 305.371 27.6467 305.265 28.5H311.365ZM315.228 29.44C315.228 28.3333 315.455 27.3533 315.908 26.5C316.375 25.6467 317.002 24.9867 317.788 24.52C318.588 24.04 319.468 23.8 320.428 23.8C321.295 23.8 322.048 23.9733 322.688 24.32C323.342 24.6533 323.862 25.0733 324.248 25.58V23.98H326.548V35H324.248V33.36C323.862 33.88 323.335 34.3133 322.668 34.66C322.002 35.0067 321.242 35.18 320.388 35.18C319.442 35.18 318.575 34.94 317.788 34.46C317.002 33.9667 316.375 33.2867 315.908 32.42C315.455 31.54 315.228 30.5467 315.228 29.44ZM324.248 29.48C324.248 28.72 324.088 28.06 323.768 27.5C323.462 26.94 323.055 26.5133 322.548 26.22C322.042 25.9267 321.495 25.78 320.908 25.78C320.322 25.78 319.775 25.9267 319.268 26.22C318.762 26.5 318.348 26.92 318.028 27.48C317.722 28.0267 317.568 28.68 317.568 29.44C317.568 30.2 317.722 30.8667 318.028 31.44C318.348 32.0133 318.762 32.4533 319.268 32.76C319.788 33.0533 320.335 33.2 320.908 33.2C321.495 33.2 322.042 33.0533 322.548 32.76C323.055 32.4667 323.462 32.04 323.768 31.48C324.088 30.9067 324.248 30.24 324.248 29.48ZM332.203 25.84V31.94C332.203 32.3533 332.296 32.6533 332.483 32.84C332.683 33.0133 333.016 33.1 333.483 33.1H334.883V35H333.083C332.056 35 331.27 34.76 330.723 34.28C330.176 33.8 329.903 33.02 329.903 31.94V25.84H328.603V23.98H329.903V21.24H332.203V23.98H334.883V25.84H332.203ZM347.084 29.22C347.084 29.6333 347.058 30.0067 347.004 30.34H338.584C338.651 31.22 338.978 31.9267 339.564 32.46C340.151 32.9933 340.871 33.26 341.724 33.26C342.951 33.26 343.818 32.7467 344.324 31.72H346.784C346.451 32.7333 345.844 33.5667 344.964 34.22C344.098 34.86 343.018 35.18 341.724 35.18C340.671 35.18 339.724 34.9467 338.884 34.48C338.058 34 337.404 33.3333 336.924 32.48C336.458 31.6133 336.224 30.6133 336.224 29.48C336.224 28.3467 336.451 27.3533 336.904 26.5C337.371 25.6333 338.018 24.9667 338.844 24.5C339.684 24.0333 340.644 23.8 341.724 23.8C342.764 23.8 343.691 24.0267 344.504 24.48C345.318 24.9333 345.951 25.5733 346.404 26.4C346.858 27.2133 347.084 28.1533 347.084 29.22ZM344.704 28.5C344.691 27.66 344.391 26.9867 343.804 26.48C343.218 25.9733 342.491 25.72 341.624 25.72C340.838 25.72 340.164 25.9733 339.604 26.48C339.044 26.9733 338.711 27.6467 338.604 28.5H344.704ZM353.763 28.02C353.763 26.66 354.077 25.44 354.703 24.36C355.343 23.28 356.203 22.44 357.283 21.84C358.377 21.2267 359.57 20.92 360.863 20.92C362.343 20.92 363.657 21.2867 364.803 22.02C365.963 22.74 366.803 23.7667 367.323 25.1H364.583C364.223 24.3667 363.723 23.82 363.083 23.46C362.443 23.1 361.703 22.92 360.863 22.92C359.943 22.92 359.123 23.1267 358.403 23.54C357.683 23.9533 357.117 24.5467 356.703 25.32C356.303 26.0933 356.103 26.9933 356.103 28.02C356.103 29.0467 356.303 29.9467 356.703 30.72C357.117 31.4933 357.683 32.0933 358.403 32.52C359.123 32.9333 359.943 33.14 360.863 33.14C361.703 33.14 362.443 32.96 363.083 32.6C363.723 32.24 364.223 31.6933 364.583 30.96H367.323C366.803 32.2933 365.963 33.32 364.803 34.04C363.657 34.76 362.343 35.12 360.863 35.12C359.557 35.12 358.363 34.82 357.283 34.22C356.203 33.6067 355.343 32.76 354.703 31.68C354.077 30.6 353.763 29.38 353.763 28.02ZM374.772 35.18C373.732 35.18 372.792 34.9467 371.952 34.48C371.112 34 370.452 33.3333 369.972 32.48C369.492 31.6133 369.252 30.6133 369.252 29.48C369.252 28.36 369.499 27.3667 369.992 26.5C370.486 25.6333 371.159 24.9667 372.012 24.5C372.866 24.0333 373.819 23.8 374.872 23.8C375.926 23.8 376.879 24.0333 377.732 24.5C378.586 24.9667 379.259 25.6333 379.752 26.5C380.246 27.3667 380.492 28.36 380.492 29.48C380.492 30.6 380.239 31.5933 379.732 32.46C379.226 33.3267 378.532 34 377.652 34.48C376.786 34.9467 375.826 35.18 374.772 35.18ZM374.772 33.2C375.359 33.2 375.906 33.06 376.412 32.78C376.932 32.5 377.352 32.08 377.672 31.52C377.992 30.96 378.152 30.28 378.152 29.48C378.152 28.68 377.999 28.0067 377.692 27.46C377.386 26.9 376.979 26.48 376.472 26.2C375.966 25.92 375.419 25.78 374.832 25.78C374.246 25.78 373.699 25.92 373.192 26.2C372.699 26.48 372.306 26.9 372.012 27.46C371.719 28.0067 371.572 28.68 371.572 29.48C371.572 30.6667 371.872 31.5867 372.472 32.24C373.086 32.88 373.852 33.2 374.772 33.2ZM392.726 23.98V35H390.446V33.7C390.086 34.1533 389.613 34.5133 389.026 34.78C388.453 35.0333 387.839 35.16 387.186 35.16C386.319 35.16 385.539 34.98 384.846 34.62C384.166 34.26 383.626 33.7267 383.226 33.02C382.839 32.3133 382.646 31.46 382.646 30.46V23.98H384.906V30.12C384.906 31.1067 385.153 31.8667 385.646 32.4C386.139 32.92 386.813 33.18 387.666 33.18C388.519 33.18 389.193 32.92 389.686 32.4C390.193 31.8667 390.446 31.1067 390.446 30.12V23.98H392.726ZM398.014 25.58C398.348 25.02 398.788 24.5867 399.334 24.28C399.894 23.96 400.554 23.8 401.314 23.8V26.16H400.734C399.841 26.16 399.161 26.3867 398.694 26.84C398.241 27.2933 398.014 28.08 398.014 29.2V35H395.734V23.98H398.014V25.58ZM407.41 35.18C406.543 35.18 405.763 35.0267 405.07 34.72C404.39 34.4 403.85 33.9733 403.45 33.44C403.05 32.8933 402.837 32.2867 402.81 31.62H405.17C405.21 32.0867 405.43 32.48 405.83 32.8C406.243 33.1067 406.757 33.26 407.37 33.26C408.01 33.26 408.503 33.14 408.85 32.9C409.21 32.6467 409.39 32.3267 409.39 31.94C409.39 31.5267 409.19 31.22 408.79 31.02C408.403 30.82 407.783 30.6 406.93 30.36C406.103 30.1333 405.43 29.9133 404.91 29.7C404.39 29.4867 403.937 29.16 403.55 28.72C403.177 28.28 402.99 27.7 402.99 26.98C402.99 26.3933 403.163 25.86 403.51 25.38C403.857 24.8867 404.35 24.5 404.99 24.22C405.643 23.94 406.39 23.8 407.23 23.8C408.483 23.8 409.49 24.12 410.25 24.76C411.023 25.3867 411.437 26.2467 411.49 27.34H409.21C409.17 26.8467 408.97 26.4533 408.61 26.16C408.25 25.8667 407.763 25.72 407.15 25.72C406.55 25.72 406.09 25.8333 405.77 26.06C405.45 26.2867 405.29 26.5867 405.29 26.96C405.29 27.2533 405.397 27.5 405.61 27.7C405.823 27.9 406.083 28.06 406.39 28.18C406.697 28.2867 407.15 28.4267 407.75 28.6C408.55 28.8133 409.203 29.0333 409.71 29.26C410.23 29.4733 410.677 29.7933 411.05 30.22C411.423 30.6467 411.617 31.2133 411.63 31.92C411.63 32.5467 411.457 33.1067 411.11 33.6C410.763 34.0933 410.27 34.48 409.63 34.76C409.003 35.04 408.263 35.18 407.41 35.18ZM424.194 29.22C424.194 29.6333 424.167 30.0067 424.114 30.34H415.694C415.76 31.22 416.087 31.9267 416.674 32.46C417.26 32.9933 417.98 33.26 418.834 33.26C420.06 33.26 420.927 32.7467 421.434 31.72H423.894C423.56 32.7333 422.954 33.5667 422.074 34.22C421.207 34.86 420.127 35.18 418.834 35.18C417.78 35.18 416.834 34.9467 415.994 34.48C415.167 34 414.514 33.3333 414.034 32.48C413.567 31.6133 413.334 30.6133 413.334 29.48C413.334 28.3467 413.56 27.3533 414.014 26.5C414.48 25.6333 415.127 24.9667 415.954 24.5C416.794 24.0333 417.754 23.8 418.834 23.8C419.874 23.8 420.8 24.0267 421.614 24.48C422.427 24.9333 423.06 25.5733 423.514 26.4C423.967 27.2133 424.194 28.1533 424.194 29.22ZM421.814 28.5C421.8 27.66 421.5 26.9867 420.914 26.48C420.327 25.9733 419.6 25.72 418.734 25.72C417.947 25.72 417.274 25.9733 416.714 26.48C416.154 26.9733 415.82 27.6467 415.714 28.5H421.814ZM430.438 35.18C429.571 35.18 428.791 35.0267 428.098 34.72C427.418 34.4 426.878 33.9733 426.478 33.44C426.078 32.8933 425.864 32.2867 425.838 31.62H428.198C428.238 32.0867 428.458 32.48 428.858 32.8C429.271 33.1067 429.784 33.26 430.398 33.26C431.038 33.26 431.531 33.14 431.878 32.9C432.238 32.6467 432.418 32.3267 432.418 31.94C432.418 31.5267 432.218 31.22 431.818 31.02C431.431 30.82 430.811 30.6 429.958 30.36C429.131 30.1333 428.458 29.9133 427.938 29.7C427.418 29.4867 426.964 29.16 426.578 28.72C426.204 28.28 426.018 27.7 426.018 26.98C426.018 26.3933 426.191 25.86 426.538 25.38C426.884 24.8867 427.378 24.5 428.018 24.22C428.671 23.94 429.418 23.8 430.258 23.8C431.511 23.8 432.518 24.12 433.278 24.76C434.051 25.3867 434.464 26.2467 434.518 27.34H432.238C432.198 26.8467 431.998 26.4533 431.638 26.16C431.278 25.8667 430.791 25.72 430.178 25.72C429.578 25.72 429.118 25.8333 428.798 26.06C428.478 26.2867 428.318 26.5867 428.318 26.96C428.318 27.2533 428.424 27.5 428.638 27.7C428.851 27.9 429.111 28.06 429.418 28.18C429.724 28.2867 430.178 28.4267 430.778 28.6C431.578 28.8133 432.231 29.0333 432.738 29.26C433.258 29.4733 433.704 29.7933 434.078 30.22C434.451 30.6467 434.644 31.2133 434.658 31.92C434.658 32.5467 434.484 33.1067 434.138 33.6C433.791 34.0933 433.298 34.48 432.658 34.76C432.031 35.04 431.291 35.18 430.438 35.18Z" fill="white"/>
</g>
<g filter="url(#filter1_di_737_1889)">
<rect x="25" y="303" width="175" height="52" rx="12" fill="url(#paint1_linear_737_1889)" shape-rendering="crispEdges"/>
<path d="M40.64 338H38.68V323.54H44.14C47.24 323.54 49.08 325.18 49.08 327.88C49.08 329.88 48.08 331.32 46.28 331.9L49.22 338H47.04L44.34 332.28H40.64V338ZM40.64 325.3V330.54H44.16C45.98 330.54 47.02 329.56 47.02 327.9C47.02 326.22 45.94 325.3 44.14 325.3H40.64ZM54.9628 338.24C52.0828 338.24 50.1028 336.16 50.1028 333.12C50.1028 330.06 52.0428 327.94 54.8828 327.94C57.6628 327.94 59.4828 329.86 59.4828 332.76V333.46L51.9228 333.48C52.0628 335.54 53.1428 336.68 55.0028 336.68C56.4628 336.68 57.4228 336.08 57.7428 334.96H59.5028C59.0228 337.06 57.3828 338.24 54.9628 338.24ZM54.8828 329.52C53.2428 329.52 52.2028 330.5 51.9628 332.22H57.6028C57.6028 330.6 56.5428 329.52 54.8828 329.52ZM60.9627 332.86C60.9627 330.1 62.7427 327.94 65.5827 327.94C67.1627 327.94 68.3827 328.66 69.0027 329.88L69.1427 328.22H70.8227V337.6C70.8227 340.68 68.9227 342.64 65.9227 342.64C63.2627 342.64 61.4427 341.14 61.0827 338.66H62.9627C63.2027 340.1 64.2827 340.94 65.9227 340.94C67.7627 340.94 68.9627 339.74 68.9627 337.88V335.92C68.3227 337.06 67.0427 337.74 65.5027 337.74C62.7227 337.74 60.9627 335.6 60.9627 332.86ZM62.8427 332.82C62.8427 334.66 63.9827 336.1 65.8227 336.1C67.7227 336.1 68.8827 334.74 68.8827 332.82C68.8827 330.94 67.7627 329.58 65.8427 329.58C63.9627 329.58 62.8427 331.02 62.8427 332.82ZM74.4558 325.9C73.7758 325.9 73.2158 325.34 73.2158 324.66C73.2158 323.96 73.7758 323.42 74.4558 323.42C75.1358 323.42 75.6958 323.96 75.6958 324.66C75.6958 325.34 75.1358 325.9 74.4558 325.9ZM73.5358 338V328.22H75.4158V338H73.5358ZM77.3452 335.16H79.1452C79.1452 336.16 79.9052 336.76 81.1452 336.76C82.4652 336.76 83.2252 336.22 83.2252 335.32C83.2252 334.66 82.9052 334.26 81.8852 334L80.1652 333.6C78.4252 333.18 77.6052 332.32 77.6052 330.88C77.6052 329.08 79.1252 327.94 81.2852 327.94C83.4252 327.94 84.8252 329.14 84.8652 331H83.0652C83.0252 330.02 82.3652 329.4 81.2252 329.4C80.0452 329.4 79.3852 329.92 79.3852 330.82C79.3852 331.48 79.8652 331.92 80.8252 332.16L82.5452 332.58C84.2052 332.98 85.0252 333.74 85.0252 335.2C85.0252 337.06 83.4252 338.24 81.1052 338.24C78.8052 338.24 77.3452 337.02 77.3452 335.16ZM89.87 338H87.99V329.8H86.07V328.22H87.99V325.16H89.87V328.22H91.79V329.8H89.87V338ZM97.5995 338.24C94.7195 338.24 92.7395 336.16 92.7395 333.12C92.7395 330.06 94.6795 327.94 97.5195 327.94C100.3 327.94 102.12 329.86 102.12 332.76V333.46L94.5595 333.48C94.6995 335.54 95.7795 336.68 97.6395 336.68C99.0995 336.68 100.06 336.08 100.38 334.96H102.14C101.66 337.06 100.02 338.24 97.5995 338.24ZM97.5195 329.52C95.8795 329.52 94.8395 330.5 94.5995 332.22H100.24C100.24 330.6 99.1795 329.52 97.5195 329.52ZM109.819 328.14V329.86H108.979C107.199 329.86 106.099 330.94 106.099 332.82V338H104.219V328.24H105.979L106.099 329.72C106.499 328.7 107.479 328.02 108.819 328.02C109.159 328.02 109.439 328.06 109.819 328.14ZM116.531 327.44C116.531 324.96 118.531 323.28 121.511 323.28C124.271 323.28 126.051 324.82 126.211 327.32H124.231C124.131 325.88 123.111 325.04 121.491 325.04C119.671 325.04 118.491 325.96 118.491 327.38C118.491 328.54 119.151 329.24 120.511 329.56L122.891 330.12C125.251 330.66 126.451 331.94 126.451 333.98C126.451 336.58 124.431 338.24 121.351 338.24C118.411 338.24 116.451 336.7 116.331 334.22H118.331C118.371 335.6 119.531 336.48 121.351 336.48C123.271 336.48 124.491 335.58 124.491 334.14C124.491 333 123.871 332.28 122.491 331.96L120.111 331.42C117.751 330.88 116.531 329.52 116.531 327.44ZM131.354 338H129.474V329.8H127.554V328.22H129.474V325.16H131.354V328.22H133.274V329.8H131.354V338ZM141.722 328.22H143.582V338H141.902L141.702 336.52C141.142 337.54 139.842 338.24 138.402 338.24C136.122 338.24 134.842 336.7 134.842 334.3V328.22H136.722V333.68C136.722 335.78 137.622 336.58 139.062 336.58C140.782 336.58 141.722 335.48 141.722 333.38V328.22ZM150.034 338.24C147.194 338.24 145.474 336.12 145.474 333.14C145.474 330.14 147.214 327.94 150.114 327.94C151.614 327.94 152.874 328.6 153.534 329.8V323.28H155.394V338H153.714L153.554 336.22C152.914 337.56 151.594 338.24 150.034 338.24ZM150.414 336.54C152.334 336.54 153.514 335.12 153.514 333.08C153.514 331.08 152.334 329.64 150.414 329.64C148.494 329.64 147.374 331.08 147.374 333.08C147.374 335.1 148.494 336.54 150.414 336.54ZM162.326 338.24C159.446 338.24 157.466 336.16 157.466 333.12C157.466 330.06 159.406 327.94 162.246 327.94C165.026 327.94 166.846 329.86 166.846 332.76V333.46L159.286 333.48C159.426 335.54 160.506 336.68 162.366 336.68C163.826 336.68 164.786 336.08 165.106 334.96H166.866C166.386 337.06 164.746 338.24 162.326 338.24ZM162.246 329.52C160.606 329.52 159.566 330.5 159.326 332.22H164.966C164.966 330.6 163.906 329.52 162.246 329.52ZM170.826 338H168.946V328.22H170.646L170.846 329.72C171.466 328.6 172.706 327.94 174.086 327.94C176.666 327.94 177.846 329.52 177.846 332.02V338H175.966V332.44C175.966 330.46 175.046 329.66 173.606 329.66C171.846 329.66 170.826 330.92 170.826 332.82V338ZM183.21 338H181.33V329.8H179.41V328.22H181.33V325.16H183.21V328.22H185.13V329.8H183.21V338ZM186.017 335.16H187.817C187.817 336.16 188.577 336.76 189.817 336.76C191.137 336.76 191.897 336.22 191.897 335.32C191.897 334.66 191.577 334.26 190.557 334L188.837 333.6C187.097 333.18 186.277 332.32 186.277 330.88C186.277 329.08 187.797 327.94 189.957 327.94C192.097 327.94 193.497 329.14 193.537 331H191.737C191.697 330.02 191.037 329.4 189.897 329.4C188.717 329.4 188.057 329.92 188.057 330.82C188.057 331.48 188.537 331.92 189.497 332.16L191.217 332.58C192.877 332.98 193.697 333.74 193.697 335.2C193.697 337.06 192.097 338.24 189.777 338.24C187.477 338.24 186.017 337.02 186.017 335.16Z" fill="white"/>
</g>
<defs>
<filter id="filter0_di_737_1889" x="243" y="0" width="234" height="107" filterUnits="userSpaceOnUse" color-interpolation-filters="sRGB">
<feFlood flood-opacity="0" result="BackgroundImageFix"/>
<feColorMatrix in="SourceAlpha" type="matrix" values="0 0 0 0 0 0 0 0 0 0 0 0 0 0 0 0 0 0 127 0" result="hardAlpha"/>
<feOffset dy="30"/>
<feGaussianBlur stdDeviation="12.5"/>
<feComposite in2="hardAlpha" operator="out"/>
<feColorMatrix type="matrix" values="0 0 0 0 0 0 0 0 0 0 0 0 0 0 0 0 0 0 0.5 0"/>
<feBlend mode="normal" in2="BackgroundImageFix" result="effect1_dropShadow_737_1889"/>
<feBlend mode="normal" in="SourceGraphic" in2="effect1_dropShadow_737_1889" result="shape"/>
<feColorMatrix in="SourceAlpha" type="matrix" values="0 0 0 0 0 0 0 0 0 0 0 0 0 0 0 0 0 0 127 0" result="hardAlpha"/>
<feOffset dy="2"/>
<feGaussianBlur stdDeviation="1"/>
<feComposite in2="hardAlpha" operator="arithmetic" k2="-1" k3="1"/>
<feColorMatrix type="matrix" values="0 0 0 0 0.321569 0 0 0 0 0.317647 0 0 0 0 0.329412 0 0 0 1 0"/>
<feBlend mode="normal" in2="shape" result="effect2_innerShadow_737_1889"/>
</filter>
<filter id="filter1_di_737_1889" x="0" y="303" width="225" height="107" filterUnits="userSpaceOnUse" color-interpolation-filters="sRGB">
<feFlood flood-opacity="0" result="BackgroundImageFix"/>
<feColorMatrix in="SourceAlpha" type="matrix" values="0 0 0 0 0 0 0 0 0 0 0 0 0 0 0 0 0 0 127 0" result="hardAlpha"/>
<feOffset dy="30"/>
<feGaussianBlur stdDeviation="12.5"/>
<feComposite in2="hardAlpha" operator="out"/>
<feColorMatrix type="matrix" values="0 0 0 0 0 0 0 0 0 0 0 0 0 0 0 0 0 0 0.5 0"/>
<feBlend mode="normal" in2="BackgroundImageFix" result="effect1_dropShadow_737_1889"/>
<feBlend mode="normal" in="SourceGraphic" in2="effect1_dropShadow_737_1889" result="shape"/>
<feColorMatrix in="SourceAlpha" type="matrix" values="0 0 0 0 0 0 0 0 0 0 0 0 0 0 0 0 0 0 127 0" result="hardAlpha"/>
<feOffset dy="2"/>
<feGaussianBlur stdDeviation="1"/>
<feComposite in2="hardAlpha" operator="arithmetic" k2="-1" k3="1"/>
<feColorMatrix type="matrix" values="0 0 0 0 0.321569 0 0 0 0 0.317647 0 0 0 0 0.329412 0 0 0 1 0"/>
<feBlend mode="normal" in2="shape" result="effect2_innerShadow_737_1889"/>
</filter>
<linearGradient id="paint0_linear_737_1889" x1="360" y1="0" x2="360" y2="52" gradientUnits="userSpaceOnUse">
<stop stop-color="#343335"/>
<stop offset="1" stop-color="#1A191B"/>
</linearGradient>
<linearGradient id="paint1_linear_737_1889" x1="112.5" y1="303" x2="112.5" y2="355" gradientUnits="userSpaceOnUse">
<stop stop-color="#343335"/>
<stop offset="1" stop-color="#1A191B"/>
</linearGradient>
</defs>
</svg>
