<svg width="642" height="328" viewBox="0 0 642 328" fill="none" xmlns="http://www.w3.org/2000/svg">
<path d="M421.407 1H69.5931C65.3995 1 62 4.57541 62 8.98591V182.014C62 186.425 65.3995 190 69.5931 190H421.407C425.6 190 429 186.425 429 182.014V8.98591C429 4.57541 425.6 1 421.407 1Z" stroke="#51515D"/>
<path opacity="0.55" d="M405.025 32.9436H354.604C352.507 32.9436 350.807 34.7313 350.807 36.9366V87.514C350.807 89.7193 352.507 91.507 354.604 91.507H405.025C407.121 91.507 408.821 89.7193 408.821 87.514V36.9366C408.821 34.7313 407.121 32.9436 405.025 32.9436Z" fill="#51515D"/>
<path opacity="0.55" d="M405.025 108.81H354.604C352.507 108.81 350.807 110.598 350.807 112.803V163.38C350.807 165.585 352.507 167.373 354.604 167.373H405.025C407.121 167.373 408.821 165.585 408.821 163.38V112.803C408.821 110.598 407.121 108.81 405.025 108.81Z" fill="#51515D"/>
<path opacity="0.55" d="M321.431 66.2183H80.9828C78.886 66.2183 77.1862 68.006 77.1862 70.2112C77.1862 72.4165 78.886 74.2042 80.9828 74.2042H321.431C323.528 74.2042 325.228 72.4165 325.228 70.2112C325.228 68.006 323.528 66.2183 321.431 66.2183Z" fill="#51515D"/>
<path opacity="0.55" d="M130.338 52.9084H80.9828C78.886 52.9084 77.1862 54.6962 77.1862 56.9014C77.1862 59.1067 78.886 60.8944 80.9828 60.8944H130.338C132.435 60.8944 134.134 59.1067 134.134 56.9014C134.134 54.6962 132.435 52.9084 130.338 52.9084Z" fill="#51515D"/>
<path opacity="0.55" d="M307.51 144.747H80.9828C78.886 144.747 77.1862 146.534 77.1862 148.74C77.1862 150.945 78.886 152.732 80.9828 152.732H307.51C309.607 152.732 311.307 150.945 311.307 148.74C311.307 146.534 309.607 144.747 307.51 144.747Z" fill="#51515D"/>
<path opacity="0.55" d="M205.003 160.718H80.9828C78.886 160.718 77.1862 162.506 77.1862 164.711C77.1862 166.916 78.886 168.704 80.9828 168.704H205.003C207.1 168.704 208.8 166.916 208.8 164.711C208.8 162.506 207.1 160.718 205.003 160.718Z" fill="#51515D"/>
<path opacity="0.55" d="M130.338 130.106H80.9828C78.886 130.106 77.1862 131.893 77.1862 134.099C77.1862 136.304 78.886 138.092 80.9828 138.092H130.338C132.435 138.092 134.134 136.304 134.134 134.099C134.134 131.893 132.435 130.106 130.338 130.106Z" fill="#51515D"/>
<path opacity="0.55" d="M174.631 84.8521H80.9828C78.886 84.8521 77.1862 86.6398 77.1862 88.845C77.1862 91.0503 78.886 92.838 80.9828 92.838H174.631C176.728 92.838 178.428 91.0503 178.428 88.845C178.428 86.6398 176.728 84.8521 174.631 84.8521Z" fill="#51515D"/>
<path opacity="0.55" d="M291.059 99.4929H80.9828C78.886 99.4929 77.1862 101.281 77.1862 103.486C77.1862 105.691 78.886 107.479 80.9828 107.479H291.059C293.155 107.479 294.855 105.691 294.855 103.486C294.855 101.281 293.155 99.4929 291.059 99.4929Z" fill="#51515D"/>
<path opacity="0.55" d="M196.145 112.803H80.9828C78.886 112.803 77.1862 114.59 77.1862 116.796C77.1862 119.001 78.886 120.789 80.9828 120.789H196.145C198.242 120.789 199.941 119.001 199.941 116.796C199.941 114.59 198.242 112.803 196.145 112.803Z" fill="#51515D"/>
<path opacity="0.55" d="M306.245 32.9436H82.2483C79.4526 32.9436 77.1862 35.3272 77.1862 38.2675C77.1862 41.2079 79.4526 43.5915 82.2483 43.5915H306.245C309.041 43.5915 311.307 41.2079 311.307 38.2675C311.307 35.3272 309.041 32.9436 306.245 32.9436Z" fill="#51515D"/>
<path opacity="0.55" d="M83.5082 18.2999C83.5082 16.8314 82.3763 15.6409 80.98 15.6409C79.5837 15.6409 78.4517 16.8314 78.4517 18.2999V18.3058C78.4517 19.7743 79.5837 20.9648 80.98 20.9648C82.3763 20.9648 83.5082 19.7743 83.5082 18.3058V18.2999Z" fill="#3F3F46"/>
<path opacity="0.55" d="M93.6324 18.2999C93.6324 16.8314 92.5004 15.6409 91.1041 15.6409C89.7078 15.6409 88.5759 16.8314 88.5759 18.2999V18.3058C88.5759 19.7743 89.7078 20.9648 91.1041 20.9648C92.5004 20.9648 93.6324 19.7743 93.6324 18.3058V18.2999Z" fill="#3F3F46"/>
<path opacity="0.55" d="M103.756 18.2999C103.756 16.8314 102.625 15.6409 101.228 15.6409C99.8319 15.6409 98.7 16.8314 98.7 18.2999V18.3058C98.7 19.7743 99.8319 20.9648 101.228 20.9648C102.625 20.9648 103.756 19.7743 103.756 18.3058V18.2999Z" fill="#3F3F46"/>
<path d="M425.568 105.116L409.983 77.8579C409.576 77.1457 410.152 76.2731 410.967 76.3682L443.626 80.1797C444.585 80.2916 444.844 81.5621 444.007 82.0411L429.296 90.4522C429.016 90.6125 428.83 90.8983 428.798 91.2196L427.431 104.72C427.333 105.688 426.051 105.96 425.568 105.116Z" fill="#0A49D6" stroke="white"/>
<path d="M110.314 196.394L133.598 175.329C134.207 174.778 135.182 175.154 135.264 175.971L138.541 208.688C138.637 209.648 137.452 210.174 136.804 209.458L125.436 196.892C125.219 196.653 124.9 196.533 124.579 196.57L111.1 198.129C110.133 198.241 109.593 197.047 110.314 196.394Z" fill="#0A49D6" stroke="white"/>
<g filter="url(#filter0_di_737_1889)">
<rect x="441" y="101" width="184" height="52" rx="12" fill="url(#paint0_linear_737_1889)" shape-rendering="crispEdges"/>
<path d="M452.74 129.02C452.74 127.66 453.053 126.44 453.68 125.36C454.32 124.28 455.18 123.44 456.26 122.84C457.353 122.227 458.547 121.92 459.84 121.92C461.32 121.92 462.633 122.287 463.78 123.02C464.94 123.74 465.78 124.767 466.3 126.1H463.56C463.2 125.367 462.7 124.82 462.06 124.46C461.42 124.1 460.68 123.92 459.84 123.92C458.92 123.92 458.1 124.127 457.38 124.54C456.66 124.953 456.093 125.547 455.68 126.32C455.28 127.093 455.08 127.993 455.08 129.02C455.08 130.047 455.28 130.947 455.68 131.72C456.093 132.493 456.66 133.093 457.38 133.52C458.1 133.933 458.92 134.14 459.84 134.14C460.68 134.14 461.42 133.96 462.06 133.6C462.7 133.24 463.2 132.693 463.56 131.96H466.3C465.78 133.293 464.94 134.32 463.78 135.04C462.633 135.76 461.32 136.12 459.84 136.12C458.533 136.12 457.34 135.82 456.26 135.22C455.18 134.607 454.32 133.76 453.68 132.68C453.053 131.6 452.74 130.38 452.74 129.02ZM471.249 126.58C471.582 126.02 472.022 125.587 472.569 125.28C473.129 124.96 473.789 124.8 474.549 124.8V127.16H473.969C473.075 127.16 472.395 127.387 471.929 127.84C471.475 128.293 471.249 129.08 471.249 130.2V136H468.969V124.98H471.249V126.58ZM486.745 130.22C486.745 130.633 486.718 131.007 486.665 131.34H478.245C478.311 132.22 478.638 132.927 479.225 133.46C479.811 133.993 480.531 134.26 481.385 134.26C482.611 134.26 483.478 133.747 483.985 132.72H486.445C486.111 133.733 485.505 134.567 484.625 135.22C483.758 135.86 482.678 136.18 481.385 136.18C480.331 136.18 479.385 135.947 478.545 135.48C477.718 135 477.065 134.333 476.585 133.48C476.118 132.613 475.885 131.613 475.885 130.48C475.885 129.347 476.111 128.353 476.565 127.5C477.031 126.633 477.678 125.967 478.505 125.5C479.345 125.033 480.305 124.8 481.385 124.8C482.425 124.8 483.351 125.027 484.165 125.48C484.978 125.933 485.611 126.573 486.065 127.4C486.518 128.213 486.745 129.153 486.745 130.22ZM484.365 129.5C484.351 128.66 484.051 127.987 483.465 127.48C482.878 126.973 482.151 126.72 481.285 126.72C480.498 126.72 479.825 126.973 479.265 127.48C478.705 127.973 478.371 128.647 478.265 129.5H484.365ZM488.228 130.44C488.228 129.333 488.455 128.353 488.908 127.5C489.375 126.647 490.002 125.987 490.788 125.52C491.588 125.04 492.468 124.8 493.428 124.8C494.295 124.8 495.048 124.973 495.688 125.32C496.342 125.653 496.862 126.073 497.248 126.58V124.98H499.548V136H497.248V134.36C496.862 134.88 496.335 135.313 495.668 135.66C495.002 136.007 494.242 136.18 493.388 136.18C492.442 136.18 491.575 135.94 490.788 135.46C490.002 134.967 489.375 134.287 488.908 133.42C488.455 132.54 488.228 131.547 488.228 130.44ZM497.248 130.48C497.248 129.72 497.088 129.06 496.768 128.5C496.462 127.94 496.055 127.513 495.548 127.22C495.042 126.927 494.495 126.78 493.908 126.78C493.322 126.78 492.775 126.927 492.268 127.22C491.762 127.5 491.348 127.92 491.028 128.48C490.722 129.027 490.568 129.68 490.568 130.44C490.568 131.2 490.722 131.867 491.028 132.44C491.348 133.013 491.762 133.453 492.268 133.76C492.788 134.053 493.335 134.2 493.908 134.2C494.495 134.2 495.042 134.053 495.548 133.76C496.055 133.467 496.462 133.04 496.768 132.48C497.088 131.907 497.248 131.24 497.248 130.48ZM505.203 126.84V132.94C505.203 133.353 505.296 133.653 505.483 133.84C505.683 134.013 506.016 134.1 506.483 134.1H507.883V136H506.083C505.056 136 504.27 135.76 503.723 135.28C503.176 134.8 502.903 134.02 502.903 132.94V126.84H501.603V124.98H502.903V122.24H505.203V124.98H507.883V126.84H505.203ZM520.084 130.22C520.084 130.633 520.058 131.007 520.004 131.34H511.584C511.651 132.22 511.978 132.927 512.564 133.46C513.151 133.993 513.871 134.26 514.724 134.26C515.951 134.26 516.818 133.747 517.324 132.72H519.784C519.451 133.733 518.844 134.567 517.964 135.22C517.098 135.86 516.018 136.18 514.724 136.18C513.671 136.18 512.724 135.947 511.884 135.48C511.058 135 510.404 134.333 509.924 133.48C509.458 132.613 509.224 131.613 509.224 130.48C509.224 129.347 509.451 128.353 509.904 127.5C510.371 126.633 511.018 125.967 511.844 125.5C512.684 125.033 513.644 124.8 514.724 124.8C515.764 124.8 516.691 125.027 517.504 125.48C518.318 125.933 518.951 126.573 519.404 127.4C519.858 128.213 520.084 129.153 520.084 130.22ZM517.704 129.5C517.691 128.66 517.391 127.987 516.804 127.48C516.218 126.973 515.491 126.72 514.624 126.72C513.838 126.72 513.164 126.973 512.604 127.48C512.044 127.973 511.711 128.647 511.604 129.5H517.704ZM526.763 129.02C526.763 127.66 527.077 126.44 527.703 125.36C528.343 124.28 529.203 123.44 530.283 122.84C531.377 122.227 532.57 121.92 533.863 121.92C535.343 121.92 536.657 122.287 537.803 123.02C538.963 123.74 539.803 124.767 540.323 126.1H537.583C537.223 125.367 536.723 124.82 536.083 124.46C535.443 124.1 534.703 123.92 533.863 123.92C532.943 123.92 532.123 124.127 531.403 124.54C530.683 124.953 530.117 125.547 529.703 126.32C529.303 127.093 529.103 127.993 529.103 129.02C529.103 130.047 529.303 130.947 529.703 131.72C530.117 132.493 530.683 133.093 531.403 133.52C532.123 133.933 532.943 134.14 533.863 134.14C534.703 134.14 535.443 133.96 536.083 133.6C536.723 133.24 537.223 132.693 537.583 131.96H540.323C539.803 133.293 538.963 134.32 537.803 135.04C536.657 135.76 535.343 136.12 533.863 136.12C532.557 136.12 531.363 135.82 530.283 135.22C529.203 134.607 528.343 133.76 527.703 132.68C527.077 131.6 526.763 130.38 526.763 129.02ZM547.772 136.18C546.732 136.18 545.792 135.947 544.952 135.48C544.112 135 543.452 134.333 542.972 133.48C542.492 132.613 542.252 131.613 542.252 130.48C542.252 129.36 542.499 128.367 542.992 127.5C543.486 126.633 544.159 125.967 545.012 125.5C545.866 125.033 546.819 124.8 547.872 124.8C548.926 124.8 549.879 125.033 550.732 125.5C551.586 125.967 552.259 126.633 552.752 127.5C553.246 128.367 553.492 129.36 553.492 130.48C553.492 131.6 553.239 132.593 552.732 133.46C552.226 134.327 551.532 135 550.652 135.48C549.786 135.947 548.826 136.18 547.772 136.18ZM547.772 134.2C548.359 134.2 548.906 134.06 549.412 133.78C549.932 133.5 550.352 133.08 550.672 132.52C550.992 131.96 551.152 131.28 551.152 130.48C551.152 129.68 550.999 129.007 550.692 128.46C550.386 127.9 549.979 127.48 549.472 127.2C548.966 126.92 548.419 126.78 547.832 126.78C547.246 126.78 546.699 126.92 546.192 127.2C545.699 127.48 545.306 127.9 545.012 128.46C544.719 129.007 544.572 129.68 544.572 130.48C544.572 131.667 544.872 132.587 545.472 133.24C546.086 133.88 546.852 134.2 547.772 134.2ZM565.726 124.98V136H563.446V134.7C563.086 135.153 562.613 135.513 562.026 135.78C561.453 136.033 560.839 136.16 560.186 136.16C559.319 136.16 558.539 135.98 557.846 135.62C557.166 135.26 556.626 134.727 556.226 134.02C555.839 133.313 555.646 132.46 555.646 131.46V124.98H557.906V131.12C557.906 132.107 558.153 132.867 558.646 133.4C559.139 133.92 559.813 134.18 560.666 134.18C561.519 134.18 562.193 133.92 562.686 133.4C563.193 132.867 563.446 132.107 563.446 131.12V124.98H565.726ZM571.014 126.58C571.348 126.02 571.788 125.587 572.334 125.28C572.894 124.96 573.554 124.8 574.314 124.8V127.16H573.734C572.841 127.16 572.161 127.387 571.694 127.84C571.241 128.293 571.014 129.08 571.014 130.2V136H568.734V124.98H571.014V126.58ZM580.41 136.18C579.543 136.18 578.763 136.027 578.07 135.72C577.39 135.4 576.85 134.973 576.45 134.44C576.05 133.893 575.837 133.287 575.81 132.62H578.17C578.21 133.087 578.43 133.48 578.83 133.8C579.243 134.107 579.757 134.26 580.37 134.26C581.01 134.26 581.503 134.14 581.85 133.9C582.21 133.647 582.39 133.327 582.39 132.94C582.39 132.527 582.19 132.22 581.79 132.02C581.403 131.82 580.783 131.6 579.93 131.36C579.103 131.133 578.43 130.913 577.91 130.7C577.39 130.487 576.937 130.16 576.55 129.72C576.177 129.28 575.99 128.7 575.99 127.98C575.99 127.393 576.163 126.86 576.51 126.38C576.857 125.887 577.35 125.5 577.99 125.22C578.643 124.94 579.39 124.8 580.23 124.8C581.483 124.8 582.49 125.12 583.25 125.76C584.023 126.387 584.437 127.247 584.49 128.34H582.21C582.17 127.847 581.97 127.453 581.61 127.16C581.25 126.867 580.763 126.72 580.15 126.72C579.55 126.72 579.09 126.833 578.77 127.06C578.45 127.287 578.29 127.587 578.29 127.96C578.29 128.253 578.397 128.5 578.61 128.7C578.823 128.9 579.083 129.06 579.39 129.18C579.697 129.287 580.15 129.427 580.75 129.6C581.55 129.813 582.203 130.033 582.71 130.26C583.23 130.473 583.677 130.793 584.05 131.22C584.423 131.647 584.617 132.213 584.63 132.92C584.63 133.547 584.457 134.107 584.11 134.6C583.763 135.093 583.27 135.48 582.63 135.76C582.003 136.04 581.263 136.18 580.41 136.18ZM597.194 130.22C597.194 130.633 597.167 131.007 597.114 131.34H588.694C588.76 132.22 589.087 132.927 589.674 133.46C590.26 133.993 590.98 134.26 591.834 134.26C593.06 134.26 593.927 133.747 594.434 132.72H596.894C596.56 133.733 595.954 134.567 595.074 135.22C594.207 135.86 593.127 136.18 591.834 136.18C590.78 136.18 589.834 135.947 588.994 135.48C588.167 135 587.514 134.333 587.034 133.48C586.567 132.613 586.334 131.613 586.334 130.48C586.334 129.347 586.56 128.353 587.014 127.5C587.48 126.633 588.127 125.967 588.954 125.5C589.794 125.033 590.754 124.8 591.834 124.8C592.874 124.8 593.8 125.027 594.614 125.48C595.427 125.933 596.06 126.573 596.514 127.4C596.967 128.213 597.194 129.153 597.194 130.22ZM594.814 129.5C594.8 128.66 594.5 127.987 593.914 127.48C593.327 126.973 592.6 126.72 591.734 126.72C590.947 126.72 590.274 126.973 589.714 127.48C589.154 127.973 588.82 128.647 588.714 129.5H594.814ZM603.438 136.18C602.571 136.18 601.791 136.027 601.098 135.72C600.418 135.4 599.878 134.973 599.478 134.44C599.078 133.893 598.864 133.287 598.838 132.62H601.198C601.238 133.087 601.458 133.48 601.858 133.8C602.271 134.107 602.784 134.26 603.398 134.26C604.038 134.26 604.531 134.14 604.878 133.9C605.238 133.647 605.418 133.327 605.418 132.94C605.418 132.527 605.218 132.22 604.818 132.02C604.431 131.82 603.811 131.6 602.958 131.36C602.131 131.133 601.458 130.913 600.938 130.7C600.418 130.487 599.964 130.16 599.578 129.72C599.204 129.28 599.018 128.7 599.018 127.98C599.018 127.393 599.191 126.86 599.538 126.38C599.884 125.887 600.378 125.5 601.018 125.22C601.671 124.94 602.418 124.8 603.258 124.8C604.511 124.8 605.518 125.12 606.278 125.76C607.051 126.387 607.464 127.247 607.518 128.34H605.238C605.198 127.847 604.998 127.453 604.638 127.16C604.278 126.867 603.791 126.72 603.178 126.72C602.578 126.72 602.118 126.833 601.798 127.06C601.478 127.287 601.318 127.587 601.318 127.96C601.318 128.253 601.424 128.5 601.638 128.7C601.851 128.9 602.111 129.06 602.418 129.18C602.724 129.287 603.178 129.427 603.778 129.6C604.578 129.813 605.231 130.033 605.738 130.26C606.258 130.473 606.704 130.793 607.078 131.22C607.451 131.647 607.644 132.213 607.658 132.92C607.658 133.547 607.484 134.107 607.138 134.6C606.791 135.093 606.298 135.48 605.658 135.76C605.031 136.04 604.291 136.18 603.438 136.18Z" fill="white"/>
</g>
<g filter="url(#filter1_di_737_1889)">
<rect x="25" y="221" width="175" height="52" rx="12" fill="url(#paint1_linear_737_1889)" shape-rendering="crispEdges"/>
<path d="M40.64 256H38.68V241.54H44.14C47.24 241.54 49.08 243.18 49.08 245.88C49.08 247.88 48.08 249.32 46.28 249.9L49.22 256H47.04L44.34 250.28H40.64V256ZM40.64 243.3V248.54H44.16C45.98 248.54 47.02 247.56 47.02 245.9C47.02 244.22 45.94 243.3 44.14 243.3H40.64ZM54.9628 256.24C52.0828 256.24 50.1028 254.16 50.1028 251.12C50.1028 248.06 52.0428 245.94 54.8828 245.94C57.6628 245.94 59.4828 247.86 59.4828 250.76V251.46L51.9228 251.48C52.0628 253.54 53.1428 254.68 55.0028 254.68C56.4628 254.68 57.4228 254.08 57.7428 252.96H59.5028C59.0228 255.06 57.3828 256.24 54.9628 256.24ZM54.8828 247.52C53.2428 247.52 52.2028 248.5 51.9628 250.22H57.6028C57.6028 248.6 56.5428 247.52 54.8828 247.52ZM60.9627 250.86C60.9627 248.1 62.7427 245.94 65.5827 245.94C67.1627 245.94 68.3827 246.66 69.0027 247.88L69.1427 246.22H70.8227V255.6C70.8227 258.68 68.9227 260.64 65.9227 260.64C63.2627 260.64 61.4427 259.14 61.0827 256.66H62.9627C63.2027 258.1 64.2827 258.94 65.9227 258.94C67.7627 258.94 68.9627 257.74 68.9627 255.88V253.92C68.3227 255.06 67.0427 255.74 65.5027 255.74C62.7227 255.74 60.9627 253.6 60.9627 250.86ZM62.8427 250.82C62.8427 252.66 63.9827 254.1 65.8227 254.1C67.7227 254.1 68.8827 252.74 68.8827 250.82C68.8827 248.94 67.7627 247.58 65.8427 247.58C63.9627 247.58 62.8427 249.02 62.8427 250.82ZM74.4558 243.9C73.7758 243.9 73.2158 243.34 73.2158 242.66C73.2158 241.96 73.7758 241.42 74.4558 241.42C75.1358 241.42 75.6958 241.96 75.6958 242.66C75.6958 243.34 75.1358 243.9 74.4558 243.9ZM73.5358 256V246.22H75.4158V256H73.5358ZM77.3452 253.16H79.1452C79.1452 254.16 79.9052 254.76 81.1452 254.76C82.4652 254.76 83.2252 254.22 83.2252 253.32C83.2252 252.66 82.9052 252.26 81.8852 252L80.1652 251.6C78.4252 251.18 77.6052 250.32 77.6052 248.88C77.6052 247.08 79.1252 245.94 81.2852 245.94C83.4252 245.94 84.8252 247.14 84.8652 249H83.0652C83.0252 248.02 82.3652 247.4 81.2252 247.4C80.0452 247.4 79.3852 247.92 79.3852 248.82C79.3852 249.48 79.8652 249.92 80.8252 250.16L82.5452 250.58C84.2052 250.98 85.0252 251.74 85.0252 253.2C85.0252 255.06 83.4252 256.24 81.1052 256.24C78.8052 256.24 77.3452 255.02 77.3452 253.16ZM89.87 256H87.99V247.8H86.07V246.22H87.99V243.16H89.87V246.22H91.79V247.8H89.87V256ZM97.5995 256.24C94.7195 256.24 92.7395 254.16 92.7395 251.12C92.7395 248.06 94.6795 245.94 97.5195 245.94C100.3 245.94 102.12 247.86 102.12 250.76V251.46L94.5595 251.48C94.6995 253.54 95.7795 254.68 97.6395 254.68C99.0995 254.68 100.06 254.08 100.38 252.96H102.14C101.66 255.06 100.02 256.24 97.5995 256.24ZM97.5195 247.52C95.8795 247.52 94.8395 248.5 94.5995 250.22H100.24C100.24 248.6 99.1795 247.52 97.5195 247.52ZM109.819 246.14V247.86H108.979C107.199 247.86 106.099 248.94 106.099 250.82V256H104.219V246.24H105.979L106.099 247.72C106.499 246.7 107.479 246.02 108.819 246.02C109.159 246.02 109.439 246.06 109.819 246.14ZM116.531 245.44C116.531 242.96 118.531 241.28 121.511 241.28C124.271 241.28 126.051 242.82 126.211 245.32H124.231C124.131 243.88 123.111 243.04 121.491 243.04C119.671 243.04 118.491 243.96 118.491 245.38C118.491 246.54 119.151 247.24 120.511 247.56L122.891 248.12C125.251 248.66 126.451 249.94 126.451 251.98C126.451 254.58 124.431 256.24 121.351 256.24C118.411 256.24 116.451 254.7 116.331 252.22H118.331C118.371 253.6 119.531 254.48 121.351 254.48C123.271 254.48 124.491 253.58 124.491 252.14C124.491 251 123.871 250.28 122.491 249.96L120.111 249.42C117.751 248.88 116.531 247.52 116.531 245.44ZM131.354 256H129.474V247.8H127.554V246.22H129.474V243.16H131.354V246.22H133.274V247.8H131.354V256ZM141.722 246.22H143.582V256H141.902L141.702 254.52C141.142 255.54 139.842 256.24 138.402 256.24C136.122 256.24 134.842 254.7 134.842 252.3V246.22H136.722V251.68C136.722 253.78 137.622 254.58 139.062 254.58C140.782 254.58 141.722 253.48 141.722 251.38V246.22ZM150.034 256.24C147.194 256.24 145.474 254.12 145.474 251.14C145.474 248.14 147.214 245.94 150.114 245.94C151.614 245.94 152.874 246.6 153.534 247.8V241.28H155.394V256H153.714L153.554 254.22C152.914 255.56 151.594 256.24 150.034 256.24ZM150.414 254.54C152.334 254.54 153.514 253.12 153.514 251.08C153.514 249.08 152.334 247.64 150.414 247.64C148.494 247.64 147.374 249.08 147.374 251.08C147.374 253.1 148.494 254.54 150.414 254.54ZM162.326 256.24C159.446 256.24 157.466 254.16 157.466 251.12C157.466 248.06 159.406 245.94 162.246 245.94C165.026 245.94 166.846 247.86 166.846 250.76V251.46L159.286 251.48C159.426 253.54 160.506 254.68 162.366 254.68C163.826 254.68 164.786 254.08 165.106 252.96H166.866C166.386 255.06 164.746 256.24 162.326 256.24ZM162.246 247.52C160.606 247.52 159.566 248.5 159.326 250.22H164.966C164.966 248.6 163.906 247.52 162.246 247.52ZM170.826 256H168.946V246.22H170.646L170.846 247.72C171.466 246.6 172.706 245.94 174.086 245.94C176.666 245.94 177.846 247.52 177.846 250.02V256H175.966V250.44C175.966 248.46 175.046 247.66 173.606 247.66C171.846 247.66 170.826 248.92 170.826 250.82V256ZM183.21 256H181.33V247.8H179.41V246.22H181.33V243.16H183.21V246.22H185.13V247.8H183.21V256ZM186.017 253.16H187.817C187.817 254.16 188.577 254.76 189.817 254.76C191.137 254.76 191.897 254.22 191.897 253.32C191.897 252.66 191.577 252.26 190.557 252L188.837 251.6C187.097 251.18 186.277 250.32 186.277 248.88C186.277 247.08 187.797 245.94 189.957 245.94C192.097 245.94 193.497 247.14 193.537 249H191.737C191.697 248.02 191.037 247.4 189.897 247.4C188.717 247.4 188.057 247.92 188.057 248.82C188.057 249.48 188.537 249.92 189.497 250.16L191.217 250.58C192.877 250.98 193.697 251.74 193.697 253.2C193.697 255.06 192.097 256.24 189.777 256.24C187.477 256.24 186.017 255.02 186.017 253.16Z" fill="white"/>
</g>
<defs>
<filter id="filter0_di_737_1889" x="416" y="101" width="234" height="107" filterUnits="userSpaceOnUse" color-interpolation-filters="sRGB">
<feFlood flood-opacity="0" result="BackgroundImageFix"/>
<feColorMatrix in="SourceAlpha" type="matrix" values="0 0 0 0 0 0 0 0 0 0 0 0 0 0 0 0 0 0 127 0" result="hardAlpha"/>
<feOffset dy="30"/>
<feGaussianBlur stdDeviation="12.5"/>
<feComposite in2="hardAlpha" operator="out"/>
<feColorMatrix type="matrix" values="0 0 0 0 0 0 0 0 0 0 0 0 0 0 0 0 0 0 0.5 0"/>
<feBlend mode="normal" in2="BackgroundImageFix" result="effect1_dropShadow_737_1889"/>
<feBlend mode="normal" in="SourceGraphic" in2="effect1_dropShadow_737_1889" result="shape"/>
<feColorMatrix in="SourceAlpha" type="matrix" values="0 0 0 0 0 0 0 0 0 0 0 0 0 0 0 0 0 0 127 0" result="hardAlpha"/>
<feOffset dy="2"/>
<feGaussianBlur stdDeviation="1"/>
<feComposite in2="hardAlpha" operator="arithmetic" k2="-1" k3="1"/>
<feColorMatrix type="matrix" values="0 0 0 0 0.321569 0 0 0 0 0.317647 0 0 0 0 0.329412 0 0 0 1 0"/>
<feBlend mode="normal" in2="shape" result="effect2_innerShadow_737_1889"/>
</filter>
<filter id="filter1_di_737_1889" x="0" y="221" width="225" height="107" filterUnits="userSpaceOnUse" color-interpolation-filters="sRGB">
<feFlood flood-opacity="0" result="BackgroundImageFix"/>
<feColorMatrix in="SourceAlpha" type="matrix" values="0 0 0 0 0 0 0 0 0 0 0 0 0 0 0 0 0 0 127 0" result="hardAlpha"/>
<feOffset dy="30"/>
<feGaussianBlur stdDeviation="12.5"/>
<feComposite in2="hardAlpha" operator="out"/>
<feColorMatrix type="matrix" values="0 0 0 0 0 0 0 0 0 0 0 0 0 0 0 0 0 0 0.5 0"/>
<feBlend mode="normal" in2="BackgroundImageFix" result="effect1_dropShadow_737_1889"/>
<feBlend mode="normal" in="SourceGraphic" in2="effect1_dropShadow_737_1889" result="shape"/>
<feColorMatrix in="SourceAlpha" type="matrix" values="0 0 0 0 0 0 0 0 0 0 0 0 0 0 0 0 0 0 127 0" result="hardAlpha"/>
<feOffset dy="2"/>
<feGaussianBlur stdDeviation="1"/>
<feComposite in2="hardAlpha" operator="arithmetic" k2="-1" k3="1"/>
<feColorMatrix type="matrix" values="0 0 0 0 0.321569 0 0 0 0 0.317647 0 0 0 0 0.329412 0 0 0 1 0"/>
<feBlend mode="normal" in2="shape" result="effect2_innerShadow_737_1889"/>
</filter>
<linearGradient id="paint0_linear_737_1889" x1="533" y1="101" x2="533" y2="153" gradientUnits="userSpaceOnUse">
<stop stop-color="#343335"/>
<stop offset="1" stop-color="#1A191B"/>
</linearGradient>
<linearGradient id="paint1_linear_737_1889" x1="112.5" y1="221" x2="112.5" y2="273" gradientUnits="userSpaceOnUse">
<stop stop-color="#343335"/>
<stop offset="1" stop-color="#1A191B"/>
</linearGradient>
</defs>
</svg>
