<svg width="312" height="272" viewBox="0 0 312 272" fill="none" xmlns="http://www.w3.org/2000/svg">
<path fill-rule="evenodd" clip-rule="evenodd" d="M237.978 70.3602V53.9807L243.151 49.5488V65.9283L237.978 70.3602Z" fill="#21A366"/>
<path fill-rule="evenodd" clip-rule="evenodd" d="M237.978 53.9792L221 39.4318L226.173 35L243.151 49.5474L237.978 53.9792Z" fill="#21A366"/>
<path fill-rule="evenodd" clip-rule="evenodd" d="M221 39.4318V69.124L226.173 64.6921V35L221 39.4318Z" fill="#21A366"/>
<path fill-rule="evenodd" clip-rule="evenodd" d="M222.818 73.7482L251.968 98.7245L257.14 94.2926L227.99 69.3164L222.818 73.7482Z" fill="#21A366"/>
<path fill-rule="evenodd" clip-rule="evenodd" d="M253.785 97.2142V83.9016L258.958 79.4697V92.7823L253.785 97.2142Z" fill="#21A366"/>
<path fill-rule="evenodd" clip-rule="evenodd" d="M253.785 83.9023L237.978 70.3586L243.151 65.9268L258.958 79.4705L253.785 83.9023Z" fill="#21A366"/>
<path fill-rule="evenodd" clip-rule="evenodd" d="M237.978 70.3586L243.151 65.9268L237.978 70.3586Z" fill="#21A366"/>
<path fill-rule="evenodd" clip-rule="evenodd" d="M221 69.1242C220.998 69.5263 221.044 69.9657 221.135 70.4169L226.307 65.985C226.216 65.5338 226.171 65.0944 226.172 64.6924L221 69.1242Z" fill="#21A366"/>
<path fill-rule="evenodd" clip-rule="evenodd" d="M221.135 70.4152C221.225 70.8664 221.359 71.3204 221.528 71.7507L226.701 67.3189C226.532 66.8885 226.398 66.4346 226.307 65.9834L221.135 70.4152Z" fill="#21A366"/>
<path fill-rule="evenodd" clip-rule="evenodd" d="M221.528 71.7531C221.698 72.1834 221.899 72.5815 222.12 72.9242L227.292 68.4924C227.071 68.1497 226.87 67.7516 226.701 67.3213L221.528 71.7531Z" fill="#21A366"/>
<path fill-rule="evenodd" clip-rule="evenodd" d="M222.12 72.924C222.341 73.2667 222.579 73.5472 222.818 73.7491L227.99 69.3173C227.751 69.1154 227.514 68.8349 227.292 68.4922L222.12 72.924Z" fill="#21A366"/>
<path fill-rule="evenodd" clip-rule="evenodd" d="M251.968 98.7248C252.207 98.9328 252.444 99.0587 252.665 99.0953L257.838 94.6635C257.617 94.6269 257.379 94.5009 257.14 94.293L251.968 98.7248Z" fill="#21A366"/>
<path fill-rule="evenodd" clip-rule="evenodd" d="M252.665 99.0941C252.887 99.1307 253.088 99.0772 253.257 98.9367L258.429 94.5049C258.26 94.6453 258.059 94.6988 257.838 94.6622L252.665 99.0941Z" fill="#21A366"/>
<path fill-rule="evenodd" clip-rule="evenodd" d="M253.257 98.9374C253.426 98.7969 253.56 98.5723 253.651 98.2766L258.823 93.8447C258.732 94.1405 258.599 94.3651 258.429 94.5056L253.257 98.9374Z" fill="#21A366"/>
<path fill-rule="evenodd" clip-rule="evenodd" d="M253.651 98.2758C253.741 97.9801 253.787 97.6192 253.785 97.2141L258.958 92.7822C258.96 93.1874 258.914 93.5483 258.823 93.844L253.651 98.2758Z" fill="#21A366"/>
<path d="M237.978 69.9269V53.5474L221 39V68.6921C220.998 69.0942 221.044 69.5336 221.135 69.9848C221.225 70.436 221.359 70.8899 221.528 71.3202C221.698 71.7505 221.899 72.1486 222.12 72.4913C222.341 72.834 222.579 73.1145 222.818 73.3164L251.968 98.2927C252.207 98.5006 252.444 98.6266 252.665 98.6632C252.887 98.6998 253.088 98.6463 253.257 98.5058C253.426 98.3654 253.56 98.1407 253.651 97.845C253.741 97.5492 253.787 97.1883 253.785 96.7832V83.4706L237.978 69.9269Z" fill="#185C37"/>
<path fill-rule="evenodd" clip-rule="evenodd" d="M236.694 68.7512L252.74 82.2718L258 77.84L241.954 64.3193L236.694 68.7512Z" fill="#21A366"/>
<path fill-rule="evenodd" clip-rule="evenodd" d="M252.74 82.2717V98.6512L258 94.2194V77.8398L252.74 82.2717Z" fill="#21A366"/>
<path fill-rule="evenodd" clip-rule="evenodd" d="M252.74 98.6507L236.694 85.1301L241.954 80.6982L258 94.2189L252.74 98.6507Z" fill="#21A366"/>
<path fill-rule="evenodd" clip-rule="evenodd" d="M236.694 85.1307V68.7512L241.954 64.3193V80.6988L236.694 85.1307Z" fill="#21A366"/>
<path fill-rule="evenodd" clip-rule="evenodd" d="M236.694 68.7512L241.954 64.3193L236.694 68.7512Z" fill="#21A366"/>
<path d="M236.694 68.751L252.74 82.2716V98.6511L236.694 85.1305V68.751Z" fill="#107C41"/>
<path fill-rule="evenodd" clip-rule="evenodd" d="M219.993 39.9426L237.271 54.5015L242.531 50.0696L225.253 35.5107L219.993 39.9426Z" fill="#21A366"/>
<path fill-rule="evenodd" clip-rule="evenodd" d="M237.271 54.5021V70.8817L242.531 66.4498V50.0703L237.271 54.5021Z" fill="#21A366"/>
<path fill-rule="evenodd" clip-rule="evenodd" d="M237.271 70.8814L219.993 56.3225L225.253 51.8906L242.531 66.4495L237.271 70.8814Z" fill="#21A366"/>
<path fill-rule="evenodd" clip-rule="evenodd" d="M219.993 56.3221V39.9426L225.253 35.5107V51.8903L219.993 56.3221Z" fill="#21A366"/>
<path fill-rule="evenodd" clip-rule="evenodd" d="M219.993 39.9426L225.253 35.5107L219.993 39.9426Z" fill="#21A366"/>
<path d="M219.993 39.9434L237.271 54.5023V70.8818L219.993 56.3229V39.9434Z" fill="#107C41"/>
<path fill-rule="evenodd" clip-rule="evenodd" d="M208.176 35.8859L226.701 51.4946L231.96 47.0628L213.436 31.4541L208.176 35.8859Z" fill="#21A366"/>
<path fill-rule="evenodd" clip-rule="evenodd" d="M228.549 56.1193V86.8565L233.808 82.4246V51.6875L228.549 56.1193Z" fill="#21A366"/>
<path fill-rule="evenodd" clip-rule="evenodd" d="M226.701 88.3647L208.176 72.756L213.436 68.3242L231.96 83.9329L226.701 88.3647Z" fill="#21A366"/>
<path fill-rule="evenodd" clip-rule="evenodd" d="M206.328 68.1319V37.3947L211.588 32.9629V63.7L206.328 68.1319Z" fill="#21A366"/>
<path fill-rule="evenodd" clip-rule="evenodd" d="M208.176 35.8859L213.436 31.4541L208.176 35.8859Z" fill="#21A366"/>
<path fill-rule="evenodd" clip-rule="evenodd" d="M226.701 51.4953C227.721 52.3554 228.549 54.4258 228.549 56.1196L233.808 51.6878C233.808 49.994 232.981 47.9236 231.96 47.0635L226.701 51.4953Z" fill="#21A366"/>
<path fill-rule="evenodd" clip-rule="evenodd" d="M228.549 86.8566C228.549 87.6697 228.358 88.2481 228.047 88.5348L233.307 84.103C233.618 83.8163 233.808 83.2378 233.808 82.4248L228.549 86.8566Z" fill="#21A366"/>
<path fill-rule="evenodd" clip-rule="evenodd" d="M228.047 88.5341C227.71 88.8446 227.231 88.8127 226.701 88.3654L231.96 83.9336C232.491 84.3809 232.97 84.4128 233.307 84.1023L228.047 88.5341Z" fill="#21A366"/>
<path fill-rule="evenodd" clip-rule="evenodd" d="M208.176 72.7563C207.156 71.8962 206.328 69.8258 206.328 68.132L211.588 63.7002C211.588 65.394 212.415 67.4644 213.436 68.3245L208.176 72.7563Z" fill="#21A366"/>
<path fill-rule="evenodd" clip-rule="evenodd" d="M206.328 37.3951C206.328 36.5821 206.519 36.0036 206.83 35.717L212.09 31.2852C211.778 31.5718 211.588 32.1503 211.588 32.9633L206.328 37.3951Z" fill="#21A366"/>
<path fill-rule="evenodd" clip-rule="evenodd" d="M206.83 35.7167C207.167 35.4062 207.646 35.4382 208.176 35.8854L213.436 31.4536C212.905 31.0063 212.427 30.9744 212.09 31.2849L206.83 35.7167Z" fill="#21A366"/>
<path d="M208.176 35.8852L226.701 51.4939C227.721 52.3541 228.549 54.4244 228.549 56.1182V86.8554C228.549 88.5492 227.721 89.225 226.701 88.3649L208.176 72.7562C207.156 71.896 206.328 69.8257 206.328 68.1319V37.3947C206.328 35.7009 207.156 35.0251 208.176 35.8852Z" fill="#107C41"/>
<path fill-rule="evenodd" clip-rule="evenodd" d="M210.883 67.4145L214.73 60.6832L216.045 59.5752L212.198 66.3066L210.883 67.4145Z" fill="#21A366"/>
<path fill-rule="evenodd" clip-rule="evenodd" d="M214.73 60.6829L211.157 47.6988L212.472 46.5908L216.045 59.5749L214.73 60.6829Z" fill="#21A366"/>
<path fill-rule="evenodd" clip-rule="evenodd" d="M211.157 47.6988L214.032 50.1214L215.347 49.0135L212.472 46.5908L211.157 47.6988Z" fill="#21A366"/>
<path fill-rule="evenodd" clip-rule="evenodd" d="M214.032 50.1207L215.976 58.1198L217.291 57.0118L215.347 49.0127L214.032 50.1207Z" fill="#21A366"/>
<path fill-rule="evenodd" clip-rule="evenodd" d="M216.743 58.698L218.824 54.1587L220.139 53.0508L218.058 57.5901L216.743 58.698Z" fill="#21A366"/>
<path fill-rule="evenodd" clip-rule="evenodd" d="M218.824 54.1587L221.466 56.3853L222.781 55.2773L220.139 53.0508L218.824 54.1587Z" fill="#21A366"/>
<path fill-rule="evenodd" clip-rule="evenodd" d="M221.466 56.3853L217.825 63.2897L219.139 62.1818L222.781 55.2773L221.466 56.3853Z" fill="#21A366"/>
<path fill-rule="evenodd" clip-rule="evenodd" d="M217.825 63.2906L221.576 76.5155L222.891 75.4076L219.139 62.1826L217.825 63.2906Z" fill="#21A366"/>
<path fill-rule="evenodd" clip-rule="evenodd" d="M221.576 76.5148L218.838 74.2076L220.153 73.0996L222.891 75.4069L221.576 76.5148Z" fill="#21A366"/>
<path fill-rule="evenodd" clip-rule="evenodd" d="M218.838 74.2065L216.579 65.3287L217.894 64.2207L220.153 73.0986L218.838 74.2065Z" fill="#21A366"/>
<path fill-rule="evenodd" clip-rule="evenodd" d="M216.319 64.1783L217.633 63.0703L216.319 64.1783Z" fill="#21A366"/>
<path fill-rule="evenodd" clip-rule="evenodd" d="M216.058 64.8677L213.621 69.7205L214.936 68.6125L217.373 63.7598L216.058 64.8677Z" fill="#21A366"/>
<path fill-rule="evenodd" clip-rule="evenodd" d="M213.621 69.7199L210.883 67.4126L212.198 66.3047L214.936 68.612L213.621 69.7199Z" fill="#21A366"/>
<path fill-rule="evenodd" clip-rule="evenodd" d="M210.883 67.4126L212.198 66.3047L210.883 67.4126Z" fill="#21A366"/>
<path fill-rule="evenodd" clip-rule="evenodd" d="M215.976 58.1207C216.154 58.8613 216.277 59.4195 216.346 59.7725L217.661 58.6645C217.592 58.3115 217.469 57.7533 217.291 57.0127L215.976 58.1207Z" fill="#21A366"/>
<path fill-rule="evenodd" clip-rule="evenodd" d="M216.346 59.7727C216.469 59.3995 216.606 59.0378 216.743 58.6988L218.058 57.5908C217.921 57.9298 217.784 58.2915 217.661 58.6648L216.346 59.7727Z" fill="#21A366"/>
<path fill-rule="evenodd" clip-rule="evenodd" d="M216.579 65.3289C216.476 64.9449 216.389 64.5599 216.319 64.1783L217.633 63.0703C217.704 63.452 217.791 63.8369 217.894 64.2209L216.579 65.3289Z" fill="#21A366"/>
<path fill-rule="evenodd" clip-rule="evenodd" d="M216.319 64.1783C216.253 64.4416 216.166 64.673 216.058 64.8678L217.373 63.7598C217.481 63.565 217.568 63.3337 217.633 63.0703L216.319 64.1783Z" fill="#21A366"/>
<path d="M210.883 67.4147L214.73 60.6833L211.157 47.6992L214.032 50.1219L215.976 58.121C216.154 58.8616 216.277 59.4198 216.346 59.7728C216.469 59.3996 216.606 59.0379 216.743 58.6989L218.824 54.1596L221.466 56.3861L217.825 63.2905L221.576 76.5155L218.838 74.2082L216.579 65.3303C216.476 64.9463 216.389 64.5614 216.318 64.1797C216.253 64.4431 216.166 64.6744 216.058 64.8692L213.621 69.722L210.883 67.4147Z" fill="white"/>
<path fill-rule="evenodd" clip-rule="evenodd" d="M236.576 53.2394L252.622 66.7601L257.882 62.3282L241.836 48.8076L236.576 53.2394Z" fill="#21A366"/>
<path fill-rule="evenodd" clip-rule="evenodd" d="M252.622 66.76V83.1395L257.882 78.7076V62.3281L252.622 66.76Z" fill="#21A366"/>
<path fill-rule="evenodd" clip-rule="evenodd" d="M252.622 83.139L236.576 69.6184L241.836 65.1865L257.882 78.7071L252.622 83.139Z" fill="#21A366"/>
<path fill-rule="evenodd" clip-rule="evenodd" d="M236.576 69.619V53.2394L241.836 48.8076V65.1871L236.576 69.619Z" fill="#21A366"/>
<path fill-rule="evenodd" clip-rule="evenodd" d="M236.576 53.2394L241.836 48.8076L236.576 53.2394Z" fill="#21A366"/>
<path d="M236.576 53.2393L252.622 66.7599V83.1394L236.576 69.6188V53.2393Z" fill="#21A366"/>
<path fill-rule="evenodd" clip-rule="evenodd" d="M237.258 37.8034L221.828 24.8019L227.087 20.3701L242.517 33.3716L237.258 37.8034Z" fill="#21A366"/>
<path fill-rule="evenodd" clip-rule="evenodd" d="M219.993 26.3234V39.636L225.253 35.2042V21.8916L219.993 26.3234Z" fill="#21A366"/>
<path fill-rule="evenodd" clip-rule="evenodd" d="M219.993 39.6359L237.258 54.1833L242.517 49.7515L225.253 35.2041L219.993 39.6359Z" fill="#21A366"/>
<path fill-rule="evenodd" clip-rule="evenodd" d="M237.258 54.1844V37.8049L242.517 33.373V49.7526L237.258 54.1844Z" fill="#21A366"/>
<path fill-rule="evenodd" clip-rule="evenodd" d="M237.258 37.8049L242.517 33.373L237.258 37.8049Z" fill="#21A366"/>
<path fill-rule="evenodd" clip-rule="evenodd" d="M221.828 24.8029C221.586 24.599 221.346 24.4765 221.122 24.4426L226.382 20.0107C226.606 20.0446 226.845 20.1671 227.087 20.3711L221.828 24.8029Z" fill="#21A366"/>
<path fill-rule="evenodd" clip-rule="evenodd" d="M221.122 24.4415C220.899 24.4076 220.696 24.4629 220.526 24.6043L225.785 20.1725C225.956 20.0311 226.159 19.9758 226.382 20.0097L221.122 24.4415Z" fill="#21A366"/>
<path fill-rule="evenodd" clip-rule="evenodd" d="M220.526 24.6057C220.355 24.747 220.22 24.9717 220.129 25.2667L225.388 20.8348C225.48 20.5399 225.615 20.3152 225.785 20.1738L220.526 24.6057Z" fill="#21A366"/>
<path fill-rule="evenodd" clip-rule="evenodd" d="M220.129 25.2668C220.037 25.5617 219.991 25.9212 219.993 26.3244L225.253 21.8926C225.251 21.4894 225.297 21.1299 225.388 20.835L220.129 25.2668Z" fill="#21A366"/>
<path d="M237.258 37.8032L221.828 24.8017C221.586 24.5977 221.346 24.4752 221.122 24.4413C220.899 24.4074 220.696 24.4628 220.526 24.6041C220.355 24.7455 220.22 24.9702 220.129 25.2651C220.037 25.5601 219.991 25.9195 219.993 26.3227V39.6353L237.258 54.1827V37.8032Z" fill="#21A366"/>
<path fill-rule="evenodd" clip-rule="evenodd" d="M250.919 49.714L236.694 37.7277L241.954 33.2959L256.179 45.2822L250.919 49.714Z" fill="#21A366"/>
<path fill-rule="evenodd" clip-rule="evenodd" d="M236.694 37.7277V54.1072L241.954 49.6754V33.2959L236.694 37.7277Z" fill="#21A366"/>
<path fill-rule="evenodd" clip-rule="evenodd" d="M236.694 54.1066L252.727 67.6157L257.986 63.1839L241.954 49.6748L236.694 54.1066Z" fill="#21A366"/>
<path fill-rule="evenodd" clip-rule="evenodd" d="M252.727 67.6165V54.3039L257.986 49.8721V63.1847L252.727 67.6165Z" fill="#21A366"/>
<path fill-rule="evenodd" clip-rule="evenodd" d="M250.919 49.7141L256.179 45.2822L250.919 49.7141Z" fill="#21A366"/>
<path fill-rule="evenodd" clip-rule="evenodd" d="M250.919 49.7141L256.179 45.2822L250.919 49.7141Z" fill="#21A366"/>
<path fill-rule="evenodd" clip-rule="evenodd" d="M252.727 54.3029C252.73 53.5025 252.542 52.5709 252.204 51.7111L257.464 47.2793C257.802 48.1391 257.99 49.0707 257.986 49.8711L252.727 54.3029Z" fill="#21A366"/>
<path fill-rule="evenodd" clip-rule="evenodd" d="M252.204 51.7119C251.865 50.8522 251.404 50.134 250.919 49.7141L256.179 45.2822C256.663 45.7022 257.125 46.4203 257.463 47.2801L252.204 51.7119Z" fill="#21A366"/>
<path d="M250.919 49.7138L236.694 37.7275V54.1071L252.727 67.6161V54.3035C252.73 53.5031 252.542 52.5715 252.204 51.7117C251.865 50.8519 251.404 50.1338 250.919 49.7138Z" fill="#33C481"/>
<path fill-rule="evenodd" clip-rule="evenodd" d="M232.503 229.474L241.073 235.882L242.233 235.015L233.663 228.607L232.503 229.474Z" fill="#6580E1"/>
<path fill-rule="evenodd" clip-rule="evenodd" d="M241.073 235.882V247.631L242.233 246.764V235.016L241.073 235.882Z" fill="#6580E1"/>
<path fill-rule="evenodd" clip-rule="evenodd" d="M241.073 247.63L232.503 241.222L233.663 240.355L242.233 246.763L241.073 247.63Z" fill="#6580E1"/>
<path fill-rule="evenodd" clip-rule="evenodd" d="M232.503 241.223V229.474L233.663 228.607V240.356L232.503 241.223Z" fill="#6580E1"/>
<path fill-rule="evenodd" clip-rule="evenodd" d="M232.503 229.474L233.663 228.607L232.503 229.474Z" fill="#6580E1"/>
<path d="M232.503 229.475L241.073 235.882V247.63L232.503 241.223V229.475Z" fill="#0364B8"/>
<path fill-rule="evenodd" clip-rule="evenodd" d="M248.97 240.791L247.246 238.009L251.884 234.542L253.608 237.324L248.97 240.791Z" fill="#6580E1"/>
<path fill-rule="evenodd" clip-rule="evenodd" d="M247.246 238.009V217.499L251.884 214.031V234.542L247.246 238.009Z" fill="#6580E1"/>
<path fill-rule="evenodd" clip-rule="evenodd" d="M245.642 213.632L224.246 197.635L228.884 194.168L250.279 210.164L245.642 213.632Z" fill="#6580E1"/>
<path fill-rule="evenodd" clip-rule="evenodd" d="M222.641 199.103V224.555L227.279 221.088V195.636L222.641 199.103Z" fill="#6580E1"/>
<path fill-rule="evenodd" clip-rule="evenodd" d="M222.641 224.555L220.93 221.853L225.567 218.386L227.279 221.087L222.641 224.555Z" fill="#6580E1"/>
<path fill-rule="evenodd" clip-rule="evenodd" d="M220.454 220.43L225.092 216.963L220.454 220.43Z" fill="#6580E1"/>
<path fill-rule="evenodd" clip-rule="evenodd" d="M220.454 220.43V243.323L225.092 239.855V216.963L220.454 220.43Z" fill="#6580E1"/>
<path fill-rule="evenodd" clip-rule="evenodd" d="M222.32 247.457L247.496 266.279L252.134 262.812L226.958 243.989L222.32 247.457Z" fill="#6580E1"/>
<path fill-rule="evenodd" clip-rule="evenodd" d="M249.362 264.937V242.133L254 238.666V261.47L249.362 264.937Z" fill="#6580E1"/>
<path fill-rule="evenodd" clip-rule="evenodd" d="M249.362 242.133L254 238.666L249.362 242.133Z" fill="#6580E1"/>
<path fill-rule="evenodd" clip-rule="evenodd" d="M249.362 242.132C249.365 241.923 249.33 241.688 249.261 241.453L253.899 237.985C253.968 238.221 254.003 238.456 254 238.665L249.362 242.132Z" fill="#6580E1"/>
<path fill-rule="evenodd" clip-rule="evenodd" d="M249.261 241.454C249.192 241.218 249.092 240.99 248.97 240.792L253.608 237.324C253.729 237.522 253.83 237.751 253.899 237.987L249.261 241.454Z" fill="#6580E1"/>
<path fill-rule="evenodd" clip-rule="evenodd" d="M247.246 217.498C247.269 216.844 247.113 216.07 246.812 215.345L251.45 211.878C251.751 212.602 251.907 213.377 251.884 214.031L247.246 217.498Z" fill="#6580E1"/>
<path fill-rule="evenodd" clip-rule="evenodd" d="M246.812 215.346C246.511 214.622 246.091 214.006 245.642 213.633L250.279 210.166C250.728 210.538 251.149 211.154 251.45 211.879L246.812 215.346Z" fill="#6580E1"/>
<path fill-rule="evenodd" clip-rule="evenodd" d="M224.246 197.636C223.833 197.361 223.444 197.328 223.15 197.538L227.788 194.071C228.081 193.861 228.471 193.894 228.884 194.169L224.246 197.636Z" fill="#6580E1"/>
<path fill-rule="evenodd" clip-rule="evenodd" d="M223.15 197.54C223.124 197.558 223.1 197.578 223.076 197.6L227.713 194.133C227.737 194.111 227.762 194.091 227.788 194.072L223.15 197.54Z" fill="#6580E1"/>
<path fill-rule="evenodd" clip-rule="evenodd" d="M223.076 197.598C222.775 197.873 222.619 198.414 222.641 199.102L227.279 195.635C227.256 194.946 227.412 194.406 227.713 194.131L223.076 197.598Z" fill="#6580E1"/>
<path fill-rule="evenodd" clip-rule="evenodd" d="M220.93 221.854C220.791 221.658 220.672 221.42 220.588 221.169L225.226 217.701C225.31 217.953 225.428 218.191 225.567 218.386L220.93 221.854Z" fill="#6580E1"/>
<path fill-rule="evenodd" clip-rule="evenodd" d="M220.588 221.167C220.504 220.915 220.457 220.66 220.454 220.43L225.092 216.963C225.095 217.192 225.141 217.448 225.226 217.7L220.588 221.167Z" fill="#6580E1"/>
<path fill-rule="evenodd" clip-rule="evenodd" d="M220.454 243.324C220.456 243.688 220.505 244.085 220.6 244.49L225.238 241.023C225.143 240.617 225.093 240.221 225.092 239.856L220.454 243.324Z" fill="#6580E1"/>
<path fill-rule="evenodd" clip-rule="evenodd" d="M220.6 244.491C220.695 244.896 220.833 245.303 221.007 245.687L225.644 242.219C225.471 241.835 225.333 241.429 225.238 241.023L220.6 244.491Z" fill="#6580E1"/>
<path fill-rule="evenodd" clip-rule="evenodd" d="M221.006 245.686C221.18 246.07 221.385 246.424 221.611 246.728L226.248 243.261C226.023 242.957 225.818 242.603 225.644 242.219L221.006 245.686Z" fill="#6580E1"/>
<path fill-rule="evenodd" clip-rule="evenodd" d="M221.611 246.729C221.836 247.033 222.078 247.28 222.32 247.457L226.958 243.99C226.715 243.813 226.474 243.566 226.249 243.262L221.611 246.729Z" fill="#6580E1"/>
<path fill-rule="evenodd" clip-rule="evenodd" d="M247.496 266.278C247.739 266.464 247.98 266.577 248.206 266.611L252.843 263.143C252.618 263.11 252.377 262.997 252.134 262.811L247.496 266.278Z" fill="#6580E1"/>
<path fill-rule="evenodd" clip-rule="evenodd" d="M248.206 266.612C248.431 266.645 248.637 266.598 248.81 266.473L253.448 263.006C253.274 263.131 253.069 263.178 252.843 263.144L248.206 266.612Z" fill="#6580E1"/>
<path fill-rule="evenodd" clip-rule="evenodd" d="M248.81 266.473L253.448 263.006L248.81 266.473Z" fill="#6580E1"/>
<path fill-rule="evenodd" clip-rule="evenodd" d="M248.81 266.474C248.983 266.349 249.122 266.149 249.216 265.885L253.854 262.418C253.759 262.682 253.621 262.882 253.448 263.006L248.81 266.474Z" fill="#6580E1"/>
<path fill-rule="evenodd" clip-rule="evenodd" d="M249.216 265.885C249.311 265.621 249.361 265.299 249.362 264.937L254 261.47C253.998 261.832 253.949 262.154 253.854 262.418L249.216 265.885Z" fill="#6580E1"/>
<path d="M249.362 242.133C249.365 241.924 249.33 241.69 249.261 241.454C249.192 241.218 249.092 240.989 248.97 240.791L247.246 238.01V217.499C247.269 216.844 247.113 216.07 246.812 215.346C246.511 214.621 246.091 214.005 245.642 213.633L224.246 197.637C223.797 197.338 223.376 197.324 223.076 197.599C222.775 197.874 222.619 198.415 222.641 199.103V224.555L220.93 221.853C220.791 221.658 220.672 221.42 220.588 221.168C220.504 220.916 220.457 220.661 220.454 220.431V243.324C220.456 243.689 220.505 244.085 220.6 244.49C220.695 244.896 220.833 245.302 221.006 245.686C221.18 246.07 221.385 246.424 221.611 246.728C221.836 247.032 222.077 247.28 222.32 247.456L247.496 266.279C247.739 266.465 247.98 266.578 248.206 266.612C248.431 266.645 248.637 266.598 248.81 266.473C248.983 266.349 249.122 266.149 249.216 265.885C249.311 265.621 249.361 265.299 249.362 264.937V242.133Z" fill="url(#paint0_linear_0_1)" style="mix-blend-mode:soft-light"/>
<path fill-rule="evenodd" clip-rule="evenodd" d="M221.793 214.739L230.363 221.146L235.001 217.679L226.431 211.271L221.793 214.739Z" fill="#6580E1"/>
<path fill-rule="evenodd" clip-rule="evenodd" d="M230.363 221.147V232.895L235.001 229.428V217.68L230.363 221.147Z" fill="#6580E1"/>
<path fill-rule="evenodd" clip-rule="evenodd" d="M230.363 232.894L221.793 226.487L226.431 223.02L235.001 229.427L230.363 232.894Z" fill="#6580E1"/>
<path fill-rule="evenodd" clip-rule="evenodd" d="M221.793 226.487V214.739L226.431 211.271V223.02L221.793 226.487Z" fill="#6580E1"/>
<path fill-rule="evenodd" clip-rule="evenodd" d="M221.793 214.739L226.431 211.271L221.793 214.739Z" fill="#6580E1"/>
<path d="M221.793 214.738L230.363 221.146V232.894L221.793 226.487V214.738Z" fill="#0364B8"/>
<path fill-rule="evenodd" clip-rule="evenodd" d="M229.826 221.673L238.396 228.081L243.034 224.613L234.463 218.206L229.826 221.673Z" fill="#6580E1"/>
<path fill-rule="evenodd" clip-rule="evenodd" d="M238.396 228.082V239.83L243.034 236.363V224.614L238.396 228.082Z" fill="#6580E1"/>
<path fill-rule="evenodd" clip-rule="evenodd" d="M238.396 239.829L229.826 233.421L234.463 229.954L243.034 236.362L238.396 239.829Z" fill="#6580E1"/>
<path fill-rule="evenodd" clip-rule="evenodd" d="M229.826 233.422V221.673L234.463 218.206V229.954L229.826 233.422Z" fill="#6580E1"/>
<path fill-rule="evenodd" clip-rule="evenodd" d="M229.826 221.673L234.463 218.206L229.826 221.673Z" fill="#6580E1"/>
<path d="M229.826 221.674L238.396 228.081V239.83L229.826 233.422V221.674Z" fill="#0078D4"/>
<path fill-rule="evenodd" clip-rule="evenodd" d="M237.858 226.875L245.359 232.482L249.997 229.015L242.496 223.407L237.858 226.875Z" fill="#6580E1"/>
<path fill-rule="evenodd" clip-rule="evenodd" d="M245.359 232.482V244.23L249.997 240.763V229.015L245.359 232.482Z" fill="#6580E1"/>
<path fill-rule="evenodd" clip-rule="evenodd" d="M245.359 244.23L237.858 238.623L242.496 235.155L249.997 240.763L245.359 244.23Z" fill="#6580E1"/>
<path fill-rule="evenodd" clip-rule="evenodd" d="M237.858 238.623V226.875L242.496 223.407V235.156L237.858 238.623Z" fill="#6580E1"/>
<path fill-rule="evenodd" clip-rule="evenodd" d="M237.858 226.875L242.496 223.407L237.858 226.875Z" fill="#6580E1"/>
<path d="M237.858 226.874L245.359 232.482V244.23L237.858 238.622V226.874Z" fill="#28A8EA"/>
<path fill-rule="evenodd" clip-rule="evenodd" d="M248.982 241.45L236.454 243.476L237.613 242.609L250.141 240.583L248.982 241.45Z" fill="#6580E1"/>
<path fill-rule="evenodd" clip-rule="evenodd" d="M236.454 243.476L236.275 243.503L237.435 242.636L237.613 242.609L236.454 243.476Z" fill="#6580E1"/>
<path fill-rule="evenodd" clip-rule="evenodd" d="M234.599 242.251L235.759 241.384L234.599 242.251Z" fill="#6580E1"/>
<path fill-rule="evenodd" clip-rule="evenodd" d="M234.421 241.957L220.87 220.451L222.03 219.584L235.58 241.09L234.421 241.957Z" fill="#6580E1"/>
<path fill-rule="evenodd" clip-rule="evenodd" d="M220.454 219.073V241.965L221.614 241.099V218.206L220.454 219.073Z" fill="#6580E1"/>
<path fill-rule="evenodd" clip-rule="evenodd" d="M222.321 246.097L247.496 264.92L248.656 264.053L223.48 245.23L222.321 246.097Z" fill="#6580E1"/>
<path fill-rule="evenodd" clip-rule="evenodd" d="M249.35 263.499V240.677L250.51 239.811V262.632L249.35 263.499Z" fill="#6580E1"/>
<path fill-rule="evenodd" clip-rule="evenodd" d="M248.982 241.45L250.141 240.583L248.982 241.45Z" fill="#6580E1"/>
<path fill-rule="evenodd" clip-rule="evenodd" d="M236.275 243.502C236.016 243.494 235.731 243.379 235.443 243.165L236.603 242.298C236.891 242.512 237.175 242.627 237.435 242.636L236.275 243.502Z" fill="#6580E1"/>
<path fill-rule="evenodd" clip-rule="evenodd" d="M235.443 243.166C235.151 242.946 234.863 242.634 234.599 242.251L235.759 241.384C236.023 241.767 236.311 242.08 236.603 242.299L235.443 243.166Z" fill="#6580E1"/>
<path fill-rule="evenodd" clip-rule="evenodd" d="M234.599 242.249C234.537 242.156 234.478 242.058 234.421 241.956L235.58 241.089C235.637 241.191 235.697 241.289 235.759 241.382L234.599 242.249Z" fill="#6580E1"/>
<path fill-rule="evenodd" clip-rule="evenodd" d="M220.87 220.45C220.742 220.251 220.636 220.017 220.563 219.774L221.722 218.907C221.796 219.15 221.902 219.384 222.03 219.584L220.87 220.45Z" fill="#6580E1"/>
<path fill-rule="evenodd" clip-rule="evenodd" d="M220.563 219.774C220.489 219.531 220.452 219.289 220.454 219.073L221.614 218.206C221.611 218.422 221.649 218.664 221.722 218.907L220.563 219.774Z" fill="#6580E1"/>
<path fill-rule="evenodd" clip-rule="evenodd" d="M220.454 241.966C220.456 242.331 220.505 242.727 220.6 243.133L221.76 242.266C221.665 241.86 221.615 241.464 221.614 241.1L220.454 241.966Z" fill="#6580E1"/>
<path fill-rule="evenodd" clip-rule="evenodd" d="M220.6 243.131C220.695 243.536 220.833 243.942 221.007 244.326L222.166 243.46C221.993 243.075 221.854 242.669 221.76 242.264L220.6 243.131Z" fill="#6580E1"/>
<path fill-rule="evenodd" clip-rule="evenodd" d="M221.007 244.328C221.18 244.712 221.385 245.066 221.611 245.37L222.77 244.503C222.545 244.199 222.34 243.845 222.166 243.461L221.007 244.328Z" fill="#6580E1"/>
<path fill-rule="evenodd" clip-rule="evenodd" d="M221.611 245.369C221.836 245.673 222.078 245.92 222.321 246.097L223.48 245.23C223.237 245.053 222.996 244.806 222.77 244.502L221.611 245.369Z" fill="#6580E1"/>
<path fill-rule="evenodd" clip-rule="evenodd" d="M247.496 264.921C247.744 265.116 247.99 265.233 248.219 265.267L249.379 264.4C249.149 264.367 248.903 264.249 248.656 264.054L247.496 264.921Z" fill="#6580E1"/>
<path fill-rule="evenodd" clip-rule="evenodd" d="M248.219 265.266C248.449 265.3 248.657 265.248 248.831 265.115L249.99 264.248C249.816 264.381 249.608 264.433 249.379 264.399L248.219 265.266Z" fill="#6580E1"/>
<path fill-rule="evenodd" clip-rule="evenodd" d="M248.831 265.116C249.005 264.982 249.141 264.77 249.23 264.492L250.389 263.625C250.3 263.903 250.164 264.116 249.99 264.249L248.831 265.116Z" fill="#6580E1"/>
<path fill-rule="evenodd" clip-rule="evenodd" d="M249.23 264.491C249.319 264.213 249.36 263.875 249.35 263.498L250.51 262.631C250.52 263.008 250.479 263.346 250.389 263.624L249.23 264.491Z" fill="#6580E1"/>
<path fill-rule="evenodd" clip-rule="evenodd" d="M249.35 240.677C249.356 240.889 249.324 241.072 249.26 241.207L250.419 240.34C250.484 240.205 250.515 240.022 250.51 239.811L249.35 240.677Z" fill="#6580E1"/>
<path fill-rule="evenodd" clip-rule="evenodd" d="M249.26 241.206C249.223 241.282 249.177 241.341 249.123 241.383L250.283 240.517C250.337 240.475 250.383 240.415 250.419 240.339L249.26 241.206Z" fill="#6580E1"/>
<path fill-rule="evenodd" clip-rule="evenodd" d="M249.123 241.383C249.081 241.416 249.034 241.439 248.982 241.449L250.141 240.582C250.193 240.572 250.24 240.55 250.283 240.517L249.123 241.383Z" fill="#6580E1"/>
<path d="M248.982 241.45L236.454 243.477L236.275 243.503C236.016 243.495 235.731 243.38 235.443 243.166C235.151 242.946 234.863 242.633 234.599 242.25C234.537 242.157 234.478 242.059 234.421 241.957L220.87 220.451C220.742 220.251 220.636 220.017 220.563 219.774C220.489 219.532 220.452 219.289 220.454 219.073V241.966C220.456 242.33 220.505 242.727 220.6 243.132C220.695 243.537 220.833 243.944 221.007 244.328C221.18 244.712 221.385 245.066 221.611 245.37C221.836 245.674 222.078 245.921 222.321 246.098L247.496 264.921C247.743 265.116 247.99 265.234 248.219 265.267C248.449 265.301 248.657 265.249 248.831 265.116C249.005 264.983 249.14 264.77 249.23 264.492C249.319 264.214 249.36 263.876 249.35 263.499V240.677C249.356 240.889 249.324 241.071 249.26 241.207C249.195 241.343 249.099 241.427 248.982 241.45Z" fill="url(#paint1_linear_0_1)"/>
<path fill-rule="evenodd" clip-rule="evenodd" d="M222.297 247.814L247.52 266.672L248.679 265.805L223.456 246.947L222.297 247.814Z" fill="#6580E1"/>
<path fill-rule="evenodd" clip-rule="evenodd" d="M248.614 266.956L234.457 243.432L235.616 242.565L249.773 266.089L248.614 266.956Z" fill="#6580E1"/>
<path fill-rule="evenodd" clip-rule="evenodd" d="M234.457 243.433L234.278 243.139L235.438 242.272L235.616 242.566L234.457 243.433Z" fill="#6580E1"/>
<path fill-rule="evenodd" clip-rule="evenodd" d="M234.278 243.139L220.87 221.491L222.03 220.624L235.438 242.272L234.278 243.139Z" fill="#6580E1"/>
<path fill-rule="evenodd" clip-rule="evenodd" d="M220.87 221.491L220.454 220.806L221.614 219.939L222.03 220.624L220.87 221.491Z" fill="#6580E1"/>
<path fill-rule="evenodd" clip-rule="evenodd" d="M220.454 220.806V243.61L221.614 242.743V219.939L220.454 220.806Z" fill="#6580E1"/>
<path fill-rule="evenodd" clip-rule="evenodd" d="M222.297 247.814L223.456 246.947L222.297 247.814Z" fill="#6580E1"/>
<path fill-rule="evenodd" clip-rule="evenodd" d="M222.297 247.814L223.456 246.947L222.297 247.814Z" fill="#6580E1"/>
<path fill-rule="evenodd" clip-rule="evenodd" d="M247.52 266.672C247.913 266.966 248.296 267.066 248.614 266.957L249.773 266.09C249.455 266.199 249.073 266.1 248.679 265.806L247.52 266.672Z" fill="#6580E1"/>
<path fill-rule="evenodd" clip-rule="evenodd" d="M220.454 243.61C220.451 243.974 220.496 244.372 220.587 244.78L221.747 243.913C221.656 243.505 221.611 243.107 221.614 242.743L220.454 243.61Z" fill="#6580E1"/>
<path fill-rule="evenodd" clip-rule="evenodd" d="M220.587 244.78C220.678 245.188 220.813 245.599 220.984 245.99L222.144 245.123C221.972 244.732 221.838 244.321 221.747 243.913L220.587 244.78Z" fill="#6580E1"/>
<path fill-rule="evenodd" clip-rule="evenodd" d="M220.984 245.991C221.155 246.381 221.359 246.743 221.584 247.056L222.744 246.189C222.519 245.876 222.315 245.514 222.144 245.124L220.984 245.991Z" fill="#6580E1"/>
<path fill-rule="evenodd" clip-rule="evenodd" d="M221.584 247.055C221.81 247.368 222.052 247.626 222.297 247.814L223.456 246.947C223.211 246.759 222.969 246.501 222.744 246.188L221.584 247.055Z" fill="#6580E1"/>
<path d="M222.297 247.814L247.52 266.672C247.913 266.966 248.296 267.065 248.613 266.956L234.457 243.433L234.278 243.139L220.87 221.491L220.454 220.807V243.61C220.451 243.974 220.496 244.372 220.587 244.78C220.678 245.189 220.813 245.6 220.984 245.99C221.155 246.38 221.359 246.742 221.584 247.055C221.81 247.368 222.052 247.626 222.297 247.814Z" fill="url(#paint2_linear_0_1)"/>
<path fill-rule="evenodd" clip-rule="evenodd" d="M221.793 204.336L230.363 210.744L235.001 207.277L226.431 200.869L221.793 204.336Z" fill="#6580E1"/>
<path fill-rule="evenodd" clip-rule="evenodd" d="M230.363 210.745V221.96L235.001 218.493V207.277L230.363 210.745Z" fill="#6580E1"/>
<path fill-rule="evenodd" clip-rule="evenodd" d="M230.363 221.959L221.793 215.551L226.431 212.084L235.001 218.491L230.363 221.959Z" fill="#6580E1"/>
<path fill-rule="evenodd" clip-rule="evenodd" d="M221.793 215.552V204.336L226.431 200.869V212.084L221.793 215.552Z" fill="#6580E1"/>
<path fill-rule="evenodd" clip-rule="evenodd" d="M221.793 204.336L226.431 200.869L221.793 204.336Z" fill="#6580E1"/>
<path d="M221.793 204.337L230.363 210.744V221.96L221.793 215.552V204.337Z" fill="#0078D4"/>
<path fill-rule="evenodd" clip-rule="evenodd" d="M229.826 211.272L238.396 217.679L243.034 214.212L234.463 207.805L229.826 211.272Z" fill="#6580E1"/>
<path fill-rule="evenodd" clip-rule="evenodd" d="M238.396 217.68V228.895L243.034 225.428V214.213L238.396 217.68Z" fill="#6580E1"/>
<path fill-rule="evenodd" clip-rule="evenodd" d="M238.396 228.894L229.826 222.487L234.463 219.02L243.034 225.427L238.396 228.894Z" fill="#6580E1"/>
<path fill-rule="evenodd" clip-rule="evenodd" d="M229.826 222.487V211.272L234.463 207.805V219.02L229.826 222.487Z" fill="#6580E1"/>
<path fill-rule="evenodd" clip-rule="evenodd" d="M229.826 211.272L234.463 207.805L229.826 211.272Z" fill="#6580E1"/>
<path d="M229.826 211.271L238.396 217.679V228.894L229.826 222.487V211.271Z" fill="#28A8EA"/>
<path fill-rule="evenodd" clip-rule="evenodd" d="M237.858 216.472L245.359 222.08L249.997 218.612L242.496 213.005L237.858 216.472Z" fill="#6580E1"/>
<path fill-rule="evenodd" clip-rule="evenodd" d="M245.359 222.08V233.295L249.997 229.828V218.612L245.359 222.08Z" fill="#6580E1"/>
<path fill-rule="evenodd" clip-rule="evenodd" d="M245.359 233.295L237.858 227.687L242.496 224.22L249.997 229.827L245.359 233.295Z" fill="#6580E1"/>
<path fill-rule="evenodd" clip-rule="evenodd" d="M237.858 227.687V216.472L242.496 213.005V224.22L237.858 227.687Z" fill="#6580E1"/>
<path fill-rule="evenodd" clip-rule="evenodd" d="M237.858 216.472L242.496 213.005L237.858 216.472Z" fill="#6580E1"/>
<path d="M237.858 216.473L245.359 222.08V233.296L237.858 227.688V216.473Z" fill="#50D9FF"/>
<path fill-rule="evenodd" clip-rule="evenodd" d="M246.4 223.697V218.365L247.56 217.498V222.83L246.4 223.697Z" fill="#6580E1"/>
<path fill-rule="evenodd" clip-rule="evenodd" d="M244.796 214.5L223.4 198.504L224.559 197.637L245.955 213.633L244.796 214.5Z" fill="#6580E1"/>
<path fill-rule="evenodd" clip-rule="evenodd" d="M221.795 199.969V205.301L222.955 204.435V199.103L221.795 199.969Z" fill="#6580E1"/>
<path fill-rule="evenodd" clip-rule="evenodd" d="M221.795 205.301L246.4 223.697L247.56 222.83L222.955 204.435L221.795 205.301Z" fill="#6580E1"/>
<path fill-rule="evenodd" clip-rule="evenodd" d="M246.4 223.698L247.56 222.831L246.4 223.698Z" fill="#6580E1"/>
<path fill-rule="evenodd" clip-rule="evenodd" d="M246.4 218.366C246.423 217.711 246.267 216.937 245.966 216.213L247.125 215.346C247.426 216.07 247.582 216.844 247.56 217.499L246.4 218.366Z" fill="#6580E1"/>
<path fill-rule="evenodd" clip-rule="evenodd" d="M245.966 216.212C245.665 215.488 245.244 214.872 244.796 214.5L245.955 213.633C246.404 214.005 246.825 214.621 247.125 215.346L245.966 216.212Z" fill="#6580E1"/>
<path fill-rule="evenodd" clip-rule="evenodd" d="M223.4 198.503C222.987 198.228 222.598 198.194 222.304 198.405L223.463 197.538C223.757 197.327 224.146 197.361 224.559 197.636L223.4 198.503Z" fill="#6580E1"/>
<path fill-rule="evenodd" clip-rule="evenodd" d="M222.304 198.405C222.278 198.423 222.253 198.443 222.229 198.465L223.389 197.599C223.413 197.577 223.438 197.556 223.463 197.538L222.304 198.405Z" fill="#6580E1"/>
<path fill-rule="evenodd" clip-rule="evenodd" d="M222.229 198.464C221.929 198.739 221.773 199.28 221.795 199.968L222.955 199.102C222.932 198.413 223.088 197.872 223.389 197.598L222.229 198.464Z" fill="#6580E1"/>
<path d="M246.4 223.697V218.365C246.423 217.711 246.267 216.936 245.966 216.212C245.665 215.487 245.244 214.872 244.796 214.499L223.4 198.503C222.951 198.204 222.53 198.191 222.229 198.465C221.929 198.74 221.773 199.281 221.795 199.969V205.301L246.4 223.697Z" fill="#0358A7"/>
<path fill-rule="evenodd" clip-rule="evenodd" d="M211.349 203.481L227.431 212.767L230.895 210.767L214.813 201.481L211.349 203.481Z" fill="#6580E1"/>
<path fill-rule="evenodd" clip-rule="evenodd" d="M229.036 216.092V240.14L232.5 238.14V214.092L229.036 216.092Z" fill="#6580E1"/>
<path fill-rule="evenodd" clip-rule="evenodd" d="M227.431 241.613L211.349 232.328L214.813 230.328L230.895 239.613L227.431 241.613Z" fill="#6580E1"/>
<path fill-rule="evenodd" clip-rule="evenodd" d="M209.744 229.002V204.954L213.208 202.954V227.002L209.744 229.002Z" fill="#6580E1"/>
<path fill-rule="evenodd" clip-rule="evenodd" d="M211.349 203.481L214.813 201.481L211.349 203.481Z" fill="#6580E1"/>
<path fill-rule="evenodd" clip-rule="evenodd" d="M227.431 212.767C228.317 213.278 229.036 214.767 229.036 216.093L232.5 214.093C232.5 212.767 231.781 211.278 230.895 210.767L227.431 212.767Z" fill="#6580E1"/>
<path fill-rule="evenodd" clip-rule="evenodd" d="M229.036 240.14C229.036 240.882 228.81 241.415 228.457 241.651L231.921 239.651C232.275 239.415 232.5 238.882 232.5 238.14L229.036 240.14Z" fill="#6580E1"/>
<path fill-rule="evenodd" clip-rule="evenodd" d="M228.457 241.652C228.178 241.837 227.821 241.838 227.431 241.613L230.895 239.613C231.285 239.838 231.643 239.837 231.921 239.652L228.457 241.652Z" fill="#6580E1"/>
<path fill-rule="evenodd" clip-rule="evenodd" d="M211.349 232.328C210.462 231.816 209.744 230.327 209.744 229.002L213.208 227.002C213.208 228.327 213.926 229.816 214.813 230.328L211.349 232.328Z" fill="#6580E1"/>
<path fill-rule="evenodd" clip-rule="evenodd" d="M209.744 204.955C209.744 204.213 209.969 203.679 210.323 203.443L213.787 201.443C213.433 201.679 213.208 202.213 213.208 202.955L209.744 204.955Z" fill="#6580E1"/>
<path fill-rule="evenodd" clip-rule="evenodd" d="M210.323 203.443C210.601 203.257 210.959 203.256 211.349 203.481L214.813 201.481C214.423 201.256 214.065 201.257 213.787 201.443L210.323 203.443Z" fill="#6580E1"/>
<path d="M211.349 203.481L227.431 212.766C228.317 213.278 229.036 214.767 229.036 216.092V240.14C229.036 241.465 228.317 242.125 227.431 241.613L211.349 232.328C210.462 231.816 209.744 230.327 209.744 229.002V204.954C209.744 203.629 210.462 202.969 211.349 203.481Z" fill="#0F78D4"/>
<path fill-rule="evenodd" clip-rule="evenodd" d="M214.368 217.164L215.527 216.297L214.368 217.164Z" fill="#6580E1"/>
<path fill-rule="evenodd" clip-rule="evenodd" d="M216.187 225.189L217.346 224.322L216.187 225.189Z" fill="#6580E1"/>
<path fill-rule="evenodd" clip-rule="evenodd" d="M214.368 217.163C214.574 216.657 214.851 216.266 215.187 216.001L216.346 215.134C216.011 215.399 215.733 215.79 215.527 216.297L214.368 217.163Z" fill="#6580E1"/>
<path fill-rule="evenodd" clip-rule="evenodd" d="M215.187 216.001C215.451 215.793 215.751 215.663 216.08 215.618L217.239 214.751C216.91 214.797 216.61 214.926 216.346 215.134L215.187 216.001Z" fill="#6580E1"/>
<path fill-rule="evenodd" clip-rule="evenodd" d="M216.08 215.618C216.926 215.533 217.889 215.902 218.861 216.685L220.02 215.818C219.048 215.035 218.085 214.666 217.239 214.751L216.08 215.618Z" fill="#6580E1"/>
<path fill-rule="evenodd" clip-rule="evenodd" d="M218.861 216.684C219.748 217.317 220.623 218.304 221.393 219.537L222.552 218.67C221.782 217.437 220.907 216.451 220.02 215.817L218.861 216.684Z" fill="#6580E1"/>
<path fill-rule="evenodd" clip-rule="evenodd" d="M221.393 219.538C222.109 220.717 222.686 222.087 223.057 223.484L224.216 222.617C223.846 221.22 223.268 219.851 222.552 218.671L221.393 219.538Z" fill="#6580E1"/>
<path fill-rule="evenodd" clip-rule="evenodd" d="M223.057 223.482C223.45 225.019 223.641 226.526 223.616 227.881L224.775 227.014C224.801 225.659 224.609 224.152 224.216 222.615L223.057 223.482Z" fill="#6580E1"/>
<path fill-rule="evenodd" clip-rule="evenodd" d="M223.616 227.882C223.635 229.341 223.428 230.617 223.009 231.606L224.169 230.739C224.587 229.75 224.795 228.475 224.775 227.016L223.616 227.882Z" fill="#6580E1"/>
<path fill-rule="evenodd" clip-rule="evenodd" d="M223.009 231.605C222.808 232.066 222.544 232.426 222.229 232.674L223.389 231.807C223.703 231.559 223.967 231.199 224.169 230.738L223.009 231.605Z" fill="#6580E1"/>
<path fill-rule="evenodd" clip-rule="evenodd" d="M222.229 232.673C221.939 232.903 221.606 233.038 221.238 233.071L222.398 232.204C222.765 232.171 223.099 232.036 223.389 231.807L222.229 232.673Z" fill="#6580E1"/>
<path fill-rule="evenodd" clip-rule="evenodd" d="M221.238 233.072C220.445 233.167 219.54 232.834 218.623 232.112L219.783 231.245C220.699 231.968 221.605 232.3 222.398 232.205L221.238 233.072Z" fill="#6580E1"/>
<path fill-rule="evenodd" clip-rule="evenodd" d="M218.623 232.113C217.72 231.473 216.827 230.468 216.044 229.207L217.203 228.34C217.986 229.601 218.879 230.607 219.783 231.246L218.623 232.113Z" fill="#6580E1"/>
<path fill-rule="evenodd" clip-rule="evenodd" d="M216.044 229.206C215.316 228.029 214.729 226.651 214.356 225.243L215.515 224.376C215.888 225.784 216.475 227.163 217.203 228.34L216.044 229.206Z" fill="#6580E1"/>
<path fill-rule="evenodd" clip-rule="evenodd" d="M214.356 225.243C213.945 223.713 213.741 222.206 213.762 220.853L214.921 219.986C214.901 221.339 215.105 222.846 215.515 224.376L214.356 225.243Z" fill="#6580E1"/>
<path fill-rule="evenodd" clip-rule="evenodd" d="M213.762 220.852C213.75 219.411 213.957 218.15 214.368 217.164L215.527 216.297C215.117 217.283 214.909 218.545 214.921 219.985L213.762 220.852Z" fill="#6580E1"/>
<path fill-rule="evenodd" clip-rule="evenodd" d="M216.187 225.189C216.4 226.06 216.736 226.926 217.161 227.695L218.321 226.828C217.896 226.059 217.559 225.193 217.346 224.322L216.187 225.189Z" fill="#6580E1"/>
<path fill-rule="evenodd" clip-rule="evenodd" d="M217.161 227.694C217.601 228.477 218.125 229.105 218.659 229.489L219.818 228.622C219.284 228.239 218.76 227.61 218.321 226.827L217.161 227.694Z" fill="#6580E1"/>
<path fill-rule="evenodd" clip-rule="evenodd" d="M218.659 229.491C219.236 229.96 219.804 230.135 220.276 229.989L221.435 229.122C220.964 229.268 220.395 229.093 219.818 228.624L218.659 229.491Z" fill="#6580E1"/>
<path fill-rule="evenodd" clip-rule="evenodd" d="M220.276 229.989C220.393 229.952 220.504 229.897 220.606 229.823L221.765 228.956C221.663 229.03 221.553 229.085 221.435 229.122L220.276 229.989Z" fill="#6580E1"/>
<path fill-rule="evenodd" clip-rule="evenodd" d="M220.606 229.823C220.868 229.633 221.076 229.325 221.215 228.914L222.374 228.047C222.235 228.458 222.028 228.767 221.765 228.956L220.606 229.823Z" fill="#6580E1"/>
<path fill-rule="evenodd" clip-rule="evenodd" d="M221.215 228.912C221.427 228.219 221.528 227.389 221.512 226.468L222.671 225.602C222.687 226.522 222.586 227.352 222.374 228.045L221.215 228.912Z" fill="#6580E1"/>
<path fill-rule="evenodd" clip-rule="evenodd" d="M221.512 226.47C221.517 225.603 221.424 224.669 221.238 223.706L222.398 222.839C222.584 223.802 222.676 224.737 222.671 225.603L221.512 226.47Z" fill="#6580E1"/>
<path fill-rule="evenodd" clip-rule="evenodd" d="M221.238 223.704C221.07 222.815 220.756 221.906 220.335 221.091L221.494 220.225C221.915 221.04 222.229 221.948 222.398 222.837L221.238 223.704Z" fill="#6580E1"/>
<path fill-rule="evenodd" clip-rule="evenodd" d="M220.335 221.092C219.878 220.233 219.315 219.548 218.742 219.155L219.902 218.288C220.474 218.682 221.037 219.366 221.494 220.225L220.335 221.092Z" fill="#6580E1"/>
<path fill-rule="evenodd" clip-rule="evenodd" d="M218.742 219.155C218.191 218.721 217.649 218.559 217.197 218.693L218.356 217.826C218.809 217.692 219.35 217.854 219.902 218.288L218.742 219.155Z" fill="#6580E1"/>
<path fill-rule="evenodd" clip-rule="evenodd" d="M217.197 218.692C217.059 218.732 216.93 218.796 216.812 218.883L217.971 218.016C218.09 217.929 218.218 217.865 218.356 217.825L217.197 218.692Z" fill="#6580E1"/>
<path fill-rule="evenodd" clip-rule="evenodd" d="M216.812 218.883C216.561 219.068 216.356 219.355 216.21 219.733L217.37 218.866C217.516 218.488 217.72 218.201 217.971 218.017L216.812 218.883Z" fill="#6580E1"/>
<path fill-rule="evenodd" clip-rule="evenodd" d="M216.21 219.732C215.969 220.43 215.852 221.287 215.866 222.247L217.025 221.38C217.011 220.42 217.128 219.564 217.37 218.865L216.21 219.732Z" fill="#6580E1"/>
<path fill-rule="evenodd" clip-rule="evenodd" d="M215.866 222.248C215.854 223.162 215.963 224.161 216.187 225.189L217.346 224.322C217.123 223.295 217.014 222.296 217.025 221.381L215.866 222.248Z" fill="#6580E1"/>
<path d="M214.368 217.164C214.735 216.26 215.332 215.721 216.08 215.618C216.926 215.532 217.889 215.901 218.861 216.684C219.748 217.317 220.623 218.303 221.393 219.537C222.109 220.716 222.686 222.085 223.057 223.482C223.45 225.019 223.641 226.526 223.616 227.881C223.635 229.34 223.428 230.616 223.009 231.605C222.621 232.491 222.004 233.003 221.238 233.071C220.445 233.166 219.54 232.834 218.623 232.112C217.72 231.472 216.827 230.467 216.044 229.206C215.316 228.029 214.729 226.65 214.356 225.242C213.945 223.712 213.741 222.205 213.762 220.852C213.75 219.412 213.957 218.15 214.368 217.164ZM216.187 225.189C216.4 226.06 216.736 226.925 217.161 227.695C217.601 228.478 218.125 229.106 218.659 229.49C219.236 229.959 219.804 230.134 220.276 229.988C220.696 229.857 221.022 229.483 221.215 228.912C221.427 228.219 221.528 227.389 221.512 226.468C221.517 225.602 221.424 224.668 221.238 223.705C221.07 222.815 220.756 221.907 220.335 221.092C219.878 220.233 219.315 219.548 218.742 219.154C218.191 218.72 217.649 218.558 217.197 218.692C216.766 218.817 216.425 219.177 216.21 219.732C215.969 220.431 215.852 221.287 215.866 222.247C215.854 223.162 215.963 224.161 216.187 225.189Z" fill="white"/>
<path fill-rule="evenodd" clip-rule="evenodd" d="M11.8173 163.37L49.3442 185.036L52.8083 183.036L15.2814 161.37L11.8173 163.37Z" fill="#6580E1"/>
<path fill-rule="evenodd" clip-rule="evenodd" d="M51.6831 183.671V171.878L55.1472 169.878V181.671L51.6831 183.671Z" fill="#6580E1"/>
<path fill-rule="evenodd" clip-rule="evenodd" d="M51.683 171.877L9.49561 147.521L12.9597 145.521L55.1471 169.877L51.683 171.877Z" fill="#6580E1"/>
<path fill-rule="evenodd" clip-rule="evenodd" d="M9.49561 147.521V159.313L12.9597 157.313V145.521L9.49561 147.521Z" fill="#6580E1"/>
<path fill-rule="evenodd" clip-rule="evenodd" d="M11.8173 163.37L15.2814 161.37L11.8173 163.37Z" fill="#6580E1"/>
<path fill-rule="evenodd" clip-rule="evenodd" d="M11.8173 163.37L15.2814 161.37L11.8173 163.37Z" fill="#6580E1"/>
<path fill-rule="evenodd" clip-rule="evenodd" d="M49.3442 185.037C49.652 185.217 49.9572 185.325 50.242 185.354L53.7061 183.354C53.4213 183.325 53.1161 183.217 52.8083 183.037L49.3442 185.037Z" fill="#6580E1"/>
<path fill-rule="evenodd" clip-rule="evenodd" d="M50.2419 185.354C50.5268 185.383 50.7855 185.332 51.0032 185.205L54.4673 183.205C54.2496 183.332 53.9909 183.383 53.706 183.354L50.2419 185.354Z" fill="#6580E1"/>
<path fill-rule="evenodd" clip-rule="evenodd" d="M51.0032 185.205C51.2208 185.078 51.393 184.877 51.5097 184.613L54.9738 182.613C54.8571 182.877 54.6849 183.078 54.4673 183.205L51.0032 185.205Z" fill="#6580E1"/>
<path fill-rule="evenodd" clip-rule="evenodd" d="M51.5098 184.613C51.6265 184.349 51.6854 184.029 51.6831 183.67L55.1472 181.67C55.1495 182.029 55.0906 182.349 54.9739 182.613L51.5098 184.613Z" fill="#6580E1"/>
<path fill-rule="evenodd" clip-rule="evenodd" d="M9.49567 159.313C9.49338 159.668 9.55175 160.055 9.6674 160.451L13.1315 158.451C13.0158 158.055 12.9575 157.668 12.9598 157.313L9.49567 159.313Z" fill="#6580E1"/>
<path fill-rule="evenodd" clip-rule="evenodd" d="M9.66748 160.451C9.78313 160.847 9.95377 161.246 10.1696 161.623L13.6337 159.623C13.4179 159.246 13.2472 158.847 13.1316 158.451L9.66748 160.451Z" fill="#6580E1"/>
<path fill-rule="evenodd" clip-rule="evenodd" d="M10.1694 161.622C10.3852 161.999 10.6419 162.348 10.9248 162.648L14.3889 160.648C14.1061 160.348 13.8493 159.999 13.6335 159.622L10.1694 161.622Z" fill="#6580E1"/>
<path fill-rule="evenodd" clip-rule="evenodd" d="M10.9248 162.648C11.2076 162.948 11.5109 163.194 11.8173 163.371L15.2814 161.371C14.975 161.194 14.6717 160.948 14.3889 160.648L10.9248 162.648Z" fill="#6580E1"/>
<path d="M11.8173 163.371L49.3442 185.037C49.652 185.217 49.9572 185.325 50.242 185.354C50.5268 185.383 50.7855 185.332 51.0032 185.205C51.2208 185.078 51.393 184.876 51.5098 184.613C51.6265 184.35 51.6854 184.029 51.6831 183.67V171.877L9.49567 147.521V159.313C9.49338 159.668 9.55175 160.054 9.6674 160.451C9.78304 160.847 9.95369 161.245 10.1695 161.622C10.3853 161.999 10.642 162.348 10.9248 162.648C11.2076 162.948 11.5109 163.194 11.8173 163.371Z" fill="#103F91"/>
<path fill-rule="evenodd" clip-rule="evenodd" d="M9.49561 133.769L51.6657 158.115L55.1298 156.115L12.9597 131.769L9.49561 133.769Z" fill="#6580E1"/>
<path fill-rule="evenodd" clip-rule="evenodd" d="M51.6658 158.115V172.625L55.1299 170.625V156.115L51.6658 158.115Z" fill="#6580E1"/>
<path fill-rule="evenodd" clip-rule="evenodd" d="M51.6657 172.625L9.49561 148.278L12.9597 146.278L55.1298 170.625L51.6657 172.625Z" fill="#6580E1"/>
<path fill-rule="evenodd" clip-rule="evenodd" d="M9.49561 148.278V133.769L12.9597 131.769V146.278L9.49561 148.278Z" fill="#6580E1"/>
<path fill-rule="evenodd" clip-rule="evenodd" d="M9.49561 133.769L12.9597 131.769L9.49561 133.769Z" fill="#6580E1"/>
<path d="M9.49561 133.769L51.6657 158.115V172.625L9.49561 148.278V133.769Z" fill="#185ABD"/>
<path fill-rule="evenodd" clip-rule="evenodd" d="M9.49561 120.027L51.6657 144.374L55.1298 142.374L12.9597 118.027L9.49561 120.027Z" fill="#6580E1"/>
<path fill-rule="evenodd" clip-rule="evenodd" d="M51.6658 144.374V158.884L55.1299 156.884V142.374L51.6658 144.374Z" fill="#6580E1"/>
<path fill-rule="evenodd" clip-rule="evenodd" d="M51.6657 158.884L9.49561 134.537L12.9597 132.537L55.1298 156.884L51.6657 158.884Z" fill="#6580E1"/>
<path fill-rule="evenodd" clip-rule="evenodd" d="M9.49561 134.537V120.027L12.9597 118.027V132.537L9.49561 134.537Z" fill="#6580E1"/>
<path fill-rule="evenodd" clip-rule="evenodd" d="M9.49561 120.027L12.9597 118.027L9.49561 120.027Z" fill="#6580E1"/>
<path d="M9.49561 120.027L51.6657 144.374V158.884L9.49561 134.537V120.027Z" fill="#2B7CD3"/>
<path fill-rule="evenodd" clip-rule="evenodd" d="M49.3486 127.982L11.8217 106.315L15.2858 104.315L52.8127 125.982L49.3486 127.982Z" fill="#6580E1"/>
<path fill-rule="evenodd" clip-rule="evenodd" d="M9.5 107.691V119.484L12.9641 117.484V105.691L9.5 107.691Z" fill="#6580E1"/>
<path fill-rule="evenodd" clip-rule="evenodd" d="M9.5 119.484L51.6355 143.811L55.0996 141.811L12.9641 117.484L9.5 119.484Z" fill="#6580E1"/>
<path fill-rule="evenodd" clip-rule="evenodd" d="M51.6355 143.811V132.019L55.0996 130.019V141.811L51.6355 143.811Z" fill="#6580E1"/>
<path fill-rule="evenodd" clip-rule="evenodd" d="M49.3486 127.981L52.8127 125.981L49.3486 127.981Z" fill="#6580E1"/>
<path fill-rule="evenodd" clip-rule="evenodd" d="M49.3486 127.981L52.8127 125.981L49.3486 127.981Z" fill="#6580E1"/>
<path fill-rule="evenodd" clip-rule="evenodd" d="M11.8217 106.315C11.5153 106.138 11.212 106.033 10.9292 106.007L14.3933 104.007C14.6761 104.033 14.9794 104.138 15.2858 104.315L11.8217 106.315Z" fill="#6580E1"/>
<path fill-rule="evenodd" clip-rule="evenodd" d="M10.9291 106.007C10.6463 105.98 10.3896 106.032 10.1738 106.16L13.6379 104.16C13.8537 104.032 14.1104 103.98 14.3933 104.007L10.9291 106.007Z" fill="#6580E1"/>
<path fill-rule="evenodd" clip-rule="evenodd" d="M10.174 106.16C9.95817 106.288 9.78752 106.489 9.67188 106.752L13.136 104.752C13.2516 104.489 13.4223 104.288 13.6381 104.16L10.174 106.16Z" fill="#6580E1"/>
<path fill-rule="evenodd" clip-rule="evenodd" d="M9.67179 106.752C9.55614 107.015 9.49778 107.334 9.50006 107.691L12.9642 105.691C12.9619 105.334 13.0202 105.015 13.1359 104.752L9.67179 106.752Z" fill="#6580E1"/>
<path fill-rule="evenodd" clip-rule="evenodd" d="M51.6355 132.018C51.6401 131.309 51.4023 130.487 50.9739 129.73L54.438 127.73C54.8664 128.487 55.1042 129.309 55.0996 130.018L51.6355 132.018Z" fill="#6580E1"/>
<path fill-rule="evenodd" clip-rule="evenodd" d="M50.974 129.731C50.5456 128.975 49.9613 128.346 49.3486 127.981L52.8127 125.981C53.4254 126.346 54.0097 126.975 54.4381 127.731L50.974 129.731Z" fill="#6580E1"/>
<path d="M49.8486 127.981L12.3217 106.315C12.0153 106.138 11.712 106.033 11.4292 106.007C11.1464 105.98 10.8897 106.032 10.6739 106.16C10.4581 106.288 10.2874 106.489 10.1718 106.752C10.0561 107.015 9.99778 107.334 10.0001 107.691V119.484L52.1355 143.811V132.018C52.1402 131.309 51.9024 130.487 51.474 129.73C51.0455 128.974 50.4613 128.345 49.8486 127.981Z" fill="#41A5EE"/>
<path fill-rule="evenodd" clip-rule="evenodd" d="M2.33887 113.818L25.7802 127.352L29.2443 125.352L5.80297 111.818L2.33887 113.818Z" fill="#6580E1"/>
<path fill-rule="evenodd" clip-rule="evenodd" d="M28.1191 131.419V158.647L31.5832 156.647V129.419L28.1191 131.419Z" fill="#6580E1"/>
<path fill-rule="evenodd" clip-rule="evenodd" d="M25.7802 160.013L2.33887 146.479L5.80297 144.479L29.2443 158.013L25.7802 160.013Z" fill="#6580E1"/>
<path fill-rule="evenodd" clip-rule="evenodd" d="M0 142.413V115.185L3.4641 113.185V140.413L0 142.413Z" fill="#6580E1"/>
<path fill-rule="evenodd" clip-rule="evenodd" d="M2.33887 113.818L5.80297 111.818L2.33887 113.818Z" fill="#6580E1"/>
<path fill-rule="evenodd" clip-rule="evenodd" d="M25.7803 127.352C27.072 128.097 28.1192 129.918 28.1192 131.419L31.5833 129.419C31.5833 127.918 30.5361 126.097 29.2444 125.352L25.7803 127.352Z" fill="#6580E1"/>
<path fill-rule="evenodd" clip-rule="evenodd" d="M28.1192 158.647C28.1192 159.368 27.8779 159.883 27.4841 160.142L30.9482 158.142C31.342 157.883 31.5833 157.368 31.5833 156.647L28.1192 158.647Z" fill="#6580E1"/>
<path fill-rule="evenodd" clip-rule="evenodd" d="M27.4842 160.142C27.0576 160.422 26.452 160.401 25.7803 160.014L29.2444 158.014C29.9161 158.401 30.5217 158.422 30.9483 158.142L27.4842 160.142Z" fill="#6580E1"/>
<path fill-rule="evenodd" clip-rule="evenodd" d="M2.33893 146.48C1.04718 145.734 0 143.914 0 142.413L3.4641 140.413C3.4641 141.914 4.51128 143.734 5.80304 144.48L2.33893 146.48Z" fill="#6580E1"/>
<path fill-rule="evenodd" clip-rule="evenodd" d="M0 115.185C0 114.465 0.24127 113.949 0.635048 113.69L4.09915 111.69C3.70537 111.949 3.4641 112.465 3.4641 113.185L0 115.185Z" fill="#6580E1"/>
<path fill-rule="evenodd" clip-rule="evenodd" d="M0.63501 113.69C1.0616 113.409 1.66718 113.43 2.3389 113.818L5.803 111.818C5.13128 111.43 4.5257 111.409 4.09911 111.69L0.63501 113.69Z" fill="#6580E1"/>
<path d="M2.33893 113.818L25.7802 127.352C27.072 128.097 28.1192 129.918 28.1192 131.419V158.647C28.1192 160.147 27.072 160.759 25.7802 160.013L2.33893 146.48C1.04718 145.734 0 143.913 0 142.412V115.184C0 113.684 1.04718 113.072 2.33893 113.818Z" fill="#185ABD"/>
<path fill-rule="evenodd" clip-rule="evenodd" d="M9.37085 142.07L10.2369 141.57L9.37085 142.07Z" fill="#6580E1"/>
<path fill-rule="evenodd" clip-rule="evenodd" d="M9.66541 140.107L12.1949 129.231L13.0609 128.731L10.5314 139.607L9.66541 140.107Z" fill="#6580E1"/>
<path fill-rule="evenodd" clip-rule="evenodd" d="M12.1949 129.231L15.3828 131.072L16.2489 130.572L13.061 128.731L12.1949 129.231Z" fill="#6580E1"/>
<path fill-rule="evenodd" clip-rule="evenodd" d="M15.3828 131.072L17.9297 144.617L18.7957 144.117L16.2488 130.572L15.3828 131.072Z" fill="#6580E1"/>
<path fill-rule="evenodd" clip-rule="evenodd" d="M18.2415 147.092L19.1075 146.592L18.2415 147.092Z" fill="#6580E1"/>
<path fill-rule="evenodd" clip-rule="evenodd" d="M18.5015 145.028L20.5459 133.973L21.4119 133.473L19.3675 144.528L18.5015 145.028Z" fill="#6580E1"/>
<path fill-rule="evenodd" clip-rule="evenodd" d="M20.5458 133.973L23.4391 135.643L24.3051 135.143L21.4118 133.473L20.5458 133.973Z" fill="#6580E1"/>
<path fill-rule="evenodd" clip-rule="evenodd" d="M23.4392 135.644L19.8701 151.252L20.7361 150.752L24.3052 135.144L23.4392 135.644Z" fill="#6580E1"/>
<path fill-rule="evenodd" clip-rule="evenodd" d="M19.8702 151.252L16.5437 149.331L17.4097 148.831L20.7362 150.752L19.8702 151.252Z" fill="#6580E1"/>
<path fill-rule="evenodd" clip-rule="evenodd" d="M16.5436 149.331L14.1007 136.289L14.9667 135.789L17.4096 148.831L16.5436 149.331Z" fill="#6580E1"/>
<path fill-rule="evenodd" clip-rule="evenodd" d="M13.3558 135.899L11.0688 146.251L11.9349 145.751L14.2218 135.399L13.3558 135.899Z" fill="#6580E1"/>
<path fill-rule="evenodd" clip-rule="evenodd" d="M11.0688 146.251L7.60376 144.25L8.46979 143.75L11.9349 145.751L11.0688 146.251Z" fill="#6580E1"/>
<path fill-rule="evenodd" clip-rule="evenodd" d="M7.60369 144.25L4 124.5L4.86603 124L8.46972 143.75L7.60369 144.25Z" fill="#6580E1"/>
<path fill-rule="evenodd" clip-rule="evenodd" d="M4 124.5L6.9973 126.23L7.86332 125.73L4.86603 124L4 124.5Z" fill="#6580E1"/>
<path fill-rule="evenodd" clip-rule="evenodd" d="M6.99731 126.23L9.21497 139.867L10.081 139.367L7.86334 125.73L6.99731 126.23Z" fill="#6580E1"/>
<path fill-rule="evenodd" clip-rule="evenodd" d="M9.28418 140.934L10.1502 140.434L9.28418 140.934Z" fill="#6580E1"/>
<path fill-rule="evenodd" clip-rule="evenodd" d="M9.28418 140.934L10.1502 140.434L9.28418 140.934Z" fill="#6580E1"/>
<path fill-rule="evenodd" clip-rule="evenodd" d="M9.28418 140.934C9.33495 141.322 9.3639 141.702 9.37081 142.07L10.2368 141.57C10.2299 141.202 10.201 140.822 10.1502 140.434L9.28418 140.934Z" fill="#6580E1"/>
<path fill-rule="evenodd" clip-rule="evenodd" d="M9.37085 142.071C9.39228 141.725 9.43278 141.392 9.49213 141.074L10.3582 140.574C10.2988 140.892 10.2583 141.225 10.2369 141.571L9.37085 142.071Z" fill="#6580E1"/>
<path fill-rule="evenodd" clip-rule="evenodd" d="M9.49219 141.074C9.5303 140.737 9.58817 140.414 9.66544 140.107L10.5315 139.607C10.4542 139.914 10.3963 140.237 10.3582 140.574L9.49219 141.074Z" fill="#6580E1"/>
<path fill-rule="evenodd" clip-rule="evenodd" d="M17.9297 144.617C18.0722 145.456 18.1763 146.283 18.2415 147.091L19.1076 146.591C19.0424 145.783 18.9382 144.956 18.7957 144.117L17.9297 144.617Z" fill="#6580E1"/>
<path fill-rule="evenodd" clip-rule="evenodd" d="M18.2415 147.092C18.2872 146.375 18.374 145.686 18.5013 145.028L19.3674 144.528C19.2401 145.186 19.1533 145.875 19.1075 146.592L18.2415 147.092Z" fill="#6580E1"/>
<path fill-rule="evenodd" clip-rule="evenodd" d="M14.1007 136.289C14.1007 135.947 13.9448 135.434 13.8582 134.841L14.7242 134.341C14.8108 134.934 14.9667 135.447 14.9667 135.789L14.1007 136.289Z" fill="#6580E1"/>
<path fill-rule="evenodd" clip-rule="evenodd" d="M13.8582 134.841C13.7716 134.247 13.7196 133.815 13.7023 133.563L14.5683 133.063C14.5856 133.315 14.6376 133.747 14.7242 134.341L13.8582 134.841Z" fill="#6580E1"/>
<path fill-rule="evenodd" clip-rule="evenodd" d="M13.7023 133.563C13.7023 133.845 13.7023 134.268 13.5464 134.761L14.4124 134.261C14.5683 133.768 14.5683 133.345 14.5683 133.063L13.7023 133.563Z" fill="#6580E1"/>
<path fill-rule="evenodd" clip-rule="evenodd" d="M13.5463 134.762C13.3904 135.255 13.3904 135.658 13.3557 135.899L14.2217 135.399C14.2564 135.158 14.2564 134.755 14.4123 134.262L13.5463 134.762Z" fill="#6580E1"/>
<path fill-rule="evenodd" clip-rule="evenodd" d="M9.21497 139.867C9.25718 140.232 9.28033 140.588 9.28427 140.934L10.1503 140.434C10.1464 140.088 10.1232 139.732 10.081 139.367L9.21497 139.867Z" fill="#6580E1"/>
<path d="M9.28426 140.934C9.33503 141.322 9.36398 141.702 9.37089 142.07C9.39232 141.725 9.43282 141.392 9.49216 141.074C9.53028 140.736 9.58815 140.413 9.66542 140.107L12.1949 129.231L15.3828 131.072L17.9296 144.617C18.0722 145.456 18.1763 146.282 18.2415 147.091C18.2873 146.374 18.3741 145.685 18.5014 145.027L20.5458 133.972L23.4391 135.643L19.8701 151.251L16.5436 149.331L14.1007 136.288C14.1007 135.946 13.9448 135.434 13.8582 134.84C13.7715 134.247 13.7196 133.814 13.7022 133.563C13.7022 133.845 13.7022 134.267 13.5463 134.761C13.3904 135.254 13.3904 135.657 13.3557 135.899L11.0688 146.25L7.60369 144.25L4 124.5L6.9973 126.23L9.21496 139.867C9.25717 140.232 9.28032 140.588 9.28426 140.934Z" fill="white"/>
<path fill-rule="evenodd" clip-rule="evenodd" d="M112.589 88.0341L77.6748 75.5445L83.939 73.1416L118.853 85.6312L112.589 88.0341Z" fill="#CA64EA"/>
<path fill-rule="evenodd" clip-rule="evenodd" d="M75.397 72.1335V21.8668L81.6612 19.4639V69.7306L75.397 72.1335Z" fill="#CA64EA"/>
<path fill-rule="evenodd" clip-rule="evenodd" d="M77.6415 20.0738L113.636 32.95L119.9 30.5471L83.9057 17.6709L77.6415 20.0738Z" fill="#CA64EA"/>
<path fill-rule="evenodd" clip-rule="evenodd" d="M115.881 36.3492V85.4622L122.145 83.0592V33.9463L115.881 36.3492Z" fill="#CA64EA"/>
<path fill-rule="evenodd" clip-rule="evenodd" d="M112.589 88.0338L118.853 85.6309L112.589 88.0338Z" fill="#CA64EA"/>
<path fill-rule="evenodd" clip-rule="evenodd" d="M77.6748 75.5433C77.3766 75.4444 77.0802 75.2768 76.803 75.0504L83.0672 72.6475C83.3444 72.8739 83.6408 73.0415 83.9389 73.1404L77.6748 75.5433Z" fill="#CA64EA"/>
<path fill-rule="evenodd" clip-rule="evenodd" d="M76.803 75.0522C76.5258 74.8258 76.2736 74.5452 76.0612 74.2271L82.3253 71.8242C82.5378 72.1423 82.79 72.4229 83.0672 72.6493L76.803 75.0522Z" fill="#CA64EA"/>
<path fill-rule="evenodd" clip-rule="evenodd" d="M76.0611 74.2275C75.8487 73.9094 75.6805 73.5603 75.5664 73.2008L81.8306 70.7979C81.9447 71.1574 82.1129 71.5065 82.3253 71.8246L76.0611 74.2275Z" fill="#CA64EA"/>
<path fill-rule="evenodd" clip-rule="evenodd" d="M75.5664 73.2005C75.4523 72.841 75.3947 72.4785 75.397 72.1344L81.6612 69.7314C81.6589 70.0755 81.7165 70.4381 81.8306 70.7976L75.5664 73.2005Z" fill="#CA64EA"/>
<path fill-rule="evenodd" clip-rule="evenodd" d="M75.397 21.8672C75.3948 21.5248 75.4514 21.2063 75.5634 20.9303L81.8276 18.5273C81.7156 18.8034 81.659 19.1219 81.6612 19.4643L75.397 21.8672Z" fill="#CA64EA"/>
<path fill-rule="evenodd" clip-rule="evenodd" d="M75.5635 20.9294C75.6755 20.6533 75.8407 20.4252 76.0496 20.2584L82.3138 17.8555C82.1049 18.0223 81.9397 18.2504 81.8277 18.5265L75.5635 20.9294Z" fill="#CA64EA"/>
<path fill-rule="evenodd" clip-rule="evenodd" d="M76.0496 20.2584C76.1582 20.1717 76.2774 20.1024 76.4054 20.0514L82.6695 17.6484C82.5416 17.6995 82.4224 17.7688 82.3138 17.8555L76.0496 20.2584Z" fill="#CA64EA"/>
<path fill-rule="evenodd" clip-rule="evenodd" d="M76.4053 20.0515C76.5233 20.0044 76.6488 19.9729 76.78 19.9576L83.0442 17.5547C82.913 17.5699 82.7875 17.6014 82.6695 17.6485L76.4053 20.0515Z" fill="#CA64EA"/>
<path fill-rule="evenodd" clip-rule="evenodd" d="M76.78 19.9585C77.0533 19.9267 77.3462 19.9661 77.6416 20.0743L83.9058 17.6714C83.6104 17.5632 83.3175 17.5238 83.0442 17.5556L76.78 19.9585Z" fill="#CA64EA"/>
<path fill-rule="evenodd" clip-rule="evenodd" d="M113.636 32.9508C113.931 33.0539 114.224 33.224 114.498 33.4514L120.762 31.0484C120.489 30.8211 120.196 30.651 119.9 30.5479L113.636 32.9508Z" fill="#CA64EA"/>
<path fill-rule="evenodd" clip-rule="evenodd" d="M114.498 33.4517C114.771 33.6791 115.019 33.959 115.228 34.2753L121.492 31.8724C121.284 31.5561 121.035 31.2762 120.762 31.0488L114.498 33.4517Z" fill="#CA64EA"/>
<path fill-rule="evenodd" clip-rule="evenodd" d="M115.228 34.274C115.437 34.5903 115.602 34.9366 115.714 35.2928L121.979 32.8899C121.867 32.5337 121.701 32.1874 121.492 31.8711L115.228 34.274Z" fill="#CA64EA"/>
<path fill-rule="evenodd" clip-rule="evenodd" d="M115.714 35.2926C115.826 35.6488 115.883 36.0077 115.881 36.3486L122.145 33.9456C122.147 33.6048 122.091 33.2458 121.979 32.8896L115.714 35.2926Z" fill="#CA64EA"/>
<path fill-rule="evenodd" clip-rule="evenodd" d="M115.881 85.4615C115.859 86.4505 115.504 87.2714 114.89 87.7513L121.154 85.3483C121.768 84.8685 122.123 84.0475 122.145 83.0586L115.881 85.4615Z" fill="#CA64EA"/>
<path fill-rule="evenodd" clip-rule="evenodd" d="M114.89 87.7506C114.742 87.8657 114.583 87.9591 114.414 88.0304L120.678 85.6274C120.847 85.5562 121.007 85.4628 121.154 85.3477L114.89 87.7506Z" fill="#CA64EA"/>
<path fill-rule="evenodd" clip-rule="evenodd" d="M114.414 88.0328C113.878 88.2585 113.244 88.2625 112.589 88.0355L118.853 85.6326C119.508 85.8595 120.142 85.8555 120.678 85.6299L114.414 88.0328Z" fill="#CA64EA"/>
<path d="M112.589 88.033L77.6748 75.5434C77.3766 75.4445 77.0802 75.2769 76.803 75.0505C76.5258 74.8241 76.2735 74.5435 76.0611 74.2255C75.8487 73.9074 75.6805 73.5582 75.5664 73.1987C75.4523 72.8392 75.3947 72.4767 75.397 72.1326V21.8659C75.3948 21.5235 75.4514 21.205 75.5634 20.9289C75.6754 20.6529 75.8406 20.4248 76.0495 20.2579C76.2584 20.091 76.5067 19.9888 76.78 19.957C77.0533 19.9252 77.3461 19.9645 77.6415 20.0728L113.636 32.9489C113.932 33.052 114.224 33.2222 114.498 33.4495C114.771 33.6769 115.019 33.9568 115.228 34.2731C115.437 34.5894 115.602 34.9357 115.714 35.2919C115.826 35.6481 115.883 36.007 115.881 36.3479V85.4608C115.859 86.4498 115.504 87.2707 114.89 87.7506C114.276 88.2304 113.451 88.3317 112.589 88.033Z" fill="#CA64EA"/>
<path fill-rule="evenodd" clip-rule="evenodd" d="M102.45 71.5265L114.437 75.8146L116.003 75.2139L104.016 70.9258L102.45 71.5265Z" fill="#CA64EA"/>
<path fill-rule="evenodd" clip-rule="evenodd" d="M114.437 75.8156V87.0842L116.003 86.4835V75.2148L114.437 75.8156Z" fill="#CA64EA"/>
<path fill-rule="evenodd" clip-rule="evenodd" d="M112.243 88.8948L102.45 85.3917L104.016 84.791L113.809 88.2941L112.243 88.8948Z" fill="#CA64EA"/>
<path fill-rule="evenodd" clip-rule="evenodd" d="M102.45 85.3912V71.5265L104.016 70.9258V84.7905L102.45 85.3912Z" fill="#CA64EA"/>
<path fill-rule="evenodd" clip-rule="evenodd" d="M102.45 71.5265L104.016 70.9258L102.45 71.5265Z" fill="#CA64EA"/>
<path fill-rule="evenodd" clip-rule="evenodd" d="M114.437 87.0841C114.437 87.7628 114.208 88.3324 113.797 88.6709L115.364 88.0701C115.774 87.7317 116.003 87.1621 116.003 86.4834L114.437 87.0841Z" fill="#CA64EA"/>
<path fill-rule="evenodd" clip-rule="evenodd" d="M113.798 88.6701C113.683 88.7648 113.556 88.8394 113.421 88.8933L114.987 88.2926C115.122 88.2387 115.249 88.1641 115.364 88.0693L113.798 88.6701Z" fill="#CA64EA"/>
<path fill-rule="evenodd" clip-rule="evenodd" d="M113.421 88.8947C113.073 89.0334 112.665 89.0358 112.243 88.8956L113.809 88.2949C114.231 88.4351 114.639 88.4327 114.987 88.2939L113.421 88.8947Z" fill="#CA64EA"/>
<path d="M102.45 71.5273L114.437 75.8154V87.0841C114.437 87.7628 114.208 88.3324 113.798 88.6709C113.387 89.0093 112.829 89.0898 112.243 88.8951L102.45 85.392V71.5273Z" fill="#7719AA"/>
<path fill-rule="evenodd" clip-rule="evenodd" d="M102.45 59.2072L114.437 63.4953L116.003 62.8945L104.016 58.6064L102.45 59.2072Z" fill="#CA64EA"/>
<path fill-rule="evenodd" clip-rule="evenodd" d="M114.437 63.4962V77.3609L116.003 76.7602V62.8955L114.437 63.4962Z" fill="#CA64EA"/>
<path fill-rule="evenodd" clip-rule="evenodd" d="M114.437 77.3605L102.45 73.0724L104.016 72.4717L116.003 76.7598L114.437 77.3605Z" fill="#CA64EA"/>
<path fill-rule="evenodd" clip-rule="evenodd" d="M102.45 73.0719V59.2072L104.016 58.6064V72.4711L102.45 73.0719Z" fill="#CA64EA"/>
<path fill-rule="evenodd" clip-rule="evenodd" d="M102.45 59.2072L104.016 58.6064L102.45 59.2072Z" fill="#CA64EA"/>
<path d="M102.45 59.208L114.437 63.4961V77.3608L102.45 73.0727V59.208Z" fill="#9332BF"/>
<path fill-rule="evenodd" clip-rule="evenodd" d="M73.1328 30.5851L95.6274 38.632L97.1935 38.0312L74.6989 29.9844L73.1328 30.5851Z" fill="#CA64EA"/>
<path fill-rule="evenodd" clip-rule="evenodd" d="M97.8718 42.0304V68.0484L99.4379 67.4476V41.4297L97.8718 42.0304Z" fill="#CA64EA"/>
<path fill-rule="evenodd" clip-rule="evenodd" d="M95.6274 69.8419L73.1328 61.7951L74.6989 61.1943L97.1935 69.2412L95.6274 69.8419Z" fill="#CA64EA"/>
<path fill-rule="evenodd" clip-rule="evenodd" d="M70.8883 58.395V32.3771L72.4544 31.7764V57.7943L70.8883 58.395Z" fill="#CA64EA"/>
<path fill-rule="evenodd" clip-rule="evenodd" d="M73.1328 30.5851L74.6989 29.9844L73.1328 30.5851Z" fill="#CA64EA"/>
<path fill-rule="evenodd" clip-rule="evenodd" d="M95.6273 38.632C96.8669 39.0754 97.8718 40.5972 97.8718 42.0309L99.4378 41.4302C99.4378 39.9964 98.433 38.4747 97.1934 38.0312L95.6273 38.632Z" fill="#CA64EA"/>
<path fill-rule="evenodd" clip-rule="evenodd" d="M97.8719 68.048C97.8719 68.9656 97.4603 69.6248 96.839 69.8642L98.405 69.2635C99.0263 69.024 99.4379 68.3649 99.4379 67.4473L97.8719 68.048Z" fill="#CA64EA"/>
<path fill-rule="evenodd" clip-rule="evenodd" d="M96.8389 69.866C96.4894 70.0007 96.0736 70.0026 95.6273 69.8429L97.1934 69.2422C97.6396 69.4018 98.0555 69.3999 98.4049 69.2653L96.8389 69.866Z" fill="#CA64EA"/>
<path fill-rule="evenodd" clip-rule="evenodd" d="M73.1328 61.7946C71.8932 61.3511 70.8883 59.8294 70.8883 58.3957L72.4544 57.7949C72.4544 59.2287 73.4592 60.7504 74.6988 61.1938L73.1328 61.7946Z" fill="#CA64EA"/>
<path fill-rule="evenodd" clip-rule="evenodd" d="M70.8883 32.3769C70.8883 31.4593 71.2999 30.8001 71.9212 30.5607L73.4873 29.96C72.866 30.1994 72.4544 30.8586 72.4544 31.7762L70.8883 32.3769Z" fill="#CA64EA"/>
<path fill-rule="evenodd" clip-rule="evenodd" d="M71.9213 30.562C72.2707 30.4273 72.6866 30.4254 73.1328 30.5851L74.6989 29.9844C74.2526 29.8247 73.8368 29.8266 73.4873 29.9613L71.9213 30.562Z" fill="#CA64EA"/>
<path d="M73.1328 30.5859L95.6274 38.6328C96.867 39.0762 97.8719 40.598 97.8719 42.0317V68.0497C97.8719 69.4834 96.867 70.2862 95.6274 69.8428L73.1328 61.7959C71.8932 61.3525 70.8883 59.8307 70.8883 58.397V32.379C70.8883 30.9453 71.8932 30.1425 73.1328 30.5859Z" fill="#7719AA"/>
<path d="M77.6515 40.1279L80.4816 41.1538L86.0491 54.6091C86.312 55.235 86.4976 55.715 86.6213 56.0743C86.5439 55.2642 86.5129 54.4647 86.5286 53.6824V43.3457L88.9566 44.2259V61.4799L86.343 60.5325L80.559 46.645C80.3725 46.1826 80.2022 45.7142 80.0486 45.2416C80.1088 46.1193 80.1346 46.9879 80.1259 47.844V58.2396L77.6515 57.3427V40.1279Z" fill="white"/>
<path fill-rule="evenodd" clip-rule="evenodd" d="M102.45 46.8878L114.081 52.2506L115.647 51.6499L104.016 46.2871L102.45 46.8878Z" fill="#CA64EA"/>
<path fill-rule="evenodd" clip-rule="evenodd" d="M114.081 52.2511V65.1949L115.647 64.5942V51.6504L114.081 52.2511Z" fill="#CA64EA"/>
<path fill-rule="evenodd" clip-rule="evenodd" d="M114.081 65.1959L102.45 59.8332L104.016 59.2324L115.647 64.5952L114.081 65.1959Z" fill="#CA64EA"/>
<path fill-rule="evenodd" clip-rule="evenodd" d="M102.45 59.8316V46.8878L104.016 46.2871V59.2309L102.45 59.8316Z" fill="#CA64EA"/>
<path fill-rule="evenodd" clip-rule="evenodd" d="M102.45 46.8878L104.016 46.2871L102.45 46.8878Z" fill="#CA64EA"/>
<path d="M102.45 46.8887L114.081 52.2514V65.1952L102.45 59.8325V46.8887Z" fill="#AE4BD5"/>
<path fill-rule="evenodd" clip-rule="evenodd" d="M282.759 133.812L282.774 133.821L284.242 132.999L284.227 132.991L282.759 133.812Z" fill="#FF8F6B"/>
<path fill-rule="evenodd" clip-rule="evenodd" d="M303.94 169.342V169.358L305.408 168.537V168.521L303.94 169.342Z" fill="#FF8F6B"/>
<path fill-rule="evenodd" clip-rule="evenodd" d="M282.774 181.197L282.759 181.189L284.227 180.368L284.242 180.376L282.774 181.197Z" fill="#FF8F6B"/>
<path fill-rule="evenodd" clip-rule="evenodd" d="M261.593 145.67V145.653L263.061 144.832V144.848L261.593 145.67Z" fill="#FF8F6B"/>
<path fill-rule="evenodd" clip-rule="evenodd" d="M282.759 133.812L284.227 132.991L282.759 133.812Z" fill="#FF8F6B"/>
<path fill-rule="evenodd" clip-rule="evenodd" d="M282.774 133.821C294.464 140.36 303.94 156.264 303.94 169.342L305.408 168.521C305.408 155.443 295.932 139.539 284.242 133L282.774 133.821Z" fill="#FF8F6B"/>
<path fill-rule="evenodd" clip-rule="evenodd" d="M303.94 169.359C303.94 175.637 301.757 180.123 298.193 182.367L299.661 181.546C303.225 179.302 305.408 174.816 305.408 168.538L303.94 169.359Z" fill="#FF8F6B"/>
<path fill-rule="evenodd" clip-rule="evenodd" d="M298.194 182.368C294.333 184.799 288.853 184.6 282.774 181.2L284.242 180.379C290.321 183.779 295.801 183.978 299.661 181.547L298.194 182.368Z" fill="#FF8F6B"/>
<path fill-rule="evenodd" clip-rule="evenodd" d="M282.759 181.19C271.07 174.651 261.593 158.747 261.593 145.669L263.061 144.848C263.061 157.926 272.537 173.83 284.227 180.369L282.759 181.19Z" fill="#FF8F6B"/>
<path fill-rule="evenodd" clip-rule="evenodd" d="M261.593 145.653C261.593 139.376 263.777 134.89 267.34 132.645L268.808 131.824C265.244 134.069 263.061 138.555 263.061 144.832L261.593 145.653Z" fill="#FF8F6B"/>
<path fill-rule="evenodd" clip-rule="evenodd" d="M267.34 132.646C271.201 130.214 276.681 130.413 282.759 133.813L284.227 132.992C278.149 129.592 272.668 129.393 268.808 131.825L267.34 132.646Z" fill="#FF8F6B"/>
<path d="M282.759 133.814L282.774 133.822C294.464 140.361 303.94 156.264 303.94 169.343V169.359C303.94 182.438 294.464 187.739 282.774 181.2L282.759 181.192C271.07 174.652 261.593 158.749 261.593 145.67V145.654C261.593 132.575 271.07 127.274 282.759 133.814Z" fill="#D35230"/>
<path fill-rule="evenodd" clip-rule="evenodd" d="M261.593 145.652L282.759 157.493L284.227 156.671L263.061 144.831L261.593 145.652Z" fill="#FF8F6B"/>
<path fill-rule="evenodd" clip-rule="evenodd" d="M282.759 157.492V133.811L284.227 132.99V156.671L282.759 157.492Z" fill="#FF8F6B"/>
<path fill-rule="evenodd" clip-rule="evenodd" d="M282.759 133.811L284.227 132.99L282.759 133.811Z" fill="#FF8F6B"/>
<path fill-rule="evenodd" clip-rule="evenodd" d="M282.759 133.812C277.151 130.692 271.776 130.186 267.81 132.404L269.278 131.583C273.244 129.365 278.618 129.871 284.227 132.991L282.759 133.812Z" fill="#FF8F6B"/>
<path fill-rule="evenodd" clip-rule="evenodd" d="M267.81 132.403C263.844 134.622 261.609 139.385 261.593 145.651L263.061 144.83C263.076 138.564 265.311 133.801 269.278 131.582L267.81 132.403Z" fill="#FF8F6B"/>
<path d="M282.759 133.813C277.151 130.693 271.776 130.187 267.81 132.405C263.844 134.624 261.609 139.387 261.593 145.654L282.759 157.494V133.813Z" fill="#ED6C47"/>
<path fill-rule="evenodd" clip-rule="evenodd" d="M303.98 170.501L282.814 158.661L284.281 157.84L305.448 169.68L303.98 170.501Z" fill="#FF8F6B"/>
<path fill-rule="evenodd" clip-rule="evenodd" d="M282.814 158.661V134.98L284.281 134.159V157.84L282.814 158.661Z" fill="#FF8F6B"/>
<path fill-rule="evenodd" clip-rule="evenodd" d="M282.814 134.98L284.281 134.159L282.814 134.98Z" fill="#FF8F6B"/>
<path fill-rule="evenodd" clip-rule="evenodd" d="M282.814 134.98C288.422 138.135 293.797 143.642 297.763 150.298L299.231 149.477C295.265 142.821 289.89 137.314 284.281 134.159L282.814 134.98Z" fill="#FF8F6B"/>
<path fill-rule="evenodd" clip-rule="evenodd" d="M297.763 150.297C301.729 156.953 303.964 164.216 303.98 170.5L305.448 169.679C305.432 163.395 303.197 156.131 299.231 149.476L297.763 150.297Z" fill="#FF8F6B"/>
<path d="M282.814 134.979C288.422 138.134 293.797 143.642 297.763 150.297C301.729 156.953 303.964 164.217 303.98 170.501L282.814 158.66V134.979Z" fill="#FF8F6B"/>
<path fill-rule="evenodd" clip-rule="evenodd" d="M259.371 135.241L279.231 146.351L280.699 145.53L260.839 134.42L259.371 135.241Z" fill="#FF8F6B"/>
<path fill-rule="evenodd" clip-rule="evenodd" d="M281.213 149.677V171.896L282.681 171.075V148.855L281.213 149.677Z" fill="#FF8F6B"/>
<path fill-rule="evenodd" clip-rule="evenodd" d="M279.231 173.005L259.371 161.895L260.839 161.074L280.699 172.184L279.231 173.005Z" fill="#FF8F6B"/>
<path fill-rule="evenodd" clip-rule="evenodd" d="M257.39 158.569V136.349L258.858 135.528V157.748L257.39 158.569Z" fill="#FF8F6B"/>
<path fill-rule="evenodd" clip-rule="evenodd" d="M259.371 135.241L260.839 134.42L259.371 135.241Z" fill="#FF8F6B"/>
<path fill-rule="evenodd" clip-rule="evenodd" d="M279.231 146.352C280.326 146.965 281.213 148.453 281.213 149.678L282.681 148.857C282.681 147.632 281.794 146.143 280.699 145.531L279.231 146.352Z" fill="#FF8F6B"/>
<path fill-rule="evenodd" clip-rule="evenodd" d="M281.213 171.896C281.213 172.484 281.008 172.904 280.675 173.114L282.143 172.293C282.476 172.083 282.681 171.663 282.681 171.075L281.213 171.896Z" fill="#FF8F6B"/>
<path fill-rule="evenodd" clip-rule="evenodd" d="M280.675 173.114C280.313 173.342 279.8 173.323 279.231 173.005L280.699 172.184C281.268 172.502 281.781 172.521 282.143 172.293L280.675 173.114Z" fill="#FF8F6B"/>
<path fill-rule="evenodd" clip-rule="evenodd" d="M259.371 161.896C258.277 161.283 257.39 159.795 257.39 158.57L258.858 157.749C258.858 158.973 259.745 160.462 260.839 161.075L259.371 161.896Z" fill="#FF8F6B"/>
<path fill-rule="evenodd" clip-rule="evenodd" d="M257.39 136.35C257.39 135.763 257.594 135.343 257.928 135.133L259.396 134.312C259.062 134.522 258.858 134.942 258.858 135.529L257.39 136.35Z" fill="#FF8F6B"/>
<path fill-rule="evenodd" clip-rule="evenodd" d="M257.928 135.133C258.289 134.906 258.802 134.924 259.371 135.243L260.839 134.421C260.27 134.103 259.757 134.084 259.396 134.312L257.928 135.133Z" fill="#FF8F6B"/>
<path d="M259.371 135.242L279.231 146.351C280.326 146.964 281.213 148.452 281.213 149.677V171.896C281.213 173.12 280.326 173.617 279.231 173.005L259.371 161.895C258.277 161.283 257.39 159.794 257.39 158.569V136.35C257.39 135.126 258.277 134.63 259.371 135.242Z" fill="#C43E1C"/>
<path fill-rule="evenodd" clip-rule="evenodd" d="M269.116 156.862L266.679 155.499L268.147 154.678L270.584 156.041L269.116 156.862Z" fill="#FF8F6B"/>
<path fill-rule="evenodd" clip-rule="evenodd" d="M266.679 155.499V160.59L268.147 159.769V154.678L266.679 155.499Z" fill="#FF8F6B"/>
<path fill-rule="evenodd" clip-rule="evenodd" d="M266.679 160.588L264.169 159.183L265.637 158.362L268.147 159.766L266.679 160.588Z" fill="#FF8F6B"/>
<path fill-rule="evenodd" clip-rule="evenodd" d="M264.169 159.185V144.832L265.637 144.011V158.364L264.169 159.185Z" fill="#FF8F6B"/>
<path fill-rule="evenodd" clip-rule="evenodd" d="M264.169 144.832L269.278 147.689L270.745 146.868L265.637 144.011L264.169 144.832Z" fill="#FF8F6B"/>
<path fill-rule="evenodd" clip-rule="evenodd" d="M269.278 147.688L270.745 146.867L269.278 147.688Z" fill="#FF8F6B"/>
<path fill-rule="evenodd" clip-rule="evenodd" d="M266.665 153.338L268.837 154.553L270.305 153.732L268.133 152.517L266.665 153.338Z" fill="#FF8F6B"/>
<path fill-rule="evenodd" clip-rule="evenodd" d="M268.911 149.717L266.679 148.469L268.147 147.647L270.378 148.896L268.911 149.717Z" fill="#FF8F6B"/>
<path fill-rule="evenodd" clip-rule="evenodd" d="M266.679 148.469L266.665 153.338L268.133 152.517L268.147 147.647L266.679 148.469Z" fill="#FF8F6B"/>
<path fill-rule="evenodd" clip-rule="evenodd" d="M266.665 153.338L268.133 152.517L266.665 153.338Z" fill="#FF8F6B"/>
<path fill-rule="evenodd" clip-rule="evenodd" d="M269.278 147.688C270.541 148.298 271.794 149.407 272.815 150.817L274.283 149.996C273.262 148.586 272.009 147.477 270.745 146.867L269.278 147.688Z" fill="#FF8F6B"/>
<path fill-rule="evenodd" clip-rule="evenodd" d="M272.815 150.817C273.224 151.457 273.546 152.146 273.757 152.832L275.225 152.011C275.014 151.324 274.692 150.636 274.283 149.996L272.815 150.817Z" fill="#FF8F6B"/>
<path fill-rule="evenodd" clip-rule="evenodd" d="M273.757 152.831C273.968 153.517 274.062 154.184 274.033 154.782L275.501 153.961C275.53 153.363 275.436 152.696 275.225 152.01L273.757 152.831Z" fill="#FF8F6B"/>
<path fill-rule="evenodd" clip-rule="evenodd" d="M274.033 154.784C274.058 155.678 273.852 156.432 273.44 156.951L274.907 156.13C275.32 155.611 275.526 154.857 275.501 153.963L274.033 154.784Z" fill="#FF8F6B"/>
<path fill-rule="evenodd" clip-rule="evenodd" d="M273.44 156.951C273.275 157.159 273.08 157.326 272.86 157.449L274.327 156.628C274.548 156.504 274.743 156.338 274.907 156.13L273.44 156.951Z" fill="#FF8F6B"/>
<path fill-rule="evenodd" clip-rule="evenodd" d="M272.86 157.449C272.529 157.634 272.142 157.723 271.714 157.707L273.182 156.886C273.61 156.901 273.997 156.813 274.327 156.628L272.86 157.449Z" fill="#FF8F6B"/>
<path fill-rule="evenodd" clip-rule="evenodd" d="M271.714 157.708C270.899 157.668 270.012 157.379 269.116 156.862L270.584 156.041C271.48 156.558 272.367 156.847 273.182 156.887L271.714 157.708Z" fill="#FF8F6B"/>
<path fill-rule="evenodd" clip-rule="evenodd" d="M268.837 154.554C269.52 154.997 270.199 155.155 270.745 154.997L272.213 154.176C271.667 154.334 270.988 154.176 270.305 153.732L268.837 154.554Z" fill="#FF8F6B"/>
<path fill-rule="evenodd" clip-rule="evenodd" d="M270.745 154.997C270.754 154.992 270.763 154.987 270.772 154.982L272.24 154.161C272.231 154.166 272.222 154.171 272.213 154.175L270.745 154.997Z" fill="#FF8F6B"/>
<path fill-rule="evenodd" clip-rule="evenodd" d="M270.772 154.982C270.982 154.864 271.146 154.674 271.253 154.424L272.721 153.603C272.614 153.853 272.45 154.043 272.24 154.16L270.772 154.982Z" fill="#FF8F6B"/>
<path fill-rule="evenodd" clip-rule="evenodd" d="M271.253 154.425C271.365 154.164 271.412 153.844 271.391 153.486L272.859 152.665C272.88 153.022 272.833 153.343 272.721 153.604L271.253 154.425Z" fill="#FF8F6B"/>
<path fill-rule="evenodd" clip-rule="evenodd" d="M271.391 153.486C271.391 151.844 270.569 150.645 268.911 149.718L270.378 148.896C272.037 149.824 272.859 151.023 272.859 152.665L271.391 153.486Z" fill="#FF8F6B"/>
<path d="M269.278 147.69C270.541 148.301 271.794 149.409 272.815 150.819C273.224 151.459 273.546 152.147 273.757 152.834C273.968 153.52 274.062 154.187 274.033 154.785C274.058 155.679 273.852 156.433 273.44 156.952C273.027 157.472 272.427 157.735 271.714 157.708C270.899 157.668 270.012 157.379 269.116 156.862L266.679 155.499V160.59L264.169 159.186V144.833L269.278 147.69ZM266.665 153.34L268.837 154.555C269.52 154.998 270.199 155.156 270.745 154.998C270.968 154.882 271.142 154.687 271.253 154.426C271.365 154.165 271.412 153.845 271.391 153.487C271.391 151.845 270.569 150.646 268.911 149.719L266.679 148.471L266.665 153.34Z" fill="white"/>
<path d="M87.5714 226.629V247.714C87.5714 250.289 88.2028 252.712 89.3 254.857H103.583C105.606 254.857 107.571 252.82 107.571 250.989V223.489L106.769 223.429H90.7714C89.0028 223.429 87.5714 224.86 87.5714 226.629Z" fill="black"/>
<path d="M104.238 214.857H95.7351C96.9523 218.68 100.489 221.466 104.715 221.466C105.718 221.466 106.664 221.269 107.572 220.98V218.192C107.572 216.357 106.072 214.857 104.238 214.857Z" fill="black"/>
<path fill-rule="evenodd" clip-rule="evenodd" d="M127.621 225.791L115.266 223.945L120.266 221.703L132.621 223.549L127.621 225.791Z" fill="#6580E1"/>
<path fill-rule="evenodd" clip-rule="evenodd" d="M115.266 223.945L111.817 226.539L116.817 224.298L120.266 221.703L115.266 223.945Z" fill="#6580E1"/>
<path fill-rule="evenodd" clip-rule="evenodd" d="M111.817 226.539V241.964L116.817 239.722V224.298L111.817 226.539Z" fill="#6580E1"/>
<path fill-rule="evenodd" clip-rule="evenodd" d="M130.409 244.742V229.318L135.409 227.076V242.501L130.409 244.742Z" fill="#6580E1"/>
<path fill-rule="evenodd" clip-rule="evenodd" d="M127.621 225.79L132.621 223.549L127.621 225.79Z" fill="#6580E1"/>
<path fill-rule="evenodd" clip-rule="evenodd" d="M111.817 241.964C111.817 247.691 115.979 252.955 121.113 253.722L126.113 251.48C120.979 250.713 116.817 245.449 116.817 239.723L111.817 241.964Z" fill="#6580E1"/>
<path fill-rule="evenodd" clip-rule="evenodd" d="M121.113 253.721C122.653 253.951 124.106 253.751 125.385 253.202L130.385 250.961C129.106 251.509 127.653 251.71 126.113 251.48L121.113 253.721Z" fill="#6580E1"/>
<path fill-rule="evenodd" clip-rule="evenodd" d="M125.385 253.203C128.37 251.923 130.409 248.751 130.409 244.742L135.409 242.501C135.409 246.51 133.37 249.682 130.385 250.961L125.385 253.203Z" fill="#6580E1"/>
<path fill-rule="evenodd" clip-rule="evenodd" d="M130.409 229.317C130.409 227.601 129.16 226.02 127.621 225.79L132.621 223.549C134.16 223.779 135.409 225.359 135.409 227.076L130.409 229.317Z" fill="#6580E1"/>
<path d="M127.621 225.791L115.266 223.945L111.817 226.54V241.965C111.817 247.691 115.979 252.955 121.113 253.722C126.247 254.489 130.409 250.469 130.409 244.743V229.318C130.409 227.602 129.16 226.021 127.621 225.791Z" fill="#5059C9"/>
<path fill-rule="evenodd" clip-rule="evenodd" d="M128.515 215.034L133.515 212.793L128.515 215.034Z" fill="#6580E1"/>
<path fill-rule="evenodd" clip-rule="evenodd" d="M128.515 215.034C128.515 217.626 127.234 219.692 125.34 220.588L130.34 218.347C132.234 217.451 133.515 215.385 133.515 212.793L128.515 215.034Z" fill="#6580E1"/>
<path fill-rule="evenodd" clip-rule="evenodd" d="M125.341 220.587C124.449 221.009 123.422 221.172 122.329 221.008L127.329 218.767C128.422 218.93 129.449 218.767 130.341 218.346L125.341 220.587Z" fill="#6580E1"/>
<path fill-rule="evenodd" clip-rule="evenodd" d="M122.329 221.009C118.912 220.498 116.143 216.996 116.143 213.185L121.143 210.943C121.143 214.755 123.912 218.257 127.329 218.767L122.329 221.009Z" fill="#6580E1"/>
<path fill-rule="evenodd" clip-rule="evenodd" d="M116.143 213.185C116.143 210.593 117.423 208.527 119.317 207.631L124.317 205.39C122.423 206.286 121.143 208.352 121.143 210.944L116.143 213.185Z" fill="#6580E1"/>
<path fill-rule="evenodd" clip-rule="evenodd" d="M119.317 207.631C120.208 207.21 121.235 207.047 122.329 207.21L127.329 204.969C126.235 204.805 125.208 204.968 124.317 205.39L119.317 207.631Z" fill="#6580E1"/>
<path fill-rule="evenodd" clip-rule="evenodd" d="M122.329 207.21C125.746 207.721 128.515 211.223 128.515 215.034L133.515 212.793C133.515 208.981 130.746 205.479 127.329 204.969L122.329 207.21Z" fill="#6580E1"/>
<path d="M128.515 215.034C128.515 218.845 125.746 221.52 122.329 221.009C118.912 220.498 116.143 216.996 116.143 213.185C116.143 209.374 118.912 206.699 122.329 207.21C125.746 207.721 128.515 211.223 128.515 215.034Z" fill="#5059C9"/>
<path fill-rule="evenodd" clip-rule="evenodd" d="M90.3427 223.843L112.018 227.082L117.018 224.84L95.3427 221.602L90.3427 223.843Z" fill="#6580E1"/>
<path fill-rule="evenodd" clip-rule="evenodd" d="M114.789 230.587V250.954L119.789 248.713V228.346L114.789 230.587Z" fill="#6580E1"/>
<path fill-rule="evenodd" clip-rule="evenodd" d="M87.5714 246.887V226.52L92.5714 224.278V244.646L87.5714 246.887Z" fill="#6580E1"/>
<path fill-rule="evenodd" clip-rule="evenodd" d="M90.3427 223.843L95.3427 221.602L90.3427 223.843Z" fill="#6580E1"/>
<path fill-rule="evenodd" clip-rule="evenodd" d="M112.018 227.081C113.55 227.31 114.789 228.878 114.789 230.586L119.789 228.345C119.789 226.637 118.55 225.069 117.018 224.84L112.018 227.081Z" fill="#6580E1"/>
<path fill-rule="evenodd" clip-rule="evenodd" d="M114.789 250.954C114.789 256.656 111.972 261.201 107.806 263.173L112.806 260.931C116.972 258.959 119.789 254.414 119.789 248.713L114.789 250.954Z" fill="#6580E1"/>
<path fill-rule="evenodd" clip-rule="evenodd" d="M107.806 263.173C105.845 264.101 103.586 264.459 101.18 264.1L106.18 261.858C108.586 262.218 110.845 261.86 112.806 260.932L107.806 263.173Z" fill="#6580E1"/>
<path fill-rule="evenodd" clip-rule="evenodd" d="M101.18 264.099C93.6633 262.976 87.5714 255.271 87.5714 246.887L92.5714 244.646C92.5714 253.03 98.6633 260.735 106.18 261.858L101.18 264.099Z" fill="#6580E1"/>
<path fill-rule="evenodd" clip-rule="evenodd" d="M87.5714 226.52C87.5714 225.358 88.1446 224.433 88.9931 224.031L93.9931 221.79C93.1446 222.191 92.5714 223.117 92.5714 224.278L87.5714 226.52Z" fill="#6580E1"/>
<path fill-rule="evenodd" clip-rule="evenodd" d="M88.993 224.031C89.3923 223.842 89.8525 223.769 90.3427 223.843L95.3427 221.601C94.8525 221.528 94.3923 221.601 93.993 221.79L88.993 224.031Z" fill="#6580E1"/>
<path d="M90.3427 223.842L112.018 227.081C113.55 227.31 114.789 228.878 114.789 230.586V250.954C114.789 259.338 108.697 265.222 101.18 264.099C93.6633 262.976 87.5714 255.271 87.5714 246.887V226.519C87.5714 224.811 88.8111 223.614 90.3427 223.842Z" fill="#7B83EB"/>
<path fill-rule="evenodd" clip-rule="evenodd" d="M111.644 214.128L116.644 211.887L111.644 214.128Z" fill="#6580E1"/>
<path fill-rule="evenodd" clip-rule="evenodd" d="M111.644 214.128C111.644 217.562 109.948 220.3 107.438 221.488L112.438 219.247C114.948 218.059 116.644 215.321 116.644 211.887L111.644 214.128Z" fill="#6580E1"/>
<path fill-rule="evenodd" clip-rule="evenodd" d="M107.438 221.488C106.257 222.047 104.896 222.262 103.447 222.046L108.447 219.804C109.896 220.021 111.257 219.805 112.438 219.246L107.438 221.488Z" fill="#6580E1"/>
<path fill-rule="evenodd" clip-rule="evenodd" d="M103.447 222.046C98.9188 221.37 95.2468 216.728 95.2468 211.678L100.247 209.437C100.247 214.487 103.919 219.128 108.447 219.805L103.447 222.046Z" fill="#6580E1"/>
<path fill-rule="evenodd" clip-rule="evenodd" d="M95.2468 211.677C95.2468 208.243 96.9447 205.505 99.4552 204.318L104.455 202.076C101.945 203.264 100.247 206.002 100.247 209.436L95.2468 211.677Z" fill="#6580E1"/>
<path fill-rule="evenodd" clip-rule="evenodd" d="M99.4552 204.318C100.637 203.759 101.998 203.543 103.447 203.76L108.447 201.518C106.998 201.302 105.637 201.518 104.455 202.076L99.4552 204.318Z" fill="#6580E1"/>
<path fill-rule="evenodd" clip-rule="evenodd" d="M103.447 203.76C107.975 204.437 111.644 209.078 111.644 214.128L116.644 211.887C116.644 206.836 112.975 202.195 108.447 201.519L103.447 203.76Z" fill="#6580E1"/>
<path d="M111.644 214.129C111.644 219.179 107.975 222.724 103.447 222.047C98.9188 221.37 95.2468 216.729 95.2468 211.678C95.2468 206.628 98.9188 203.084 103.447 203.761C107.975 204.437 111.644 209.078 111.644 214.129Z" fill="#7B83EB"/>
<path fill-rule="evenodd" clip-rule="evenodd" d="M90.3752 256.74L66.3965 247.322L69.1751 246.151L93.1538 255.57L90.3752 256.74Z" fill="#6580E1"/>
<path fill-rule="evenodd" clip-rule="evenodd" d="M64 243.335V212.885L66.7786 211.715V242.165L64 243.335Z" fill="#6580E1"/>
<path fill-rule="evenodd" clip-rule="evenodd" d="M66.3965 210.78L90.3752 220.198L93.1538 219.028L69.1751 209.609L66.3965 210.78Z" fill="#6580E1"/>
<path fill-rule="evenodd" clip-rule="evenodd" d="M92.7737 224.187V254.637L95.5523 253.466V223.017L92.7737 224.187Z" fill="#6580E1"/>
<path fill-rule="evenodd" clip-rule="evenodd" d="M90.3751 256.741L93.1538 255.57L90.3751 256.741Z" fill="#6580E1"/>
<path fill-rule="evenodd" clip-rule="evenodd" d="M66.3964 247.322C65.079 246.804 64 245.01 64 243.334L66.7786 242.164C66.7786 243.84 67.8576 245.634 69.1751 246.151L66.3964 247.322Z" fill="#6580E1"/>
<path fill-rule="evenodd" clip-rule="evenodd" d="M64 212.885C64 211.813 64.442 211.039 65.1055 210.756L67.8842 209.586C67.2206 209.868 66.7786 210.642 66.7786 211.715L64 212.885Z" fill="#6580E1"/>
<path fill-rule="evenodd" clip-rule="evenodd" d="M65.1055 210.757C65.4787 210.598 65.9221 210.594 66.3964 210.781L69.175 209.61C68.7007 209.424 68.2574 209.427 67.8841 209.586L65.1055 210.757Z" fill="#6580E1"/>
<path fill-rule="evenodd" clip-rule="evenodd" d="M90.3751 220.199C91.6946 220.717 92.7736 222.511 92.7736 224.187L95.5522 223.016C95.5522 221.341 94.4732 219.547 93.1538 219.028L90.3751 220.199Z" fill="#6580E1"/>
<path fill-rule="evenodd" clip-rule="evenodd" d="M92.7735 254.636C92.7735 255.709 92.3316 256.482 91.6675 256.765L94.4461 255.594C95.1102 255.312 95.5522 254.538 95.5522 253.466L92.7735 254.636Z" fill="#6580E1"/>
<path fill-rule="evenodd" clip-rule="evenodd" d="M91.6675 256.765C91.294 256.924 90.8501 256.927 90.3751 256.741L93.1538 255.57C93.6288 255.757 94.0726 255.754 94.4462 255.595L91.6675 256.765Z" fill="#6580E1"/>
<path d="M90.3751 256.74L66.3964 247.322C65.079 246.805 64 245.01 64 243.335V212.885C64 211.209 65.079 210.263 66.3964 210.78L90.3751 220.199C91.6946 220.717 92.7736 222.511 92.7736 224.187V254.636C92.7736 256.312 91.6946 257.259 90.3751 256.74Z" fill="#4B53BC"/>
<path fill-rule="evenodd" clip-rule="evenodd" d="M84.0735 230.546L79.1635 228.618L79.8581 228.325L84.7681 230.254L84.0735 230.546Z" fill="#E0D4D1"/>
<path fill-rule="evenodd" clip-rule="evenodd" d="M79.1635 228.618V245.38L79.8581 245.087V228.325L79.1635 228.618Z" fill="#E0D4D1"/>
<path fill-rule="evenodd" clip-rule="evenodd" d="M79.1635 245.38L75.9368 244.113L76.6314 243.82L79.8582 245.088L79.1635 245.38Z" fill="#E0D4D1"/>
<path fill-rule="evenodd" clip-rule="evenodd" d="M75.9368 244.113V227.351L76.6314 227.059V243.821L75.9368 244.113Z" fill="#E0D4D1"/>
<path fill-rule="evenodd" clip-rule="evenodd" d="M75.9367 227.351L71 225.412L71.6947 225.119L76.6314 227.058L75.9367 227.351Z" fill="#E0D4D1"/>
<path fill-rule="evenodd" clip-rule="evenodd" d="M71 225.411V221.293L71.6947 221V225.119L71 225.411Z" fill="#E0D4D1"/>
<path fill-rule="evenodd" clip-rule="evenodd" d="M71 221.293L84.0735 226.428L84.7681 226.135L71.6947 221L71 221.293Z" fill="#E0D4D1"/>
<path fill-rule="evenodd" clip-rule="evenodd" d="M84.0735 226.428V230.547L84.7681 230.255V226.136L84.0735 226.428Z" fill="#E0D4D1"/>
<path fill-rule="evenodd" clip-rule="evenodd" d="M84.0735 230.546L84.7681 230.254L84.0735 230.546Z" fill="#E0D4D1"/>
<path d="M84.0735 230.547L79.1635 228.618V245.38L75.9367 244.113V227.351L71 225.412V221.293L84.0735 226.428V230.547Z" fill="white"/>
<defs>
<linearGradient id="paint0_linear_0_1" x1="223.913" y1="197.258" x2="272.077" y2="238.55" gradientUnits="userSpaceOnUse">
<stop stop-color="white" stop-opacity="0.5"/>
<stop offset="1" stop-opacity="0.7"/>
</linearGradient>
<linearGradient id="paint1_linear_0_1" x1="244.81" y1="208.756" x2="204.505" y2="226.574" gradientUnits="userSpaceOnUse">
<stop stop-color="#35B8F1"/>
<stop offset="0.9" stop-color="#0F78D1"/>
</linearGradient>
<linearGradient id="paint2_linear_0_1" x1="234.528" y1="220.807" x2="234.528" y2="266.999" gradientUnits="userSpaceOnUse">
<stop stop-color="#35B8F1"/>
<stop offset="1" stop-color="#28A8EA"/>
</linearGradient>
</defs>
</svg>