<svg width="297" height="310" viewBox="0 0 297 310" fill="none" xmlns="http://www.w3.org/2000/svg">
<g filter="url(#filter0_ddi_746_1890)">
<rect x="7" y="139.356" width="197.079" height="203.851" rx="30.6486" transform="rotate(-45 7 139.356)" fill="url(#paint0_linear_746_1890)"/>
</g>
<g filter="url(#filter1_d_746_1890)">
<g filter="url(#filter2_d_746_1890)">
<path d="M120.948 170.701L96.109 180.401C94.7154 180.945 93.3997 181.671 92.1964 182.56L78.3309 192.806C75.8516 194.638 75.8923 198.359 78.4111 200.137C80.1703 201.378 82.5609 201.207 84.1251 199.727L95.1194 189.328C97.7553 186.835 101.045 185.142 104.606 184.445L124.841 180.488L120.948 170.701Z" fill="#27272A"/>
</g>
<g filter="url(#filter3_i_746_1890)">
<ellipse cx="5.26774" cy="5.26633" rx="5.26774" ry="5.26633" transform="matrix(-0.929194 0.369593 0.369597 0.929192 83.7685 189.823)" fill="#777373"/>
</g>
<g filter="url(#filter4_i_746_1890)">
<path d="M184.666 141.75H252.189C255.098 141.75 257.457 144.108 257.457 147.017C257.457 149.927 255.098 152.285 252.189 152.285H184.666V141.75Z" fill="#27272A"/>
</g>
<g filter="url(#filter5_i_746_1890)">
<circle cx="252.189" cy="147.017" r="5.26774" fill="#777373"/>
</g>
<g filter="url(#filter6_d_746_1890)">
<path d="M111.876 152.285H44.3531C41.4438 152.285 39.0854 149.927 39.0854 147.017C39.0854 144.108 41.4438 141.75 44.3531 141.75H111.876V152.285Z" fill="#27272A"/>
</g>
<g filter="url(#filter7_i_746_1890)">
<circle cx="44.3531" cy="147.017" r="5.26774" transform="rotate(-180 44.3531 147.017)" fill="#777373"/>
</g>
<g filter="url(#filter8_i_746_1890)">
<path d="M153.537 192.608L153.107 239.929C153.081 242.838 150.701 245.175 147.792 245.148C144.883 245.122 142.546 242.742 142.572 239.833L143.002 192.512L153.537 192.608Z" fill="#27272A"/>
</g>
<g filter="url(#filter9_i_746_1890)">
<circle cx="147.84" cy="239.881" r="5.26774" transform="rotate(90.5206 147.84 239.881)" fill="#777373"/>
</g>
<g filter="url(#filter10_d_746_1890)">
<path d="M142.525 101.435L142.955 54.1144C142.981 51.2053 145.361 48.8684 148.27 48.8948C151.179 48.9212 153.516 51.301 153.49 54.2102L153.06 101.531L142.525 101.435Z" fill="#27272A"/>
</g>
<g filter="url(#filter11_i_746_1890)">
<circle cx="148.222" cy="54.1619" r="5.26774" transform="rotate(-89.4794 148.222 54.1619)" fill="#777373"/>
</g>
<g filter="url(#filter12_d_746_1890)">
<g filter="url(#filter13_d_746_1890)">
<path d="M172.45 170.517L197.289 180.216C198.684 180.76 200 181.487 201.204 182.376L215.068 192.622C217.548 194.454 217.507 198.176 214.988 199.954C213.229 201.196 210.837 201.025 209.272 199.544L198.28 189.146C195.644 186.652 192.353 184.959 188.791 184.262L168.557 180.307L172.45 170.517Z" fill="#27272A"/>
</g>
<g filter="url(#filter14_i_746_1890)">
<circle cx="212.579" cy="196.48" r="5.26774" transform="rotate(21.6886 212.579 196.48)" fill="#777373"/>
</g>
</g>
<g filter="url(#filter15_i_746_1890)">
<path d="M181.053 114.647L202.128 98.3107C203.311 97.3937 204.61 96.6371 205.991 96.0608L221.901 89.4228C224.747 88.2357 227.92 90.1812 228.152 93.2555C228.315 95.4033 226.94 97.3677 224.867 97.9506L210.3 102.045C206.806 103.027 203.664 104.982 201.238 107.681L187.455 123.014L181.053 114.647Z" fill="#27272A"/>
</g>
<g filter="url(#filter16_i_746_1890)">
<circle cx="223.934" cy="93.5399" r="5.26774" transform="rotate(-37.4212 223.934 93.5399)" fill="#777373"/>
</g>
<g filter="url(#filter17_d_746_1890)">
<path d="M111.962 114.646L90.8856 98.3098C89.703 97.3932 88.4045 96.637 87.0237 96.0608L71.1131 89.422C68.2681 88.2349 65.0954 90.1804 64.8632 93.2544C64.7011 95.4014 66.0754 97.3649 68.1481 97.9477L82.7164 102.044C86.2092 103.026 89.3513 104.98 91.7769 107.678L105.562 123.011L111.962 114.646Z" fill="#27272A"/>
</g>
<g filter="url(#filter18_i_746_1890)">
<ellipse cx="5.26774" cy="5.26633" rx="5.26774" ry="5.26633" transform="matrix(-0.794208 -0.607646 -0.607642 0.794211 76.4645 92.5562)" fill="#777373"/>
</g>
<g clip-path="url(#clip0_746_1890)" filter="url(#filter19_i_746_1890)">
<path d="M145.645 154.759C145.258 152.183 144.882 150.026 144.44 147.496C146.361 147.496 147.921 147.496 150.187 147.496C149.815 150.128 149.805 152.981 148.951 155.48C148.079 158.03 146.619 157.323 145.645 154.759Z" fill="#D9D9D9"/>
<ellipse cx="147.313" cy="147.017" rx="2.87331" ry="3.3522" fill="#CACAD3"/>
<path d="M158.725 130.018L159.285 134.567L158.725 137.914C164.612 136.482 164.786 139.722 164.612 143.816C164.376 149.386 164.429 154.977 164.603 160.551C164.697 163.583 163.783 164.853 160.555 164.793C151.79 164.628 143.017 164.597 134.254 164.805C130.716 164.888 129.917 163.421 130.022 160.254C130.207 154.681 130.07 149.097 130.075 143.517C130.079 138.145 130.083 138.145 135.893 137.612C134.93 130.849 136.426 124.79 143.741 122.724C150.441 120.831 157.849 125.468 158.725 130.018ZM155.359 141.75C148.25 141.75 141.141 141.75 134.216 141.75C134.216 148.508 134.216 154.645 134.216 160.593C143.218 160.593 151.908 160.593 160.577 160.593C160.577 154.259 160.577 148.239 160.577 141.75C159.072 141.75 157.683 141.75 155.359 141.75ZM139.677 135.884C140.13 137.919 138.693 138.398 141.367 137.824C145.863 137.988 150.368 137.914 155.838 137.914C154.976 136.003 153.255 129.786 151.144 127.862C146.716 123.824 141.718 127.883 139.677 135.884Z" fill="#CACAD3"/>
<path d="M143.908 197.3C141.429 195.402 139.519 193.311 137.296 191.639C129.689 185.918 123.467 178.926 118.563 170.855C112.117 160.243 107.428 148.893 106.165 136.399C105.628 131.084 105.51 125.726 105.163 120.391C104.99 117.719 105.505 116.468 108.782 115.696C120.002 113.052 130.65 108.756 139.93 101.816C144.461 101.523 149.271 101.523 154.528 101.523C158.249 103.755 161.265 106.62 164.851 108.086C172.204 111.092 179.893 113.269 187.361 116.012C188.311 116.361 189.323 118.024 189.372 119.121C190.32 140.214 184.522 159.463 171.616 176.028C165.621 183.723 157.661 189.888 150.868 197.024C148.874 197.3 146.604 197.3 143.908 197.3ZM138.741 186.358C140.112 187.372 141.583 188.278 142.837 189.421C146.127 192.421 149.29 191.827 152.183 189.032C157.253 184.133 162.663 179.475 167.068 174.02C178.729 159.578 184.036 142.69 184.648 124.251C184.714 122.265 184.947 120.619 182.063 119.573C172.414 116.074 163.059 111.765 153.414 108.257C150.338 107.138 146.33 106.449 143.396 107.454C132.686 111.124 122.226 115.534 111.754 119.864C110.846 120.24 110.032 122.091 110.054 123.239C110.129 127.15 110.43 131.075 110.95 134.954C112.354 145.406 115.69 155.204 120.683 164.537C125.142 172.873 131.625 179.392 138.741 186.358Z" fill="#27272A"/>
</g>
</g>
<defs>
<filter id="filter0_ddi_746_1890" x="-12.1554" y="0" width="321.811" height="321.811" filterUnits="userSpaceOnUse" color-interpolation-filters="sRGB">
<feFlood flood-opacity="0" result="BackgroundImageFix"/>
<feColorMatrix in="SourceAlpha" type="matrix" values="0 0 0 0 0 0 0 0 0 0 0 0 0 0 0 0 0 0 127 0" result="hardAlpha"/>
<feMorphology radius="4.78885" operator="erode" in="SourceAlpha" result="effect1_dropShadow_746_1890"/>
<feOffset dy="9.5777"/>
<feGaussianBlur stdDeviation="4.78885"/>
<feComposite in2="hardAlpha" operator="out"/>
<feColorMatrix type="matrix" values="0 0 0 0 0 0 0 0 0 0 0 0 0 0 0 0 0 0 0.9 0"/>
<feBlend mode="normal" in2="BackgroundImageFix" result="effect1_dropShadow_746_1890"/>
<feColorMatrix in="SourceAlpha" type="matrix" values="0 0 0 0 0 0 0 0 0 0 0 0 0 0 0 0 0 0 127 0" result="hardAlpha"/>
<feMorphology radius="4.78885" operator="erode" in="SourceAlpha" result="effect2_dropShadow_746_1890"/>
<feOffset dy="19.1554"/>
<feGaussianBlur stdDeviation="11.9721"/>
<feComposite in2="hardAlpha" operator="out"/>
<feColorMatrix type="matrix" values="0 0 0 0 0 0 0 0 0 0 0 0 0 0 0 0 0 0 0.8 0"/>
<feBlend mode="normal" in2="effect1_dropShadow_746_1890" result="effect2_dropShadow_746_1890"/>
<feBlend mode="normal" in="SourceGraphic" in2="effect2_dropShadow_746_1890" result="shape"/>
<feColorMatrix in="SourceAlpha" type="matrix" values="0 0 0 0 0 0 0 0 0 0 0 0 0 0 0 0 0 0 127 0" result="hardAlpha"/>
<feOffset dy="0.95777"/>
<feGaussianBlur stdDeviation="0.95777"/>
<feComposite in2="hardAlpha" operator="arithmetic" k2="-1" k3="1"/>
<feColorMatrix type="matrix" values="0 0 0 0 0.321569 0 0 0 0 0.317647 0 0 0 0 0.329412 0 0 0 1 0"/>
<feBlend mode="normal" in2="shape" result="effect3_innerShadow_746_1890"/>
</filter>
<filter id="filter1_d_746_1890" x="34.2965" y="48.8943" width="226.991" height="203.964" filterUnits="userSpaceOnUse" color-interpolation-filters="sRGB">
<feFlood flood-opacity="0" result="BackgroundImageFix"/>
<feColorMatrix in="SourceAlpha" type="matrix" values="0 0 0 0 0 0 0 0 0 0 0 0 0 0 0 0 0 0 127 0" result="hardAlpha"/>
<feOffset dy="3.83108"/>
<feGaussianBlur stdDeviation="1.91554"/>
<feColorMatrix type="matrix" values="0 0 0 0 0 0 0 0 0 0 0 0 0 0 0 0 0 0 0.25 0"/>
<feBlend mode="normal" in2="BackgroundImageFix" result="effect1_dropShadow_746_1890"/>
<feBlend mode="normal" in="SourceGraphic" in2="effect1_dropShadow_746_1890" result="shape"/>
</filter>
<filter id="filter2_d_746_1890" x="72.6654" y="170.701" width="56.007" height="37.9249" filterUnits="userSpaceOnUse" color-interpolation-filters="sRGB">
<feFlood flood-opacity="0" result="BackgroundImageFix"/>
<feColorMatrix in="SourceAlpha" type="matrix" values="0 0 0 0 0 0 0 0 0 0 0 0 0 0 0 0 0 0 127 0" result="hardAlpha"/>
<feOffset dy="3.83108"/>
<feGaussianBlur stdDeviation="1.91554"/>
<feComposite in2="hardAlpha" operator="out"/>
<feColorMatrix type="matrix" values="0 0 0 0 0 0 0 0 0 0 0 0 0 0 0 0 0 0 0.25 0"/>
<feBlend mode="normal" in2="BackgroundImageFix" result="effect1_dropShadow_746_1890"/>
<feBlend mode="normal" in="SourceGraphic" in2="effect1_dropShadow_746_1890" result="shape"/>
</filter>
<filter id="filter3_i_746_1890" x="75.5512" y="191.395" width="10.5379" height="14.3667" filterUnits="userSpaceOnUse" color-interpolation-filters="sRGB">
<feFlood flood-opacity="0" result="BackgroundImageFix"/>
<feBlend mode="normal" in="SourceGraphic" in2="BackgroundImageFix" result="shape"/>
<feColorMatrix in="SourceAlpha" type="matrix" values="0 0 0 0 0 0 0 0 0 0 0 0 0 0 0 0 0 0 127 0" result="hardAlpha"/>
<feOffset dy="3.83108"/>
<feGaussianBlur stdDeviation="1.91554"/>
<feComposite in2="hardAlpha" operator="arithmetic" k2="-1" k3="1"/>
<feColorMatrix type="matrix" values="0 0 0 0 0 0 0 0 0 0 0 0 0 0 0 0 0 0 0.25 0"/>
<feBlend mode="normal" in2="shape" result="effect1_innerShadow_746_1890"/>
</filter>
<filter id="filter4_i_746_1890" x="184.666" y="141.75" width="72.7905" height="14.3665" filterUnits="userSpaceOnUse" color-interpolation-filters="sRGB">
<feFlood flood-opacity="0" result="BackgroundImageFix"/>
<feBlend mode="normal" in="SourceGraphic" in2="BackgroundImageFix" result="shape"/>
<feColorMatrix in="SourceAlpha" type="matrix" values="0 0 0 0 0 0 0 0 0 0 0 0 0 0 0 0 0 0 127 0" result="hardAlpha"/>
<feOffset dy="3.83108"/>
<feGaussianBlur stdDeviation="1.91554"/>
<feComposite in2="hardAlpha" operator="arithmetic" k2="-1" k3="1"/>
<feColorMatrix type="matrix" values="0 0 0 0 0 0 0 0 0 0 0 0 0 0 0 0 0 0 0.25 0"/>
<feBlend mode="normal" in2="shape" result="effect1_innerShadow_746_1890"/>
</filter>
<filter id="filter5_i_746_1890" x="246.921" y="141.75" width="10.5355" height="14.3665" filterUnits="userSpaceOnUse" color-interpolation-filters="sRGB">
<feFlood flood-opacity="0" result="BackgroundImageFix"/>
<feBlend mode="normal" in="SourceGraphic" in2="BackgroundImageFix" result="shape"/>
<feColorMatrix in="SourceAlpha" type="matrix" values="0 0 0 0 0 0 0 0 0 0 0 0 0 0 0 0 0 0 127 0" result="hardAlpha"/>
<feOffset dy="3.83108"/>
<feGaussianBlur stdDeviation="1.91554"/>
<feComposite in2="hardAlpha" operator="arithmetic" k2="-1" k3="1"/>
<feColorMatrix type="matrix" values="0 0 0 0 0 0 0 0 0 0 0 0 0 0 0 0 0 0 0.25 0"/>
<feBlend mode="normal" in2="shape" result="effect1_innerShadow_746_1890"/>
</filter>
<filter id="filter6_d_746_1890" x="35.2543" y="141.75" width="80.4527" height="18.1976" filterUnits="userSpaceOnUse" color-interpolation-filters="sRGB">
<feFlood flood-opacity="0" result="BackgroundImageFix"/>
<feColorMatrix in="SourceAlpha" type="matrix" values="0 0 0 0 0 0 0 0 0 0 0 0 0 0 0 0 0 0 127 0" result="hardAlpha"/>
<feOffset dy="3.83108"/>
<feGaussianBlur stdDeviation="1.91554"/>
<feComposite in2="hardAlpha" operator="out"/>
<feColorMatrix type="matrix" values="0 0 0 0 0 0 0 0 0 0 0 0 0 0 0 0 0 0 0.25 0"/>
<feBlend mode="normal" in2="BackgroundImageFix" result="effect1_dropShadow_746_1890"/>
<feBlend mode="normal" in="SourceGraphic" in2="effect1_dropShadow_746_1890" result="shape"/>
</filter>
<filter id="filter7_i_746_1890" x="39.0854" y="141.75" width="10.5355" height="14.3665" filterUnits="userSpaceOnUse" color-interpolation-filters="sRGB">
<feFlood flood-opacity="0" result="BackgroundImageFix"/>
<feBlend mode="normal" in="SourceGraphic" in2="BackgroundImageFix" result="shape"/>
<feColorMatrix in="SourceAlpha" type="matrix" values="0 0 0 0 0 0 0 0 0 0 0 0 0 0 0 0 0 0 127 0" result="hardAlpha"/>
<feOffset dy="3.83108"/>
<feGaussianBlur stdDeviation="1.91554"/>
<feComposite in2="hardAlpha" operator="arithmetic" k2="-1" k3="1"/>
<feColorMatrix type="matrix" values="0 0 0 0 0 0 0 0 0 0 0 0 0 0 0 0 0 0 0.25 0"/>
<feBlend mode="normal" in2="shape" result="effect1_innerShadow_746_1890"/>
</filter>
<filter id="filter8_i_746_1890" x="142.572" y="192.512" width="10.9653" height="56.4676" filterUnits="userSpaceOnUse" color-interpolation-filters="sRGB">
<feFlood flood-opacity="0" result="BackgroundImageFix"/>
<feBlend mode="normal" in="SourceGraphic" in2="BackgroundImageFix" result="shape"/>
<feColorMatrix in="SourceAlpha" type="matrix" values="0 0 0 0 0 0 0 0 0 0 0 0 0 0 0 0 0 0 127 0" result="hardAlpha"/>
<feOffset dy="3.83108"/>
<feGaussianBlur stdDeviation="1.91554"/>
<feComposite in2="hardAlpha" operator="arithmetic" k2="-1" k3="1"/>
<feColorMatrix type="matrix" values="0 0 0 0 0 0 0 0 0 0 0 0 0 0 0 0 0 0 0.25 0"/>
<feBlend mode="normal" in2="shape" result="effect1_innerShadow_746_1890"/>
</filter>
<filter id="filter9_i_746_1890" x="142.572" y="234.613" width="10.5355" height="14.3665" filterUnits="userSpaceOnUse" color-interpolation-filters="sRGB">
<feFlood flood-opacity="0" result="BackgroundImageFix"/>
<feBlend mode="normal" in="SourceGraphic" in2="BackgroundImageFix" result="shape"/>
<feColorMatrix in="SourceAlpha" type="matrix" values="0 0 0 0 0 0 0 0 0 0 0 0 0 0 0 0 0 0 127 0" result="hardAlpha"/>
<feOffset dy="3.83108"/>
<feGaussianBlur stdDeviation="1.91554"/>
<feComposite in2="hardAlpha" operator="arithmetic" k2="-1" k3="1"/>
<feColorMatrix type="matrix" values="0 0 0 0 0 0 0 0 0 0 0 0 0 0 0 0 0 0 0.25 0"/>
<feBlend mode="normal" in2="shape" result="effect1_innerShadow_746_1890"/>
</filter>
<filter id="filter10_d_746_1890" x="138.693" y="48.8945" width="18.6274" height="60.2986" filterUnits="userSpaceOnUse" color-interpolation-filters="sRGB">
<feFlood flood-opacity="0" result="BackgroundImageFix"/>
<feColorMatrix in="SourceAlpha" type="matrix" values="0 0 0 0 0 0 0 0 0 0 0 0 0 0 0 0 0 0 127 0" result="hardAlpha"/>
<feOffset dy="3.83108"/>
<feGaussianBlur stdDeviation="1.91554"/>
<feComposite in2="hardAlpha" operator="out"/>
<feColorMatrix type="matrix" values="0 0 0 0 0 0 0 0 0 0 0 0 0 0 0 0 0 0 0.25 0"/>
<feBlend mode="normal" in2="BackgroundImageFix" result="effect1_dropShadow_746_1890"/>
<feBlend mode="normal" in="SourceGraphic" in2="effect1_dropShadow_746_1890" result="shape"/>
</filter>
<filter id="filter11_i_746_1890" x="142.954" y="48.8943" width="10.5355" height="14.3665" filterUnits="userSpaceOnUse" color-interpolation-filters="sRGB">
<feFlood flood-opacity="0" result="BackgroundImageFix"/>
<feBlend mode="normal" in="SourceGraphic" in2="BackgroundImageFix" result="shape"/>
<feColorMatrix in="SourceAlpha" type="matrix" values="0 0 0 0 0 0 0 0 0 0 0 0 0 0 0 0 0 0 127 0" result="hardAlpha"/>
<feOffset dy="3.83108"/>
<feGaussianBlur stdDeviation="1.91554"/>
<feComposite in2="hardAlpha" operator="arithmetic" k2="-1" k3="1"/>
<feColorMatrix type="matrix" values="0 0 0 0 0 0 0 0 0 0 0 0 0 0 0 0 0 0 0.25 0"/>
<feBlend mode="normal" in2="shape" result="effect1_innerShadow_746_1890"/>
</filter>
<filter id="filter12_d_746_1890" x="164.726" y="170.518" width="56.9533" height="38.8936" filterUnits="userSpaceOnUse" color-interpolation-filters="sRGB">
<feFlood flood-opacity="0" result="BackgroundImageFix"/>
<feColorMatrix in="SourceAlpha" type="matrix" values="0 0 0 0 0 0 0 0 0 0 0 0 0 0 0 0 0 0 127 0" result="hardAlpha"/>
<feOffset dy="3.83108"/>
<feGaussianBlur stdDeviation="1.91554"/>
<feComposite in2="hardAlpha" operator="out"/>
<feColorMatrix type="matrix" values="0 0 0 0 0 0 0 0 0 0 0 0 0 0 0 0 0 0 0.25 0"/>
<feBlend mode="normal" in2="BackgroundImageFix" result="effect1_dropShadow_746_1890"/>
<feBlend mode="normal" in="SourceGraphic" in2="effect1_dropShadow_746_1890" result="shape"/>
</filter>
<filter id="filter13_d_746_1890" x="164.726" y="170.518" width="56.0082" height="37.9261" filterUnits="userSpaceOnUse" color-interpolation-filters="sRGB">
<feFlood flood-opacity="0" result="BackgroundImageFix"/>
<feColorMatrix in="SourceAlpha" type="matrix" values="0 0 0 0 0 0 0 0 0 0 0 0 0 0 0 0 0 0 127 0" result="hardAlpha"/>
<feOffset dy="3.83108"/>
<feGaussianBlur stdDeviation="1.91554"/>
<feComposite in2="hardAlpha" operator="out"/>
<feColorMatrix type="matrix" values="0 0 0 0 0 0 0 0 0 0 0 0 0 0 0 0 0 0 0.25 0"/>
<feBlend mode="normal" in2="BackgroundImageFix" result="effect1_dropShadow_746_1890"/>
<feBlend mode="normal" in="SourceGraphic" in2="effect1_dropShadow_746_1890" result="shape"/>
</filter>
<filter id="filter14_i_746_1890" x="207.31" y="191.211" width="10.5383" height="14.3692" filterUnits="userSpaceOnUse" color-interpolation-filters="sRGB">
<feFlood flood-opacity="0" result="BackgroundImageFix"/>
<feBlend mode="normal" in="SourceGraphic" in2="BackgroundImageFix" result="shape"/>
<feColorMatrix in="SourceAlpha" type="matrix" values="0 0 0 0 0 0 0 0 0 0 0 0 0 0 0 0 0 0 127 0" result="hardAlpha"/>
<feOffset dy="3.83108"/>
<feGaussianBlur stdDeviation="1.91554"/>
<feComposite in2="hardAlpha" operator="arithmetic" k2="-1" k3="1"/>
<feColorMatrix type="matrix" values="0 0 0 0 0 0 0 0 0 0 0 0 0 0 0 0 0 0 0.25 0"/>
<feBlend mode="normal" in2="shape" result="effect1_innerShadow_746_1890"/>
</filter>
<filter id="filter15_i_746_1890" x="181.053" y="89.0703" width="47.1126" height="37.7752" filterUnits="userSpaceOnUse" color-interpolation-filters="sRGB">
<feFlood flood-opacity="0" result="BackgroundImageFix"/>
<feBlend mode="normal" in="SourceGraphic" in2="BackgroundImageFix" result="shape"/>
<feColorMatrix in="SourceAlpha" type="matrix" values="0 0 0 0 0 0 0 0 0 0 0 0 0 0 0 0 0 0 127 0" result="hardAlpha"/>
<feOffset dy="3.83108"/>
<feGaussianBlur stdDeviation="1.91554"/>
<feComposite in2="hardAlpha" operator="arithmetic" k2="-1" k3="1"/>
<feColorMatrix type="matrix" values="0 0 0 0 0 0 0 0 0 0 0 0 0 0 0 0 0 0 0.25 0"/>
<feBlend mode="normal" in2="shape" result="effect1_innerShadow_746_1890"/>
</filter>
<filter id="filter16_i_746_1890" x="218.666" y="88.272" width="10.536" height="14.367" filterUnits="userSpaceOnUse" color-interpolation-filters="sRGB">
<feFlood flood-opacity="0" result="BackgroundImageFix"/>
<feBlend mode="normal" in="SourceGraphic" in2="BackgroundImageFix" result="shape"/>
<feColorMatrix in="SourceAlpha" type="matrix" values="0 0 0 0 0 0 0 0 0 0 0 0 0 0 0 0 0 0 127 0" result="hardAlpha"/>
<feOffset dy="3.83108"/>
<feGaussianBlur stdDeviation="1.91554"/>
<feComposite in2="hardAlpha" operator="arithmetic" k2="-1" k3="1"/>
<feColorMatrix type="matrix" values="0 0 0 0 0 0 0 0 0 0 0 0 0 0 0 0 0 0 0.25 0"/>
<feBlend mode="normal" in2="shape" result="effect1_innerShadow_746_1890"/>
</filter>
<filter id="filter17_d_746_1890" x="61.0192" y="89.0696" width="54.7735" height="41.6038" filterUnits="userSpaceOnUse" color-interpolation-filters="sRGB">
<feFlood flood-opacity="0" result="BackgroundImageFix"/>
<feColorMatrix in="SourceAlpha" type="matrix" values="0 0 0 0 0 0 0 0 0 0 0 0 0 0 0 0 0 0 127 0" result="hardAlpha"/>
<feOffset dy="3.83108"/>
<feGaussianBlur stdDeviation="1.91554"/>
<feComposite in2="hardAlpha" operator="out"/>
<feColorMatrix type="matrix" values="0 0 0 0 0 0 0 0 0 0 0 0 0 0 0 0 0 0 0.25 0"/>
<feBlend mode="normal" in2="BackgroundImageFix" result="effect1_dropShadow_746_1890"/>
<feBlend mode="normal" in="SourceGraphic" in2="effect1_dropShadow_746_1890" result="shape"/>
</filter>
<filter id="filter18_i_746_1890" x="63.8133" y="88.2708" width="10.5349" height="14.3653" filterUnits="userSpaceOnUse" color-interpolation-filters="sRGB">
<feFlood flood-opacity="0" result="BackgroundImageFix"/>
<feBlend mode="normal" in="SourceGraphic" in2="BackgroundImageFix" result="shape"/>
<feColorMatrix in="SourceAlpha" type="matrix" values="0 0 0 0 0 0 0 0 0 0 0 0 0 0 0 0 0 0 127 0" result="hardAlpha"/>
<feOffset dy="3.83108"/>
<feGaussianBlur stdDeviation="1.91554"/>
<feComposite in2="hardAlpha" operator="arithmetic" k2="-1" k3="1"/>
<feColorMatrix type="matrix" values="0 0 0 0 0 0 0 0 0 0 0 0 0 0 0 0 0 0 0.25 0"/>
<feBlend mode="normal" in2="shape" result="effect1_innerShadow_746_1890"/>
</filter>
<filter id="filter19_i_746_1890" x="98.4671" y="100.566" width="95.777" height="99.6082" filterUnits="userSpaceOnUse" color-interpolation-filters="sRGB">
<feFlood flood-opacity="0" result="BackgroundImageFix"/>
<feBlend mode="normal" in="SourceGraphic" in2="BackgroundImageFix" result="shape"/>
<feColorMatrix in="SourceAlpha" type="matrix" values="0 0 0 0 0 0 0 0 0 0 0 0 0 0 0 0 0 0 127 0" result="hardAlpha"/>
<feOffset dy="3.83108"/>
<feGaussianBlur stdDeviation="1.91554"/>
<feComposite in2="hardAlpha" operator="arithmetic" k2="-1" k3="1"/>
<feColorMatrix type="matrix" values="0 0 0 0 0 0 0 0 0 0 0 0 0 0 0 0 0 0 0.25 0"/>
<feBlend mode="normal" in2="shape" result="effect1_innerShadow_746_1890"/>
</filter>
<linearGradient id="paint0_linear_746_1890" x1="105.539" y1="139.356" x2="105.539" y2="343.207" gradientUnits="userSpaceOnUse">
<stop stop-color="#242325"/>
<stop offset="1" stop-color="#171619"/>
</linearGradient>
<clipPath id="clip0_746_1890">
<rect width="95.777" height="95.777" fill="white" transform="translate(98.4671 100.566)"/>
</clipPath>
</defs>
</svg>
